<svg width="16" height="16" viewBox="0 0 16 16" fill="none" xmlns="http://www.w3.org/2000/svg">
<path d="M8.00021 14.6668C6.8493 14.6678 5.71795 14.3691 4.71755 13.8001L2.21088 14.6354C2.14282 14.6572 2.07167 14.6678 2.00021 14.6668C1.89463 14.6667 1.79058 14.6415 1.69663 14.5934C1.60267 14.5452 1.5215 14.4754 1.45979 14.3898C1.39808 14.3041 1.3576 14.205 1.34167 14.1006C1.32575 13.9963 1.33485 13.8896 1.36821 13.7894L2.20021 11.2828C1.47958 10.0081 1.19888 8.53155 1.4015 7.08137C1.60412 5.63119 2.27879 4.28812 3.3212 3.2598C4.36362 2.23147 5.71574 1.57514 7.16854 1.39227C8.62135 1.20939 10.0939 1.51016 11.3587 2.24807C12.6234 2.98598 13.6099 4.11995 14.1656 5.47468C14.7213 6.82941 14.8153 8.32946 14.433 9.74295C14.0507 11.1564 13.2135 12.4047 12.0508 13.2947C10.888 14.1847 9.46448 14.6669 8.00021 14.6668ZM8.00021 2.66676C7.0458 2.66542 6.10856 2.92057 5.28653 3.40552C4.4645 3.89047 3.78789 4.58741 3.32746 5.42342C2.86704 6.25943 2.63972 7.20381 2.66929 8.15776C2.69886 9.11172 2.98423 10.0402 3.49555 10.8461C3.548 10.9298 3.58119 11.0241 3.59272 11.1223C3.60425 11.2204 3.59383 11.3198 3.56221 11.4134L3.05155 12.9468L4.58488 12.4361C4.67841 12.4041 4.77793 12.3934 4.87612 12.4049C4.97431 12.4165 5.06866 12.4499 5.15221 12.5028C5.85123 12.9465 6.64396 13.2214 7.46763 13.3057C8.2913 13.39 9.12328 13.2814 9.89769 12.9884C10.6721 12.6954 11.3677 12.2262 11.9293 11.6178C12.4909 11.0095 12.9032 10.2787 13.1335 9.48342C13.3638 8.68811 13.4057 7.85012 13.256 7.03579C13.1063 6.22147 12.7691 5.45318 12.271 4.79177C11.7729 4.13037 11.1277 3.59401 10.3864 3.22517C9.64515 2.85634 8.82818 2.66515 8.00021 2.66676Z" fill="white"/>
<path d="M8.00021 14.6668C6.8493 14.6678 5.71795 14.3691 4.71755 13.8001L2.21088 14.6354C2.14282 14.6572 2.07167 14.6678 2.00021 14.6668C1.89463 14.6667 1.79058 14.6415 1.69663 14.5934C1.60267 14.5452 1.5215 14.4754 1.45979 14.3898C1.39808 14.3041 1.3576 14.205 1.34167 14.1006C1.32575 13.9963 1.33485 13.8896 1.36821 13.7894L2.20021 11.2828C1.47958 10.0081 1.19888 8.53155 1.4015 7.08137C1.60412 5.63119 2.27879 4.28812 3.3212 3.2598C4.36362 2.23147 5.71574 1.57514 7.16854 1.39227C8.62135 1.20939 10.0939 1.51016 11.3587 2.24807C12.6234 2.98598 13.6099 4.11995 14.1656 5.47468C14.7213 6.82941 14.8153 8.32946 14.433 9.74295C14.0507 11.1564 13.2135 12.4047 12.0508 13.2947C10.888 14.1847 9.46448 14.6669 8.00021 14.6668ZM8.00021 2.66676C7.0458 2.66542 6.10856 2.92057 5.28653 3.40552C4.4645 3.89047 3.78789 4.58741 3.32746 5.42342C2.86704 6.25943 2.63972 7.20381 2.66929 8.15776C2.69886 9.11172 2.98423 10.0402 3.49555 10.8461C3.548 10.9298 3.58119 11.0241 3.59272 11.1223C3.60425 11.2204 3.59383 11.3198 3.56221 11.4134L3.05155 12.9468L4.58488 12.4361C4.67841 12.4041 4.77793 12.3934 4.87612 12.4049C4.97431 12.4165 5.06866 12.4499 5.15221 12.5028C5.85123 12.9465 6.64396 13.2214 7.46763 13.3057C8.2913 13.39 9.12328 13.2814 9.89769 12.9884C10.6721 12.6954 11.3677 12.2262 11.9293 11.6178C12.4909 11.0095 12.9032 10.2787 13.1335 9.48342C13.3638 8.68811 13.4057 7.85012 13.256 7.03579C13.1063 6.22147 12.7691 5.45318 12.271 4.79177C11.7729 4.13037 11.1277 3.59401 10.3864 3.22517C9.64515 2.85634 8.82818 2.66515 8.00021 2.66676Z" fill="url(#paint0_linear)"/>
<path d="M10.6663 6.99996L5.33301 6.99996C5.1562 6.99996 4.98663 6.92972 4.8616 6.80469C4.73658 6.67967 4.66634 6.5101 4.66634 6.33329C4.66634 6.15648 4.73658 5.98691 4.8616 5.86189C4.98663 5.73686 5.1562 5.66663 5.33301 5.66663L10.6663 5.66663C10.8432 5.66663 11.0127 5.73686 11.1377 5.86189C11.2628 5.98691 11.333 6.15648 11.333 6.33329C11.333 6.5101 11.2628 6.67967 11.1377 6.80469C11.0127 6.92972 10.8432 6.99996 10.6663 6.99996Z" fill="white"/>
<path d="M10.6663 6.99996L5.33301 6.99996C5.1562 6.99996 4.98663 6.92972 4.8616 6.80469C4.73658 6.67967 4.66634 6.5101 4.66634 6.33329C4.66634 6.15648 4.73658 5.98691 4.8616 5.86189C4.98663 5.73686 5.1562 5.66663 5.33301 5.66663L10.6663 5.66663C10.8432 5.66663 11.0127 5.73686 11.1377 5.86189C11.2628 5.98691 11.333 6.15648 11.333 6.33329C11.333 6.5101 11.2628 6.67967 11.1377 6.80469C11.0127 6.92972 10.8432 6.99996 10.6663 6.99996Z" fill="url(#paint1_linear)"/>
<path d="M10.6663 10.3333L7.99967 10.3333C7.82286 10.3333 7.65329 10.2631 7.52827 10.1381C7.40325 10.0131 7.33301 9.84349 7.33301 9.66667C7.33301 9.48986 7.40325 9.32029 7.52827 9.19526C7.65329 9.07024 7.82286 9 7.99967 9L10.6663 9C10.8432 9 11.0127 9.07024 11.1377 9.19526C11.2628 9.32029 11.333 9.48986 11.333 9.66667C11.333 9.84348 11.2628 10.0131 11.1377 10.1381C11.0127 10.2631 10.8432 10.3333 10.6663 10.3333Z" fill="white"/>
<path d="M10.6663 10.3333L7.99967 10.3333C7.82286 10.3333 7.65329 10.2631 7.52827 10.1381C7.40325 10.0131 7.33301 9.84349 7.33301 9.66667C7.33301 9.48986 7.40325 9.32029 7.52827 9.19526C7.65329 9.07024 7.82286 9 7.99967 9L10.6663 9C10.8432 9 11.0127 9.07024 11.1377 9.19526C11.2628 9.32029 11.333 9.48986 11.333 9.66667C11.333 9.84348 11.2628 10.0131 11.1377 10.1381C11.0127 10.2631 10.8432 10.3333 10.6663 10.3333Z" fill="url(#paint2_linear)"/>
<defs>
<linearGradient id="paint0_linear" x1="7.99906" y1="1.34009" x2="7.99906" y2="14.6668" gradientUnits="userSpaceOnUse">
<stop stop-color="white"/>
<stop offset="1" stop-color="white" stop-opacity="0"/>
</linearGradient>
<linearGradient id="paint1_linear" x1="7.99967" y1="5.66663" x2="7.99967" y2="6.99996" gradientUnits="userSpaceOnUse">
<stop stop-color="white"/>
<stop offset="1" stop-color="white" stop-opacity="0"/>
</linearGradient>
<linearGradient id="paint2_linear" x1="9.33301" y1="9" x2="9.33301" y2="10.3333" gradientUnits="userSpaceOnUse">
<stop stop-color="white"/>
<stop offset="1" stop-color="white" stop-opacity="0"/>
</linearGradient>
</defs>
</svg>
