<svg width="108" height="32" viewBox="0 0 108 32" fill="none" xmlns="http://www.w3.org/2000/svg">
<path d="M104 0H4C1.79086 0 0 1.79086 0 4V28C0 30.2091 1.79086 32 4 32H104C106.209 32 108 30.2091 108 28V4C108 1.79086 106.209 0 104 0Z" fill="black"/>
<path d="M104 0.64C104.891 0.64 105.746 0.993999 106.376 1.62412C107.006 2.25424 107.36 3.10887 107.36 4V28C107.36 28.8911 107.006 29.7458 106.376 30.3759C105.746 31.006 104.891 31.36 104 31.36H4C3.10887 31.36 2.25424 31.006 1.62412 30.3759C0.993999 29.7458 0.64 28.8911 0.64 28V4C0.64 3.10887 0.993999 2.25424 1.62412 1.62412C2.25424 0.993999 3.10887 0.64 4 0.64H104ZM104 0H4C2.93913 0 1.92172 0.421427 1.17157 1.17157C0.421427 1.92172 0 2.93913 0 4V28C0 29.0609 0.421427 30.0783 1.17157 30.8284C1.92172 31.5786 2.93913 32 4 32H104C105.061 32 106.078 31.5786 106.828 30.8284C107.579 30.0783 108 29.0609 108 28V4C108 2.93913 107.579 1.92172 106.828 1.17157C106.078 0.421427 105.061 0 104 0Z" fill="#A6A6A6"/>
<path d="M54.5119 17.4002C53.8401 17.4034 53.1843 17.6054 52.6273 17.981C52.0703 18.3565 51.637 18.8886 51.3821 19.5101C51.1272 20.1317 51.0622 20.8148 51.1952 21.4733C51.3282 22.1317 51.6532 22.7361 52.1294 23.21C52.6055 23.6839 53.2113 24.0061 53.8704 24.136C54.5295 24.2659 55.2123 24.1976 55.8327 23.9398C56.453 23.682 56.9831 23.2462 57.356 22.6875C57.7289 22.1287 57.9279 21.472 57.9279 20.8002C57.9344 20.3505 57.8504 19.9042 57.6808 19.4877C57.5113 19.0712 57.2596 18.693 56.9409 18.3758C56.6222 18.0586 56.2429 17.8087 55.8256 17.6411C55.4083 17.4735 54.9615 17.3916 54.5119 17.4002ZM54.5119 22.8642C54.0987 22.8931 53.6865 22.797 53.3287 22.5885C52.9708 22.38 52.684 22.0686 52.5055 21.6949C52.327 21.3213 52.265 20.9025 52.3276 20.4931C52.3902 20.0837 52.5746 19.7027 52.8567 19.3994C53.1387 19.0962 53.5055 18.8848 53.9093 18.7928C54.3131 18.7008 54.7352 18.7324 55.1208 18.8835C55.5064 19.0345 55.8377 19.2981 56.0715 19.64C56.3053 19.9818 56.4309 20.386 56.4319 20.8002C56.4448 21.0626 56.405 21.3249 56.3149 21.5717C56.2248 21.8185 56.0861 22.0448 55.9072 22.2371C55.7283 22.4295 55.5126 22.5841 55.273 22.6918C55.0333 22.7995 54.7745 22.8581 54.5119 22.8642ZM47.0639 17.4002C46.3918 17.4018 45.7352 17.6025 45.1771 17.9771C44.6191 18.3516 44.1845 18.8832 43.9284 19.5046C43.6723 20.126 43.6061 20.8094 43.7382 21.4684C43.8703 22.1274 44.1947 22.7325 44.6706 23.2072C45.1464 23.6819 45.7522 24.0049 46.4115 24.1354C47.0708 24.266 47.754 24.1982 48.3748 23.9406C48.9957 23.683 49.5262 23.2472 49.8994 22.6883C50.2727 22.1293 50.4719 21.4723 50.4719 20.8002C50.4784 20.3505 50.3944 19.9042 50.2248 19.4877C50.0553 19.0712 49.8036 18.693 49.4849 18.3758C49.1662 18.0586 48.7869 17.8087 48.3696 17.6411C47.9523 17.4735 47.5055 17.3916 47.0559 17.4002H47.0639ZM47.0639 22.8642C46.6505 22.8947 46.2376 22.8001 45.8788 22.5926C45.52 22.3852 45.2319 22.0745 45.0522 21.7011C44.8724 21.3276 44.8092 20.9087 44.8708 20.4989C44.9325 20.089 45.1161 19.7072 45.3977 19.4031C45.6794 19.0991 46.0461 18.8869 46.45 18.7941C46.854 18.7014 47.2765 18.7324 47.6626 18.8831C48.0486 19.0339 48.3804 19.2974 48.6146 19.6393C48.8489 19.9812 48.9748 20.3857 48.9759 20.8002C48.9888 21.0626 48.949 21.3249 48.8589 21.5717C48.7688 21.8185 48.6301 22.0448 48.4512 22.2371C48.2723 22.4295 48.0566 22.5841 47.817 22.6918C47.5773 22.7995 47.3185 22.8581 47.0559 22.8642H47.0639ZM38.1919 18.4482V19.8882H41.6479C41.5937 20.5664 41.3118 21.2064 40.8479 21.7042C40.5021 22.0564 40.0865 22.3323 39.6277 22.5142C39.1688 22.696 38.677 22.7798 38.1839 22.7602C37.1655 22.7602 36.1887 22.3556 35.4686 21.6355C34.7485 20.9153 34.3439 19.9386 34.3439 18.9202C34.3439 17.9018 34.7485 16.925 35.4686 16.2049C36.1887 15.4848 37.1655 15.0802 38.1839 15.0802C39.1581 15.0643 40.0989 15.4354 40.7999 16.1122L41.8159 15.0962C41.3427 14.617 40.7781 14.2377 40.1556 13.9807C39.5331 13.7238 38.8653 13.5944 38.1919 13.6002C37.4807 13.5725 36.7712 13.6887 36.106 13.9418C35.4408 14.1948 34.8335 14.5796 34.3205 15.073C33.8075 15.5664 33.3994 16.1583 33.1207 16.8131C32.8419 17.468 32.6982 18.1725 32.6982 18.8842C32.6982 19.5959 32.8419 20.3004 33.1207 20.9552C33.3994 21.6101 33.8075 22.202 34.3205 22.6954C34.8335 23.1888 35.4408 23.5735 36.106 23.8266C36.7712 24.0797 37.4807 24.1959 38.1919 24.1682C38.8766 24.1991 39.5601 24.0831 40.1962 23.8278C40.8324 23.5725 41.4065 23.1839 41.8799 22.6882C42.718 21.7673 43.1655 20.5568 43.1279 19.3122C43.1305 19.009 43.1037 18.7062 43.0479 18.4082L38.1919 18.4482ZM74.4399 19.5682C74.2313 18.9544 73.8411 18.4184 73.3211 18.0313C72.8011 17.6441 72.1757 17.424 71.5279 17.4002C71.0903 17.3993 70.6572 17.4882 70.2553 17.6614C69.8534 17.8346 69.4913 18.0884 69.1914 18.407C68.8915 18.7257 68.6601 19.1025 68.5116 19.5141C68.363 19.9257 68.3005 20.3634 68.3279 20.8002C68.3182 21.2473 68.3987 21.6918 68.5646 22.1071C68.7305 22.5225 68.9784 22.9001 69.2935 23.2175C69.6086 23.5348 69.9845 23.7854 70.3986 23.9543C70.8128 24.1231 71.2567 24.2067 71.7039 24.2002C72.2635 24.2032 72.8151 24.0674 73.3093 23.8049C73.8036 23.5424 74.225 23.1615 74.5359 22.6962L73.3759 21.8962C73.2028 22.1848 72.9576 22.4236 72.6646 22.589C72.3715 22.7545 72.0405 22.841 71.7039 22.8402C71.3574 22.8534 71.0149 22.762 70.721 22.578C70.427 22.3939 70.1953 22.1257 70.0559 21.8082L74.6079 19.9282L74.4399 19.5682ZM69.7999 20.7042C69.7837 20.4567 69.817 20.2086 69.8979 19.9741C69.9788 19.7397 70.1057 19.5238 70.2711 19.3391C70.4365 19.1543 70.6371 19.0044 70.8611 18.8981C71.0852 18.7919 71.3282 18.7314 71.5759 18.7202C71.8339 18.7032 72.0913 18.7624 72.316 18.8904C72.5407 19.0184 72.7229 19.2096 72.8399 19.4402L69.7999 20.7042ZM66.1039 24.0002H67.5999V14.0002H66.1039V24.0002ZM63.6559 18.1602H63.5999C63.3744 17.9081 63.0982 17.7065 62.7894 17.5687C62.4806 17.4308 62.1461 17.3597 61.8079 17.3602C60.9336 17.4026 60.1092 17.7797 59.5055 18.4135C58.9017 19.0472 58.565 19.8889 58.565 20.7642C58.565 21.6395 58.9017 22.4812 59.5055 23.1149C60.1092 23.7487 60.9336 24.1258 61.8079 24.1682C62.1469 24.1739 62.483 24.1052 62.7926 23.967C63.1022 23.8288 63.3778 23.6244 63.5999 23.3682H63.6479V23.8562C63.6479 25.1602 62.9519 25.8562 61.8319 25.8562C61.4589 25.8475 61.0969 25.7279 60.792 25.5128C60.4871 25.2977 60.2532 24.9967 60.1199 24.6482L58.8159 25.1922C59.0613 25.7893 59.4796 26.2994 60.017 26.6572C60.5543 27.015 61.1863 27.2041 61.8319 27.2002C63.5839 27.2002 65.0319 26.1682 65.0319 23.6562V17.6002H63.6559V18.1602ZM61.9439 22.8642C61.4278 22.8187 60.9476 22.5816 60.5977 22.1995C60.2478 21.8175 60.0538 21.3182 60.0538 20.8002C60.0538 20.2822 60.2478 19.7829 60.5977 19.4009C60.9476 19.0188 61.4278 18.7817 61.9439 18.7362C62.1997 18.7493 62.4504 18.8135 62.681 18.925C62.9117 19.0365 63.1177 19.193 63.287 19.3854C63.4562 19.5777 63.5852 19.802 63.6664 20.045C63.7477 20.288 63.7794 20.5447 63.7599 20.8002C63.7817 21.0567 63.7513 21.3151 63.6704 21.5595C63.5896 21.804 63.46 22.0295 63.2895 22.2224C63.119 22.4154 62.9111 22.5717 62.6784 22.682C62.4458 22.7923 62.1932 22.8543 61.9359 22.8642H61.9439ZM81.4479 14.0002H77.8719V24.0002H79.3679V20.2082H81.4559C81.8822 20.2388 82.3103 20.1813 82.7135 20.0392C83.1166 19.8971 83.4862 19.6734 83.7991 19.3822C84.112 19.091 84.3615 18.7384 84.5322 18.3465C84.7028 17.9545 84.7909 17.5317 84.7909 17.1042C84.7909 16.6767 84.7028 16.2539 84.5322 15.8619C84.3615 15.47 84.112 15.1174 83.7991 14.8262C83.4862 14.535 83.1166 14.3113 82.7135 14.1692C82.3103 14.0271 81.8822 13.9696 81.4559 14.0002H81.4479ZM81.4479 18.8002H79.3599V15.3922H81.4799C81.935 15.3922 82.3715 15.573 82.6933 15.8948C83.0151 16.2166 83.1959 16.6531 83.1959 17.1082C83.1959 17.5633 83.0151 17.9998 82.6933 18.3216C82.3715 18.6434 81.935 18.8242 81.4799 18.8242L81.4479 18.8002ZM90.6719 17.3602C90.1273 17.3276 89.585 17.4549 89.1117 17.7264C88.6384 17.9978 88.2548 18.4016 88.0079 18.8882L89.3359 19.4402C89.4668 19.1989 89.6651 19.0008 89.9065 18.8702C90.148 18.7395 90.4222 18.6818 90.6959 18.7042C90.8858 18.682 91.0782 18.6979 91.2619 18.7509C91.4456 18.8038 91.617 18.8929 91.7659 19.0128C91.9148 19.1327 92.0384 19.281 92.1294 19.4492C92.2204 19.6173 92.277 19.8019 92.2959 19.9922V20.0962C91.8154 19.8418 91.2796 19.7099 90.7359 19.7122C89.3039 19.7122 87.8559 20.5122 87.8559 21.9602C87.87 22.2689 87.9459 22.5717 88.0791 22.8506C88.2122 23.1295 88.4 23.3789 88.6312 23.584C88.8624 23.7891 89.1324 23.9458 89.4252 24.0448C89.718 24.1437 90.0277 24.183 90.3359 24.1602C90.7126 24.1872 91.0897 24.1124 91.4275 23.9435C91.7654 23.7746 92.0515 23.5178 92.2559 23.2002H92.3039V24.0002H93.7439V20.1522C93.7439 18.4002 92.4159 17.3842 90.7119 17.3842L90.6719 17.3602ZM90.4879 22.8402C89.9999 22.8402 89.3199 22.5922 89.3199 21.9922C89.3199 21.1922 90.1679 20.9282 90.9199 20.9282C91.3951 20.9165 91.8648 21.0325 92.2799 21.2642C92.2299 21.6973 92.025 22.0978 91.7031 22.3918C91.3811 22.6858 90.9638 22.8536 90.5279 22.8642L90.4879 22.8402ZM98.9919 17.6002L97.2799 21.9362H97.2319L95.4559 17.6002H93.8559L96.5199 23.6642L94.9999 27.0322H96.5599L100.656 17.6002H98.9919ZM85.5439 24.0002H87.0399V14.0002H85.5439V24.0002Z" fill="white"/>
<path d="M37.8846 8.24214C37.8982 8.53557 37.852 8.82871 37.7489 9.10375C37.6458 9.37879 37.4878 9.63001 37.2846 9.84214C37.0577 10.0778 36.7837 10.263 36.4805 10.3857C36.1772 10.5084 35.8515 10.5658 35.5246 10.5541C35.0286 10.5503 34.5448 10.4001 34.1337 10.1224C33.7227 9.84476 33.4027 9.45198 33.214 8.99327C33.0252 8.53457 32.976 8.03036 33.0725 7.54381C33.169 7.05727 33.407 6.61003 33.7566 6.25814C33.9864 6.02357 34.2618 5.83864 34.5659 5.7148C34.8701 5.59095 35.1963 5.53083 35.5246 5.53814C35.8628 5.53702 36.1977 5.60508 36.5086 5.73814C36.7981 5.85491 37.0558 6.03859 37.2606 6.27414L36.8366 6.69814C36.6769 6.50822 36.4753 6.35803 36.2476 6.25945C36.0199 6.16087 35.7724 6.11661 35.5246 6.13014C35.2747 6.12892 35.0272 6.17817 34.7968 6.27493C34.5664 6.3717 34.3579 6.514 34.1838 6.6933C34.0098 6.87259 33.8737 7.08519 33.7838 7.31834C33.6939 7.55149 33.652 7.8004 33.6606 8.05014C33.6554 8.42305 33.7607 8.78916 33.9633 9.10228C34.1659 9.4154 34.4567 9.66151 34.799 9.80955C35.1413 9.9576 35.5197 10.0009 35.8867 9.93414C36.2536 9.86732 36.5925 9.69334 36.8606 9.43414C37.1068 9.16737 37.2488 8.82094 37.2606 8.45814H35.5246V7.88214H37.8526C37.874 8.00096 37.8847 8.12143 37.8846 8.24214ZM41.5486 6.24214H39.3886V7.76214H41.3566V8.33814H39.3886V9.85814H41.5486V10.4501H38.7486V5.65014H41.5486V6.24214ZM44.1726 10.4501H43.5566V6.24214H42.2126V5.65014H45.5486V6.24214H44.1726V10.4501ZM47.9006 10.4501V5.65014H48.5166V10.4501H47.9006ZM51.2526 10.4501H50.6366V6.24214H49.2926V5.65014H52.5886V6.24214H51.2526V10.4501ZM58.8366 9.82614C58.3689 10.2912 57.7362 10.5523 57.0766 10.5523C56.417 10.5523 55.7843 10.2912 55.3166 9.82614C54.862 9.34496 54.6088 8.7081 54.6088 8.04614C54.6088 7.38419 54.862 6.74733 55.3166 6.26614C55.5471 6.03394 55.8213 5.84964 56.1234 5.72388C56.4254 5.59812 56.7494 5.53337 57.0766 5.53337C57.4038 5.53337 57.7278 5.59812 58.0298 5.72388C58.3319 5.84964 58.6061 6.03394 58.8366 6.26614C59.293 6.74641 59.5475 7.38362 59.5475 8.04614C59.5475 8.70867 59.293 9.34588 58.8366 9.82614ZM55.7726 9.42614C56.119 9.77104 56.5878 9.96468 57.0766 9.96468C57.5654 9.96468 58.0343 9.77104 58.3806 9.42614C58.7224 9.04936 58.9117 8.55886 58.9117 8.05014C58.9117 7.54143 58.7224 7.05093 58.3806 6.67414C58.0343 6.32925 57.5654 6.1356 57.0766 6.1356C56.5878 6.1356 56.119 6.32925 55.7726 6.67414C55.4308 7.05093 55.2415 7.54143 55.2415 8.05014C55.2415 8.55886 55.4308 9.04936 55.7726 9.42614ZM60.4126 10.4501V5.65014H61.1646L63.5006 9.38614V5.65014H64.1166V10.4501H63.4766L61.0366 6.53814V10.4501H60.4126Z" fill="white"/>
<path fill-rule="evenodd" clip-rule="evenodd" d="M57.0766 5.61337C56.76 5.61337 56.4465 5.67603 56.1541 5.79773C55.8621 5.91931 55.597 6.09742 55.3741 6.3218C54.934 6.78805 54.6888 7.40495 54.6888 8.04614C54.6888 8.68725 54.9339 9.30408 55.3739 9.7703C55.8265 10.2199 56.4386 10.4723 57.0766 10.4723C57.7147 10.4723 58.3268 10.2199 58.7794 9.77021C59.2212 9.30491 59.4675 8.68778 59.4675 8.04614C59.4675 7.40443 59.2211 6.78722 58.7792 6.32191C58.5563 6.09747 58.2911 5.91933 57.9991 5.79773C57.7068 5.67603 57.3933 5.61337 57.0766 5.61337ZM56.0926 5.65003C56.4044 5.5202 56.7389 5.45337 57.0766 5.45337C57.4144 5.45337 57.7488 5.5202 58.0606 5.65003C58.3724 5.77985 58.6554 5.97009 58.8934 6.20978L58.8946 6.21102C59.3651 6.70615 59.6275 7.36311 59.6275 8.04614C59.6275 8.72918 59.3651 9.38612 58.8946 9.88125L58.893 9.88289C58.4104 10.3629 57.7573 10.6323 57.0766 10.6323C56.3959 10.6323 55.7429 10.3629 55.2602 9.88287L55.2584 9.88111C54.7898 9.38508 54.5288 8.72853 54.5288 8.04614C54.5288 7.36376 54.7898 6.70724 55.2585 6.21121L55.2598 6.20976C55.4978 5.97007 55.7808 5.77985 56.0926 5.65003ZM35.5228 5.61812C35.2055 5.61105 34.8901 5.66917 34.5961 5.78889C34.3022 5.9086 34.0359 6.08737 33.8138 6.31412L33.8134 6.31453C33.4749 6.65525 33.2445 7.08828 33.151 7.55938C33.0575 8.03048 33.1052 8.51869 33.2879 8.96283C33.4707 9.40697 33.7805 9.78729 34.1785 10.0561C34.5765 10.325 35.045 10.4704 35.5252 10.4741L35.5275 10.4742C35.8431 10.4854 36.1577 10.43 36.4505 10.3116C36.7433 10.1931 37.0078 10.0143 37.2269 9.78674C37.4226 9.58245 37.5747 9.34053 37.674 9.07566C37.7733 8.81077 37.8178 8.52845 37.8047 8.24585L37.8846 8.24214L37.8046 8.24211C37.8046 8.1484 37.7979 8.05483 37.7845 7.96214H35.6046V8.37814H37.3433L37.3406 8.46076C37.3281 8.84275 37.1786 9.20751 36.9194 9.4884L36.9163 9.49176C36.6368 9.76194 36.2834 9.9432 35.901 10.0128C35.5185 10.0825 35.124 10.0373 34.7672 9.88298C34.4104 9.72866 34.1073 9.47212 33.8961 9.14574C33.6853 8.81989 33.5755 8.439 33.5806 8.05096C33.5719 7.79111 33.6156 7.53216 33.7092 7.28956C33.8029 7.04635 33.9449 6.82459 34.1264 6.63757C34.308 6.45055 34.5255 6.30212 34.7658 6.20118C35.0054 6.10054 35.2628 6.04918 35.5226 6.05013C35.782 6.03633 36.041 6.08285 36.2794 6.18604C36.4918 6.278 36.6826 6.41273 36.8401 6.5815L37.1502 6.27137C36.9624 6.07179 36.7334 5.91507 36.4787 5.81234L36.4771 5.81171C36.1762 5.68293 35.8522 5.61705 35.5249 5.61814L35.5228 5.61812ZM37.9646 8.24031C37.9784 8.54394 37.9305 8.84723 37.8238 9.13184C37.7169 9.41703 37.5531 9.67752 37.3424 9.89748C37.1077 10.1413 36.8242 10.333 36.5105 10.4599C36.1972 10.5866 35.8607 10.646 35.5229 10.6341C35.0115 10.6299 34.5127 10.475 34.0889 10.1887C33.6649 9.90224 33.3348 9.49698 33.14 9.02372C32.9452 8.55046 32.8945 8.03024 32.994 7.52825C33.0936 7.02635 33.3391 6.56499 33.6997 6.20196C33.937 5.95966 34.2216 5.76864 34.5358 5.6407C34.8497 5.51286 35.1865 5.45073 35.5254 5.45814C35.8739 5.45712 36.2189 5.52726 36.5393 5.66427C36.8402 5.78577 37.1081 5.97677 37.321 6.22165L37.3699 6.27796L36.8315 6.81639L36.7754 6.74962C36.6237 6.5692 36.4321 6.42652 36.2158 6.33287C35.9995 6.23922 35.7643 6.19716 35.529 6.21002L35.5242 6.21028C35.2851 6.20911 35.0482 6.25609 34.8278 6.34869C34.6073 6.44129 34.4078 6.57745 34.2412 6.74902C34.0747 6.92059 33.9445 7.12402 33.8584 7.34712C33.7724 7.57023 33.7323 7.80841 33.7406 8.04738L33.7407 8.05127C33.7357 8.40838 33.8364 8.75897 34.0304 9.05882C34.2245 9.35867 34.5029 9.59435 34.8307 9.73612C35.1585 9.8779 35.521 9.91941 35.8723 9.85543C36.2229 9.79159 36.5468 9.62555 36.8034 9.37822C37.0168 9.14614 37.1472 8.8507 37.1756 8.53814H35.4446V7.80214H37.9195L37.9314 7.868C37.9534 7.99088 37.9646 8.11547 37.9646 8.24031ZM38.6686 5.57014H41.6286V6.32214H39.4686V7.68214H41.4366V8.41814H39.4686V9.77814H41.6286V10.5301H38.6686V5.57014ZM38.8286 5.73014V10.3701H41.4686V9.93814H39.3086V8.25814H41.2766V7.84214H39.3086V6.16214H41.4686V5.73014H38.8286ZM42.1326 5.57014H45.6286V6.32214H44.2526V10.5301H43.4766V6.32214H42.1326V5.57014ZM42.2926 5.73014V6.16214H43.6366V10.3701H44.0926V6.16214H45.4686V5.73014H42.2926ZM47.8206 5.57014H48.5966V10.5301H47.8206V5.57014ZM47.9806 5.73014V10.3701H48.4366V5.73014H47.9806ZM49.2126 5.57014H52.6686V6.32214H51.3326V10.5301H50.5566V6.32214H49.2126V5.57014ZM49.3726 5.73014V6.16214H50.7166V10.3701H51.1726V6.16214H52.5086V5.73014H49.3726ZM60.3326 5.57014H61.2089L63.4206 9.1073V5.57014H64.1966V10.5301H63.4322L61.1166 6.81757V10.5301H60.3326V5.57014ZM60.4926 5.73014V10.3701H60.9566V6.25872L63.521 10.3701H64.0366V5.73014H63.5806V9.66499L61.1203 5.73014H60.4926ZM55.7162 6.61746C56.0775 6.25763 56.5667 6.0556 57.0766 6.0556C57.5866 6.0556 58.0757 6.25763 58.4371 6.61746L58.4399 6.62032C58.7951 7.01183 58.9917 7.52156 58.9917 8.05014C58.9917 8.57873 58.795 9.08839 58.4399 9.47989L58.4371 9.4829C58.0758 9.84273 57.5866 10.0447 57.0766 10.0447C56.5667 10.0447 56.0775 9.84266 55.7162 9.48283L55.7726 9.42614L55.7134 9.47989C55.3582 9.08839 55.1615 8.57873 55.1615 8.05014C55.1615 7.52156 55.3582 7.0119 55.7134 6.62039L55.7162 6.61746ZM55.8305 9.3709C56.1617 9.69996 56.6097 9.88468 57.0766 9.88468C57.5436 9.88468 57.9915 9.69996 58.3227 9.3709C58.6503 9.00903 58.8317 8.53831 58.8317 8.05014C58.8317 7.56198 58.6503 7.09126 58.3227 6.72939C57.9915 6.40032 57.5436 6.2156 57.0766 6.2156C56.6097 6.2156 56.1617 6.40032 55.8305 6.72939C55.5029 7.09126 55.3215 7.56198 55.3215 8.05014C55.3215 8.53831 55.5029 9.00903 55.8305 9.3709Z" fill="white"/>
<path d="M8.35134 6.03208C8.09059 6.34496 7.95898 6.74551 7.98333 7.15208V24.8481C7.95898 25.2546 8.09059 25.6552 8.35134 25.9681L8.40734 26.0241L18.3193 16.1201V15.8881L8.40734 5.97607L8.35134 6.03208Z" fill="url(#paint0_linear)"/>
<path d="M21.6003 19.4242L18.3203 16.1202V15.8882L21.6003 12.5762L21.6723 12.6162L25.6003 14.8482C26.7203 15.4802 26.7203 16.5202 25.6003 17.1602L21.6883 19.3842L21.6003 19.4242Z" fill="url(#paint1_linear)"/>
<path d="M21.6946 19.376L18.3186 16L8.35059 25.968C8.57888 26.1687 8.8701 26.2833 9.17393 26.2921C9.47776 26.3008 9.77511 26.2032 10.0146 26.016L21.7026 19.376" fill="url(#paint2_linear)"/>
<path d="M21.6967 12.6241L10.0087 5.98414C9.76925 5.79695 9.4719 5.6993 9.16807 5.70806C8.86424 5.71683 8.57302 5.83146 8.34473 6.03214L18.3207 16.0001L21.6967 12.6241Z" fill="url(#paint3_linear)"/>
<path opacity="0.2" d="M21.5986 19.3042L10.0066 25.9042C9.77562 26.0769 9.49497 26.1702 9.20659 26.1702C8.9182 26.1702 8.63755 26.0769 8.40659 25.9042L8.35059 25.9602L8.40659 26.0162C8.63703 26.1901 8.91788 26.2842 9.20659 26.2842C9.4953 26.2842 9.77614 26.1901 10.0066 26.0162L21.6946 19.3762L21.5986 19.3042Z" fill="black"/>
<path opacity="0.12" d="M8.35134 25.856C8.09059 25.5431 7.95898 25.1426 7.98333 24.736V24.856C7.95898 25.2626 8.09059 25.6631 8.35134 25.976L8.40734 25.92L8.35134 25.856ZM25.5993 17.04L21.5993 19.304L21.6713 19.376L25.5993 17.152C25.8222 17.0473 26.0135 16.8857 26.154 16.6834C26.2945 16.4811 26.3791 16.2454 26.3993 16C26.3543 16.223 26.2588 16.4326 26.1202 16.6129C25.9815 16.7932 25.8033 16.9393 25.5993 17.04Z" fill="black"/>
<path opacity="0.25" d="M10.0076 6.09595L25.5996 14.96C25.8036 15.0606 25.9817 15.2067 26.1204 15.387C26.2591 15.5673 26.3546 15.777 26.3996 16C26.3793 15.7545 26.2947 15.5188 26.1542 15.3165C26.0138 15.1143 25.8225 14.9527 25.5996 14.8479L10.0076 5.98395C8.88759 5.35195 7.97559 5.87995 7.97559 7.15995V7.27995C7.99959 5.99195 8.89559 5.46395 10.0076 6.09595Z" fill="white"/>
<defs>
<linearGradient id="paint0_linear" x1="17.4393" y1="6.96807" x2="4.01534" y2="20.3921" gradientUnits="userSpaceOnUse">
<stop stop-color="#00A0FF"/>
<stop offset="0.01" stop-color="#00A1FF"/>
<stop offset="0.26" stop-color="#00BEFF"/>
<stop offset="0.51" stop-color="#00D2FF"/>
<stop offset="0.76" stop-color="#00DFFF"/>
<stop offset="1" stop-color="#00E3FF"/>
</linearGradient>
<linearGradient id="paint1_linear" x1="27.0643" y1="16.0002" x2="7.71231" y2="16.0002" gradientUnits="userSpaceOnUse">
<stop stop-color="#FFE000"/>
<stop offset="0.41" stop-color="#FFBD00"/>
<stop offset="0.78" stop-color="#FFA500"/>
<stop offset="1" stop-color="#FF9C00"/>
</linearGradient>
<linearGradient id="paint2_linear" x1="19.8626" y1="17.84" x2="1.65459" y2="36.04" gradientUnits="userSpaceOnUse">
<stop stop-color="#FF3A44"/>
<stop offset="1" stop-color="#C31162"/>
</linearGradient>
<linearGradient id="paint3_linear" x1="5.84073" y1="0.144137" x2="13.9687" y2="8.27214" gradientUnits="userSpaceOnUse">
<stop stop-color="#32A071"/>
<stop offset="0.07" stop-color="#2DA771"/>
<stop offset="0.48" stop-color="#15CF74"/>
<stop offset="0.8" stop-color="#06E775"/>
<stop offset="1" stop-color="#00F076"/>
</linearGradient>
</defs>
</svg>
