<svg width="82" height="24" viewBox="0 0 82 24" fill="none" xmlns="http://www.w3.org/2000/svg">
<path d="M8.44476 5.16556H11.1792C12.7073 5.16556 13.5116 4.76821 13.5116 3.97351C13.5116 3.65563 13.3507 3.41721 13.029 3.25828C12.7073 3.09934 12.3052 2.9404 11.7423 2.9404C10.9379 2.9404 10.2141 3.1788 9.49029 3.65563C8.84687 4.05298 8.44476 4.5298 8.44476 5.16556ZM9.73159 7.86755L10.7771 9.1391L11.4205 9.85429C12.5465 11.2847 13.1899 12.7153 13.1899 14.3046C13.1899 15.8146 12.6269 17.1655 11.5814 18.2781C10.2141 19.8676 8.36435 20.6622 6.03196 20.6622C4.26259 20.6622 2.81492 20.106 1.68895 19.0729C0.562983 18.0397 0 16.6888 0 15.0199C0 13.0331 0.884687 11.2847 2.65406 9.93375C3.61918 9.21857 4.42344 8.82116 5.2277 8.82116C5.62983 8.82116 5.95154 8.90063 6.19282 9.1391C6.4341 9.3775 6.59494 9.69536 6.59494 10.0132C6.59494 10.4901 6.27324 10.8874 5.71026 11.2847L4.82557 11.8411C4.26259 12.1589 3.86046 12.6358 3.53875 13.1921C3.21705 13.7483 2.97577 14.3046 3.05619 14.8609C3.05619 15.7351 3.3779 16.4504 3.94088 17.0861C4.58429 17.6424 5.30813 17.9603 6.27324 17.9603C7.31878 17.9603 8.20347 17.5629 9.00777 16.8477C9.812 16.1324 10.1337 15.1788 10.1337 14.2252C10.1337 13.5894 9.97281 12.9537 9.6511 12.3973C9.32948 11.8411 8.68606 11.0463 7.64049 9.93375C6.91665 9.1391 6.4341 8.5033 6.11239 7.86755H3.05619C2.01065 7.86755 1.44767 7.54967 1.44767 6.83444C1.44767 6.35762 1.60852 5.96027 2.01065 5.64238C2.33236 5.40397 2.89534 5.24504 3.53875 5.24504H5.46898C5.62983 3.81457 6.27324 2.54304 7.56006 1.5894C8.76647 0.635762 10.2141 0.15894 11.9835 0.15894C13.2703 0.15894 14.3158 0.476821 15.1202 1.19205C15.9244 1.90729 16.3265 2.78146 16.3265 3.89404C16.3265 5.3245 15.6831 6.43709 14.3963 7.23179C13.6724 7.62914 12.5465 7.86755 10.9379 7.86755H9.73159ZM19.5436 7.07285H19.8653C20.8303 7.07285 21.313 7.39073 21.313 8.10598C21.313 8.58277 21.1521 8.90063 20.8303 9.1391C20.5086 9.3775 20.0261 9.53643 19.3827 9.53643H18.5785L17.0503 13.2715H18.3372C19.3023 13.2715 19.7848 13.5894 19.7848 14.3046C19.7848 14.7814 19.624 15.0994 19.3023 15.3378C18.9806 15.5762 18.4981 15.7351 17.9351 15.7351H15.9244C15.3614 15.7351 14.8789 15.5762 14.5571 15.3378C14.2354 15.0994 14.0746 14.702 14.0746 14.2252C14.0746 13.9868 14.155 13.6688 14.3158 13.2715L14.5571 12.7947L15.844 9.53643H15.6831C14.8789 9.53643 14.3963 9.21857 14.3963 8.58277C14.3963 8.10598 14.5571 7.78808 14.8789 7.4702C15.2006 7.23179 15.6831 7.07285 16.2461 7.07285H16.7286L17.2916 5.56291L17.372 5.24504C17.6937 4.37086 18.2568 3.97351 19.061 3.97351C19.3827 3.97351 19.624 4.05298 19.8653 4.29139C20.1065 4.5298 20.187 4.76821 20.187 5.00663C20.187 5.3245 20.1065 5.64238 19.8653 6.11921L19.5436 7.07285ZM28.7122 13.1921H29.9989C30.4815 13.1921 30.8836 13.2715 31.125 13.4304C31.3662 13.5894 31.4467 13.8279 31.4467 14.2252C31.4467 14.702 31.2858 15.0199 30.9641 15.3378C30.6423 15.5762 30.1598 15.7351 29.5164 15.7351H27.5057C26.8623 15.7351 26.4602 15.4967 26.2189 15.0199C25.8168 15.4967 25.2538 15.7351 24.6909 15.7351H23.0823C22.4389 15.7351 21.876 15.4967 21.4738 15.0994C20.9912 14.702 20.8303 14.1457 20.8303 13.5099C20.8303 13.1126 20.9108 12.7153 21.1521 12.2384L22.6802 8.42384C23.0823 7.39073 23.7257 6.83444 24.4496 6.83444C24.7713 6.83444 25.093 6.91391 25.2538 7.15232C25.4951 7.39073 25.5755 7.62914 25.5755 7.86755C25.5755 8.10598 25.4951 8.34438 25.4147 8.66224L25.3343 8.98009L24.1278 11.9205L23.967 12.2384C23.8865 12.3973 23.8865 12.5563 23.8865 12.6358C23.8865 12.9537 24.1278 13.1921 24.53 13.1921C25.4951 13.1921 26.0581 12.7947 26.3798 12.0795L27.8275 8.58277C28.2296 7.54967 28.873 6.99338 29.5968 6.99338C29.9185 6.99338 30.1598 7.07285 30.4011 7.31126C30.6423 7.54967 30.7228 7.78808 30.7228 8.10598C30.7228 8.34437 30.6423 8.66224 30.4011 9.21857L28.7122 13.1921ZM35.1463 13.4304H35.5484C36.0309 13.4304 36.433 13.2715 36.5939 12.8742L37.3982 10.8874C37.4786 10.649 37.559 10.4901 37.559 10.3312C37.559 10.0927 37.4786 9.93375 37.2373 9.77482C37.0764 9.61589 36.8352 9.53643 36.5135 9.53643C35.9505 9.53643 35.3875 9.85429 34.905 10.4901C34.4224 11.1258 34.1811 11.7616 34.1811 12.4768C34.2616 13.1126 34.5029 13.4304 35.1463 13.4304ZM39.4088 13.1921H40.7761C41.7412 13.1921 42.2238 13.5099 42.2238 14.2252C42.2238 14.702 42.0629 15.0199 41.6608 15.2583C41.3391 15.4967 40.8565 15.6556 40.2131 15.6556H38.685C38.0416 15.6556 37.6395 15.4172 37.3177 14.9404C36.8352 15.4172 36.2722 15.6556 35.7092 15.6556H34.2616C33.3768 15.6556 32.7335 15.3378 32.1705 14.7814C31.6075 14.2252 31.3662 13.4304 31.3662 12.4768C31.3662 11.0463 31.8488 9.69536 32.8943 8.58277C33.9398 7.39073 35.0658 6.83444 36.3526 6.83444C37.3177 6.83444 38.0416 7.15232 38.6046 7.78808L41.1782 1.5894C41.6608 0.556291 42.2238 0 43.028 0C43.3497 0 43.6714 0.0794702 43.9127 0.317881C44.154 0.556291 44.2344 0.794702 44.2344 1.11258C44.2344 1.35099 44.154 1.5894 44.0736 1.90729L43.9127 2.22517L39.4088 13.1921ZM44.8778 18.4371H43.3497C41.7412 18.4371 40.937 18.9139 40.937 20.0265C40.937 20.4238 41.0174 20.6622 41.2587 20.9006C41.4999 21.1391 41.8216 21.2186 42.1433 21.2186C42.6259 21.2186 43.1084 20.9802 43.5105 20.5828C43.9931 20.1854 44.3953 19.4702 44.8778 18.4371ZM48.9795 16.2914H50.3468C51.3119 16.2914 51.7945 16.6093 51.7945 17.245C51.7945 17.7219 51.6336 18.0397 51.3119 18.2781C50.9902 18.5165 50.5076 18.6755 49.8642 18.6755H48.0145C47.7732 19.3113 47.3711 20.1854 46.808 21.2186C45.7625 23.0463 44.3149 24 42.3846 24C41.1782 24 40.2131 23.6027 39.4088 22.9669C38.6046 22.2517 38.2025 21.3775 38.2025 20.3444C38.2025 19.6291 38.4437 18.9139 38.8459 18.2781C39.248 17.6424 39.8914 17.1655 40.5348 16.8477C41.3391 16.4504 42.5454 16.2914 44.154 16.2914H46.0038L46.3255 15.4967C45.7625 15.7351 45.1995 15.8146 44.7974 15.8146C43.9931 15.8146 43.2693 15.5762 42.7867 15.1788C42.3042 14.7814 41.9825 14.3046 41.9825 13.5894C41.9825 13.1921 42.1433 12.6358 42.465 11.8411L43.7518 8.82116L43.9127 8.50331C44.3149 7.62914 44.8778 7.23179 45.6016 7.23179C45.9233 7.23179 46.245 7.31126 46.4863 7.54967C46.7276 7.78808 46.808 8.02649 46.808 8.34437C46.808 8.58277 46.7276 8.90063 46.4863 9.3775L45.3604 12C45.1995 12.3973 45.1191 12.7153 45.1191 12.7947C45.1191 13.1921 45.3604 13.351 45.8429 13.351C46.1646 13.351 46.5667 13.2715 46.8884 13.0331C47.2906 12.7947 47.5319 12.6358 47.6123 12.3179L49.1404 8.66224L49.2208 8.34437C49.5425 7.4702 50.1859 7.07285 50.9902 7.07285C51.3119 7.07285 51.6336 7.15232 51.7945 7.39073C52.0357 7.62914 52.1162 7.86755 52.1162 8.18544C52.1162 8.42384 52.0357 8.66223 51.9553 8.90063L51.7945 9.21857L48.9795 16.2914ZM53.8856 12.2384C54.2073 12.7153 54.6898 12.8742 55.0919 12.8742C55.4136 12.8742 55.7353 12.7947 55.9766 12.5563C56.2983 12.3179 56.62 11.9205 56.8613 11.4437C57.1026 10.9669 57.2635 10.4901 57.2635 10.0927C57.2635 9.77482 57.1831 9.53643 57.0222 9.29803C56.8613 9.05964 56.62 8.98009 56.2983 8.98009C55.6549 8.98009 55.0919 9.45696 54.6898 10.4901L53.8856 12.2384ZM56.2179 6.99338C56.5396 6.91391 56.8613 6.83444 57.1026 6.83444C57.9873 6.83444 58.6307 7.15232 59.1937 7.78808C59.7566 8.42384 59.9979 9.29803 59.9979 10.3312C59.9979 12.3179 59.2741 13.9073 57.746 15.0994C57.183 15.4967 56.62 15.6556 56.057 15.6556H55.0115C54.2877 15.6556 53.6443 15.4172 53.1617 14.8609C52.84 15.4172 52.3574 15.6556 51.714 15.6556C51.3924 15.6556 51.1511 15.5762 50.9098 15.3378C50.6685 15.0994 50.5881 14.8609 50.5881 14.543C50.5881 14.3046 50.6685 14.0662 50.749 13.7483L50.9098 13.4304L55.5745 1.66887L55.7353 1.35099C56.057 0.476821 56.62 0.0794702 57.3439 0.0794702C57.6656 0.0794702 57.9873 0.15894 58.1481 0.397351C58.3894 0.635762 58.4698 0.87417 58.4698 1.19205C58.4698 1.43046 58.3894 1.66887 58.309 1.98676L58.1481 2.30463L56.2179 6.99338ZM64.341 13.4304H64.5822C65.2256 13.4304 65.6278 13.1921 65.7886 12.7153L66.5928 10.8874C66.6733 10.649 66.7537 10.4106 66.7537 10.2517C66.7537 10.0927 66.6733 9.93375 66.5124 9.77482C66.2711 9.61589 66.0299 9.53643 65.7886 9.53643C65.2256 9.53643 64.7431 9.85429 64.1801 10.4106C63.6976 11.0463 63.3758 11.6821 63.3758 12.3179C63.3758 13.1126 63.6976 13.4304 64.341 13.4304ZM68.5231 13.1921H69.8099C70.7751 13.1921 71.2576 13.5099 71.2576 14.2252C71.2576 14.702 71.0968 15.0199 70.7751 15.3378C70.4534 15.5762 69.9708 15.7351 69.3273 15.7351H67.7993C67.1559 15.7351 66.6733 15.4967 66.432 14.9404C65.869 15.4172 65.3061 15.7351 64.7431 15.7351H63.4562C62.5716 15.7351 61.9282 15.4172 61.3652 14.8609C60.8022 14.3046 60.561 13.5099 60.561 12.4768C60.561 11.0463 61.0435 9.69536 62.089 8.58277C63.1345 7.4702 64.2605 6.83444 65.5473 6.83444C66.5124 6.83444 67.2363 7.15232 67.7189 7.86755C68.121 7.31126 68.6035 6.99338 69.2469 6.99338C69.5686 6.99338 69.8903 7.07285 70.1316 7.31126C70.3729 7.54967 70.4534 7.78808 70.4534 8.10598C70.4534 8.34437 70.373 8.58277 70.2925 8.90063L70.1316 9.21857L68.5231 13.1921ZM74.0725 18.4371H72.5444C70.9359 18.4371 70.1316 18.9139 70.1316 20.0265C70.1316 20.4238 70.2121 20.6622 70.4534 20.9006C70.6946 21.1391 70.9359 21.2186 71.338 21.2186C71.8206 21.2186 72.3031 20.9802 72.7052 20.5828C73.1074 20.1854 73.59 19.4702 74.0725 18.4371ZM78.1743 16.2914H79.5415C80.5066 16.2914 80.9892 16.6093 80.9892 17.245C80.9892 17.7219 80.8283 18.0397 80.5066 18.2781C80.1849 18.5165 79.7024 18.6755 79.0589 18.6755H77.2092C76.9679 19.3113 76.5658 20.1854 76.0027 21.2186C74.9572 23.0463 73.5096 24 71.5793 24C70.373 24 69.4078 23.6027 68.6035 22.9669C67.7993 22.2517 67.3972 21.3775 67.3972 20.3444C67.3972 19.6291 67.6384 18.9139 68.0406 18.2781C68.4427 17.6424 69.0861 17.1655 69.7295 16.8477C70.5338 16.4504 71.7402 16.2914 73.3487 16.2914H75.1985L75.5202 15.4967C74.9572 15.7351 74.3942 15.8146 73.9921 15.8146C73.1878 15.8146 72.464 15.5762 71.9814 15.1788C71.4989 14.7814 71.1772 14.3046 71.1772 13.5894C71.1772 13.1921 71.338 12.6358 71.6597 11.8411L72.9465 8.82116L73.1074 8.50331C73.5096 7.62914 74.0725 7.23179 74.7964 7.23179C75.1181 7.23179 75.4397 7.31126 75.681 7.54967C75.9223 7.78808 76.0027 8.02649 76.0027 8.34437C76.0027 8.58277 75.9223 8.90063 75.681 9.3775L74.5551 12C74.3942 12.3973 74.3138 12.7153 74.3138 12.7947C74.3138 13.1921 74.5551 13.351 75.0376 13.351C75.3593 13.351 75.7614 13.2715 76.0831 13.0331C76.4853 12.7947 76.7266 12.6358 76.8071 12.3179L78.3351 8.66224L78.4959 8.34437C78.8176 7.4702 79.461 7.07285 80.185 7.07285C80.5066 7.07285 80.8283 7.15232 81.0696 7.39073C81.3109 7.62914 81.3913 7.86755 81.3913 8.18544C81.3913 8.42384 81.3109 8.66223 81.2305 8.90063L81.0696 9.21857L78.1743 16.2914Z" fill="white"/>
<path d="M8.44476 5.16556H11.1792C12.7073 5.16556 13.5116 4.76821 13.5116 3.97351C13.5116 3.65563 13.3507 3.41721 13.029 3.25828C12.7073 3.09934 12.3052 2.9404 11.7423 2.9404C10.9379 2.9404 10.2141 3.1788 9.49029 3.65563C8.84687 4.05298 8.44476 4.5298 8.44476 5.16556ZM9.73159 7.86755L10.7771 9.1391L11.4205 9.85429C12.5465 11.2847 13.1899 12.7153 13.1899 14.3046C13.1899 15.8146 12.6269 17.1655 11.5814 18.2781C10.2141 19.8676 8.36435 20.6622 6.03196 20.6622C4.26259 20.6622 2.81492 20.106 1.68895 19.0729C0.562983 18.0397 0 16.6888 0 15.0199C0 13.0331 0.884687 11.2847 2.65406 9.93375C3.61918 9.21857 4.42344 8.82116 5.2277 8.82116C5.62983 8.82116 5.95154 8.90063 6.19282 9.1391C6.4341 9.3775 6.59494 9.69536 6.59494 10.0132C6.59494 10.4901 6.27324 10.8874 5.71026 11.2847L4.82557 11.8411C4.26259 12.1589 3.86046 12.6358 3.53875 13.1921C3.21705 13.7483 2.97577 14.3046 3.05619 14.8609C3.05619 15.7351 3.3779 16.4504 3.94088 17.0861C4.58429 17.6424 5.30813 17.9603 6.27324 17.9603C7.31878 17.9603 8.20347 17.5629 9.00777 16.8477C9.812 16.1324 10.1337 15.1788 10.1337 14.2252C10.1337 13.5894 9.97281 12.9537 9.6511 12.3973C9.32948 11.8411 8.68606 11.0463 7.64049 9.93375C6.91665 9.1391 6.4341 8.5033 6.11239 7.86755H3.05619C2.01065 7.86755 1.44767 7.54967 1.44767 6.83444C1.44767 6.35762 1.60852 5.96027 2.01065 5.64238C2.33236 5.40397 2.89534 5.24504 3.53875 5.24504H5.46898C5.62983 3.81457 6.27324 2.54304 7.56006 1.5894C8.76647 0.635762 10.2141 0.15894 11.9835 0.15894C13.2703 0.15894 14.3158 0.476821 15.1202 1.19205C15.9244 1.90729 16.3265 2.78146 16.3265 3.89404C16.3265 5.3245 15.6831 6.43709 14.3963 7.23179C13.6724 7.62914 12.5465 7.86755 10.9379 7.86755H9.73159ZM19.5436 7.07285H19.8653C20.8303 7.07285 21.313 7.39073 21.313 8.10598C21.313 8.58277 21.1521 8.90063 20.8303 9.1391C20.5086 9.3775 20.0261 9.53643 19.3827 9.53643H18.5785L17.0503 13.2715H18.3372C19.3023 13.2715 19.7848 13.5894 19.7848 14.3046C19.7848 14.7814 19.624 15.0994 19.3023 15.3378C18.9806 15.5762 18.4981 15.7351 17.9351 15.7351H15.9244C15.3614 15.7351 14.8789 15.5762 14.5571 15.3378C14.2354 15.0994 14.0746 14.702 14.0746 14.2252C14.0746 13.9868 14.155 13.6688 14.3158 13.2715L14.5571 12.7947L15.844 9.53643H15.6831C14.8789 9.53643 14.3963 9.21857 14.3963 8.58277C14.3963 8.10598 14.5571 7.78808 14.8789 7.4702C15.2006 7.23179 15.6831 7.07285 16.2461 7.07285H16.7286L17.2916 5.56291L17.372 5.24504C17.6937 4.37086 18.2568 3.97351 19.061 3.97351C19.3827 3.97351 19.624 4.05298 19.8653 4.29139C20.1065 4.5298 20.187 4.76821 20.187 5.00663C20.187 5.3245 20.1065 5.64238 19.8653 6.11921L19.5436 7.07285ZM28.7122 13.1921H29.9989C30.4815 13.1921 30.8836 13.2715 31.125 13.4304C31.3662 13.5894 31.4467 13.8279 31.4467 14.2252C31.4467 14.702 31.2858 15.0199 30.9641 15.3378C30.6423 15.5762 30.1598 15.7351 29.5164 15.7351H27.5057C26.8623 15.7351 26.4602 15.4967 26.2189 15.0199C25.8168 15.4967 25.2538 15.7351 24.6909 15.7351H23.0823C22.4389 15.7351 21.876 15.4967 21.4738 15.0994C20.9912 14.702 20.8303 14.1457 20.8303 13.5099C20.8303 13.1126 20.9108 12.7153 21.1521 12.2384L22.6802 8.42384C23.0823 7.39073 23.7257 6.83444 24.4496 6.83444C24.7713 6.83444 25.093 6.91391 25.2538 7.15232C25.4951 7.39073 25.5755 7.62914 25.5755 7.86755C25.5755 8.10598 25.4951 8.34438 25.4147 8.66224L25.3343 8.98009L24.1278 11.9205L23.967 12.2384C23.8865 12.3973 23.8865 12.5563 23.8865 12.6358C23.8865 12.9537 24.1278 13.1921 24.53 13.1921C25.4951 13.1921 26.0581 12.7947 26.3798 12.0795L27.8275 8.58277C28.2296 7.54967 28.873 6.99338 29.5968 6.99338C29.9185 6.99338 30.1598 7.07285 30.4011 7.31126C30.6423 7.54967 30.7228 7.78808 30.7228 8.10598C30.7228 8.34437 30.6423 8.66224 30.4011 9.21857L28.7122 13.1921ZM35.1463 13.4304H35.5484C36.0309 13.4304 36.433 13.2715 36.5939 12.8742L37.3982 10.8874C37.4786 10.649 37.559 10.4901 37.559 10.3312C37.559 10.0927 37.4786 9.93375 37.2373 9.77482C37.0764 9.61589 36.8352 9.53643 36.5135 9.53643C35.9505 9.53643 35.3875 9.85429 34.905 10.4901C34.4224 11.1258 34.1811 11.7616 34.1811 12.4768C34.2616 13.1126 34.5029 13.4304 35.1463 13.4304ZM39.4088 13.1921H40.7761C41.7412 13.1921 42.2238 13.5099 42.2238 14.2252C42.2238 14.702 42.0629 15.0199 41.6608 15.2583C41.3391 15.4967 40.8565 15.6556 40.2131 15.6556H38.685C38.0416 15.6556 37.6395 15.4172 37.3177 14.9404C36.8352 15.4172 36.2722 15.6556 35.7092 15.6556H34.2616C33.3768 15.6556 32.7335 15.3378 32.1705 14.7814C31.6075 14.2252 31.3662 13.4304 31.3662 12.4768C31.3662 11.0463 31.8488 9.69536 32.8943 8.58277C33.9398 7.39073 35.0658 6.83444 36.3526 6.83444C37.3177 6.83444 38.0416 7.15232 38.6046 7.78808L41.1782 1.5894C41.6608 0.556291 42.2238 0 43.028 0C43.3497 0 43.6714 0.0794702 43.9127 0.317881C44.154 0.556291 44.2344 0.794702 44.2344 1.11258C44.2344 1.35099 44.154 1.5894 44.0736 1.90729L43.9127 2.22517L39.4088 13.1921ZM44.8778 18.4371H43.3497C41.7412 18.4371 40.937 18.9139 40.937 20.0265C40.937 20.4238 41.0174 20.6622 41.2587 20.9006C41.4999 21.1391 41.8216 21.2186 42.1433 21.2186C42.6259 21.2186 43.1084 20.9802 43.5105 20.5828C43.9931 20.1854 44.3953 19.4702 44.8778 18.4371ZM48.9795 16.2914H50.3468C51.3119 16.2914 51.7945 16.6093 51.7945 17.245C51.7945 17.7219 51.6336 18.0397 51.3119 18.2781C50.9902 18.5165 50.5076 18.6755 49.8642 18.6755H48.0145C47.7732 19.3113 47.3711 20.1854 46.808 21.2186C45.7625 23.0463 44.3149 24 42.3846 24C41.1782 24 40.2131 23.6027 39.4088 22.9669C38.6046 22.2517 38.2025 21.3775 38.2025 20.3444C38.2025 19.6291 38.4437 18.9139 38.8459 18.2781C39.248 17.6424 39.8914 17.1655 40.5348 16.8477C41.3391 16.4504 42.5454 16.2914 44.154 16.2914H46.0038L46.3255 15.4967C45.7625 15.7351 45.1995 15.8146 44.7974 15.8146C43.9931 15.8146 43.2693 15.5762 42.7867 15.1788C42.3042 14.7814 41.9825 14.3046 41.9825 13.5894C41.9825 13.1921 42.1433 12.6358 42.465 11.8411L43.7518 8.82116L43.9127 8.50331C44.3149 7.62914 44.8778 7.23179 45.6016 7.23179C45.9233 7.23179 46.245 7.31126 46.4863 7.54967C46.7276 7.78808 46.808 8.02649 46.808 8.34437C46.808 8.58277 46.7276 8.90063 46.4863 9.3775L45.3604 12C45.1995 12.3973 45.1191 12.7153 45.1191 12.7947C45.1191 13.1921 45.3604 13.351 45.8429 13.351C46.1646 13.351 46.5667 13.2715 46.8884 13.0331C47.2906 12.7947 47.5319 12.6358 47.6123 12.3179L49.1404 8.66224L49.2208 8.34437C49.5425 7.4702 50.1859 7.07285 50.9902 7.07285C51.3119 7.07285 51.6336 7.15232 51.7945 7.39073C52.0357 7.62914 52.1162 7.86755 52.1162 8.18544C52.1162 8.42384 52.0357 8.66223 51.9553 8.90063L51.7945 9.21857L48.9795 16.2914ZM53.8856 12.2384C54.2073 12.7153 54.6898 12.8742 55.0919 12.8742C55.4136 12.8742 55.7353 12.7947 55.9766 12.5563C56.2983 12.3179 56.62 11.9205 56.8613 11.4437C57.1026 10.9669 57.2635 10.4901 57.2635 10.0927C57.2635 9.77482 57.1831 9.53643 57.0222 9.29803C56.8613 9.05964 56.62 8.98009 56.2983 8.98009C55.6549 8.98009 55.0919 9.45696 54.6898 10.4901L53.8856 12.2384ZM56.2179 6.99338C56.5396 6.91391 56.8613 6.83444 57.1026 6.83444C57.9873 6.83444 58.6307 7.15232 59.1937 7.78808C59.7566 8.42384 59.9979 9.29803 59.9979 10.3312C59.9979 12.3179 59.2741 13.9073 57.746 15.0994C57.183 15.4967 56.62 15.6556 56.057 15.6556H55.0115C54.2877 15.6556 53.6443 15.4172 53.1617 14.8609C52.84 15.4172 52.3574 15.6556 51.714 15.6556C51.3924 15.6556 51.1511 15.5762 50.9098 15.3378C50.6685 15.0994 50.5881 14.8609 50.5881 14.543C50.5881 14.3046 50.6685 14.0662 50.749 13.7483L50.9098 13.4304L55.5745 1.66887L55.7353 1.35099C56.057 0.476821 56.62 0.0794702 57.3439 0.0794702C57.6656 0.0794702 57.9873 0.15894 58.1481 0.397351C58.3894 0.635762 58.4698 0.87417 58.4698 1.19205C58.4698 1.43046 58.3894 1.66887 58.309 1.98676L58.1481 2.30463L56.2179 6.99338ZM64.341 13.4304H64.5822C65.2256 13.4304 65.6278 13.1921 65.7886 12.7153L66.5928 10.8874C66.6733 10.649 66.7537 10.4106 66.7537 10.2517C66.7537 10.0927 66.6733 9.93375 66.5124 9.77482C66.2711 9.61589 66.0299 9.53643 65.7886 9.53643C65.2256 9.53643 64.7431 9.85429 64.1801 10.4106C63.6976 11.0463 63.3758 11.6821 63.3758 12.3179C63.3758 13.1126 63.6976 13.4304 64.341 13.4304ZM68.5231 13.1921H69.8099C70.7751 13.1921 71.2576 13.5099 71.2576 14.2252C71.2576 14.702 71.0968 15.0199 70.7751 15.3378C70.4534 15.5762 69.9708 15.7351 69.3273 15.7351H67.7993C67.1559 15.7351 66.6733 15.4967 66.432 14.9404C65.869 15.4172 65.3061 15.7351 64.7431 15.7351H63.4562C62.5716 15.7351 61.9282 15.4172 61.3652 14.8609C60.8022 14.3046 60.561 13.5099 60.561 12.4768C60.561 11.0463 61.0435 9.69536 62.089 8.58277C63.1345 7.4702 64.2605 6.83444 65.5473 6.83444C66.5124 6.83444 67.2363 7.15232 67.7189 7.86755C68.121 7.31126 68.6035 6.99338 69.2469 6.99338C69.5686 6.99338 69.8903 7.07285 70.1316 7.31126C70.3729 7.54967 70.4534 7.78808 70.4534 8.10598C70.4534 8.34437 70.373 8.58277 70.2925 8.90063L70.1316 9.21857L68.5231 13.1921ZM74.0725 18.4371H72.5444C70.9359 18.4371 70.1316 18.9139 70.1316 20.0265C70.1316 20.4238 70.2121 20.6622 70.4534 20.9006C70.6946 21.1391 70.9359 21.2186 71.338 21.2186C71.8206 21.2186 72.3031 20.9802 72.7052 20.5828C73.1074 20.1854 73.59 19.4702 74.0725 18.4371ZM78.1743 16.2914H79.5415C80.5066 16.2914 80.9892 16.6093 80.9892 17.245C80.9892 17.7219 80.8283 18.0397 80.5066 18.2781C80.1849 18.5165 79.7024 18.6755 79.0589 18.6755H77.2092C76.9679 19.3113 76.5658 20.1854 76.0027 21.2186C74.9572 23.0463 73.5096 24 71.5793 24C70.373 24 69.4078 23.6027 68.6035 22.9669C67.7993 22.2517 67.3972 21.3775 67.3972 20.3444C67.3972 19.6291 67.6384 18.9139 68.0406 18.2781C68.4427 17.6424 69.0861 17.1655 69.7295 16.8477C70.5338 16.4504 71.7402 16.2914 73.3487 16.2914H75.1985L75.5202 15.4967C74.9572 15.7351 74.3942 15.8146 73.9921 15.8146C73.1878 15.8146 72.464 15.5762 71.9814 15.1788C71.4989 14.7814 71.1772 14.3046 71.1772 13.5894C71.1772 13.1921 71.338 12.6358 71.6597 11.8411L72.9465 8.82116L73.1074 8.50331C73.5096 7.62914 74.0725 7.23179 74.7964 7.23179C75.1181 7.23179 75.4397 7.31126 75.681 7.54967C75.9223 7.78808 76.0027 8.02649 76.0027 8.34437C76.0027 8.58277 75.9223 8.90063 75.681 9.3775L74.5551 12C74.3942 12.3973 74.3138 12.7153 74.3138 12.7947C74.3138 13.1921 74.5551 13.351 75.0376 13.351C75.3593 13.351 75.7614 13.2715 76.0831 13.0331C76.4853 12.7947 76.7266 12.6358 76.8071 12.3179L78.3351 8.66224L78.4959 8.34437C78.8176 7.4702 79.461 7.07285 80.185 7.07285C80.5066 7.07285 80.8283 7.15232 81.0696 7.39073C81.3109 7.62914 81.3913 7.86755 81.3913 8.18544C81.3913 8.42384 81.3109 8.66223 81.2305 8.90063L81.0696 9.21857L78.1743 16.2914Z" fill="url(#paint0_linear)"/>
<defs>
<linearGradient id="paint0_linear" x1="40.6957" y1="0" x2="40.6957" y2="24" gradientUnits="userSpaceOnUse">
<stop stop-color="white"/>
<stop offset="1" stop-color="white" stop-opacity="0"/>
</linearGradient>
</defs>
</svg>
