<svg width="322" height="225" viewBox="0 0 322 225" fill="none" xmlns="http://www.w3.org/2000/svg">
<path d="M81.2413 152.817C82.6572 152.817 84.072 152.9 85.4784 153.064C93.0518 142.598 101.745 133.718 110.879 128.079C134.664 113.43 167.331 117.614 197.818 128.901C218.772 136.655 245.332 161.621 262.363 179.327C284.563 180.995 301.629 196.107 300.605 213.395C300.379 217.108 299.34 220.727 297.56 223.994L223.05 224.489C222.92 224.289 222.796 224.083 222.672 223.88L112.163 223.499C112.042 223.667 111.919 223.816 111.795 223.994L50.6114 223.889C44.9472 216.382 41.5442 206.763 41.5442 196.259C41.5537 172.264 59.3265 152.817 81.2413 152.817Z" fill="#00C471"/>
<path d="M108.711 129.488C136.829 146.915 162.112 147.299 178.455 144.496C193.621 141.895 204.543 136.044 208.117 133.77C208.724 134.112 209.332 134.463 209.941 134.823C207.026 136.83 195.609 143.42 179.118 146.31C173.748 147.253 168.306 147.727 162.854 147.727C157.282 147.724 151.72 147.233 146.233 146.259C132.913 143.893 119.71 138.647 107.024 130.671C107.595 130.265 108.157 129.871 108.711 129.488Z" fill="white"/>
<path d="M111.624 159.487C107.152 153.207 101.621 149.677 95.1796 148.992C92.846 148.742 90.4869 148.889 88.2024 149.427C88.7965 148.659 89.397 147.904 90.0038 147.159C91.7522 146.933 93.5209 146.91 95.2747 147.09C100.118 147.584 107.152 149.944 113.162 158.383C113.308 158.589 113.366 158.844 113.323 159.093C113.281 159.341 113.142 159.563 112.937 159.709C112.776 159.824 112.583 159.886 112.385 159.886C112.235 159.884 112.089 159.847 111.956 159.777C111.824 159.708 111.71 159.608 111.624 159.487Z" fill="white"/>
<path d="M111.284 181.776H111.265C111.016 181.776 110.776 181.678 110.598 181.503C110.42 181.328 110.318 181.09 110.314 180.84C110.26 178.043 109.131 171.716 105.24 165.751C100.724 158.821 94.0793 154.549 85.5005 153.036C85.916 152.465 86.3346 151.895 86.7691 151.33C95.332 153.074 102.262 157.673 106.844 164.71C110.698 170.625 112.15 177.079 112.236 180.806C112.238 180.932 112.216 181.058 112.169 181.176C112.122 181.293 112.053 181.4 111.964 181.491C111.875 181.581 111.77 181.653 111.653 181.702C111.536 181.751 111.411 181.776 111.284 181.776Z" fill="white"/>
<path d="M245.654 172.398C249.254 172.248 252.86 172.525 256.395 173.223C257.353 174.182 258.291 175.134 259.208 176.077C255.691 174.145 235.648 171.738 227.37 181.151C227.28 181.251 227.17 181.332 227.047 181.386C226.924 181.441 226.791 181.469 226.657 181.468C226.423 181.47 226.197 181.385 226.022 181.23C225.833 181.064 225.718 180.829 225.702 180.577C225.686 180.326 225.77 180.078 225.937 179.889C231.268 173.822 240.579 172.595 245.654 172.398Z" fill="white"/>
<path d="M229.347 186.019C240.555 177.564 254.494 177.06 260.405 177.285L262.372 179.318C258.984 179.042 242.756 178.284 230.495 187.538C230.294 187.691 230.04 187.757 229.79 187.722C229.54 187.687 229.314 187.554 229.162 187.353C229.009 187.151 228.943 186.898 228.978 186.648C229.013 186.398 229.146 186.171 229.347 186.019Z" fill="white"/>
<path d="M277.7 223.68C277.7 223.68 267.308 192.917 238.035 198.502C208.762 204.087 168.72 216.085 168.72 216.085V223.794L277.7 223.68Z" fill="white" stroke="black" stroke-width="1.5" stroke-linecap="round" stroke-linejoin="round"/>
<path d="M46.5823 110.066C47.296 109.67 47.9071 109.113 48.367 108.439C48.8268 107.765 49.1225 106.993 49.2305 106.184C49.5476 103.463 47.7209 91.7412 44.7905 90.1047C41.86 88.4682 28.4384 81.1898 25.9615 81.3578C23.4846 81.5259 22.4412 103.051 46.5823 110.066Z" fill="white"/>
<path d="M45.1584 91.4148C40.1475 73.8734 36.0437 69.9567 33.681 71.6629C31.5402 73.2106 35.901 84.3868 37.1696 90.1874" fill="white"/>
<path d="M45.1584 91.4148C40.1475 73.8734 36.0437 69.9567 33.681 71.6629C31.5402 73.2106 35.901 84.3868 37.1696 90.1874" stroke="black" stroke-width="1.5" stroke-linecap="round" stroke-linejoin="round"/>
<path d="M23.0435 87.593C20.5317 83.5145 16.3834 83.7175 18.5495 90.6693C20.6617 97.4467 22.2285 106.286 26.1928 110.278C30.1571 114.271 31.5843 116.06 31.5843 116.06C31.5843 116.06 39.5129 145.65 44.0132 170.251C50.5274 205.828 62.8104 212.672 74.2942 208.597C85.7781 204.521 87.8998 188.439 72.2169 157.178C56.5341 125.917 48.2661 107.703 48.2661 107.703" fill="white"/>
<path d="M23.0435 87.593C20.5317 83.5145 16.3834 83.7175 18.5495 90.6693C20.6617 97.4467 22.2285 106.286 26.1928 110.278C30.1571 114.271 31.5843 116.06 31.5843 116.06C31.5843 116.06 39.5129 145.65 44.0132 170.251C50.5274 205.828 62.8104 212.672 74.2942 208.597C85.7781 204.521 87.8998 188.439 72.2169 157.178C56.5341 125.917 48.2661 107.703 48.2661 107.703" stroke="black" stroke-width="1.5" stroke-linecap="round" stroke-linejoin="round"/>
<path d="M47.9996 108.265C50.2735 106.727 50.0008 97.7799 52.5538 93.8822C55.7253 89.0235 58.827 83.9872 52.9566 84.742C47.9235 85.3922 46.3219 89.8164 45.1548 91.4021" fill="white"/>
<path d="M47.9996 108.265C50.2735 106.727 50.0008 97.7799 52.5538 93.8822C55.7253 89.0235 58.827 83.9872 52.9566 84.742C47.9235 85.3922 46.3219 89.8164 45.1548 91.4021" stroke="black" stroke-width="1.5" stroke-linecap="round" stroke-linejoin="round"/>
<path d="M25.9773 95.0333C25.9773 95.0333 21.5182 84.1711 20.0213 79.1475C18.3816 73.6482 24.1442 72.8744 26.9224 80.7491" fill="white"/>
<path d="M25.9773 95.0333C25.9773 95.0333 21.5182 84.1711 20.0213 79.1475C18.3816 73.6482 24.1442 72.8744 26.9224 80.7491" stroke="black" stroke-width="1.5" stroke-linecap="round" stroke-linejoin="round"/>
<path d="M31.2137 92.1823C31.2137 92.1823 22.4351 72.2909 26.3614 70.5213C29.9419 68.907 32.6726 76.1633 37.1792 90.1843" fill="white"/>
<path d="M31.2137 92.1823C31.2137 92.1823 22.4351 72.2909 26.3614 70.5213C29.9419 68.907 32.6726 76.1633 37.1792 90.1843" stroke="black" stroke-width="1.5" stroke-linecap="round" stroke-linejoin="round"/>
<path d="M174.795 106.625L173.564 129.053C173.564 129.053 175.648 141.156 158.836 138.913C142.091 136.678 144.146 126.764 144.146 126.764L149.328 98.9023L174.795 106.625Z" fill="white" stroke="black" stroke-width="1.5" stroke-linecap="round" stroke-linejoin="round"/>
<path d="M142.892 70.6477C142.892 70.6477 129.889 65.77 129.382 79.3121C128.874 92.8543 142.892 89.3466 142.892 89.3466" fill="white"/>
<path d="M142.892 70.6477C142.892 70.6477 129.889 65.77 129.382 79.3121C128.874 92.8543 142.892 89.3466 142.892 89.3466" stroke="black" stroke-width="1.5" stroke-linecap="round" stroke-linejoin="round"/>
<path d="M176.445 49.3516H154.124C150.843 49.3516 147.697 50.6547 145.378 52.9743C143.058 55.2938 141.755 58.4399 141.755 61.7202V87.9292C141.755 94.6952 144.443 101.184 149.227 105.968C154.012 110.753 160.5 113.44 167.266 113.44C170.617 113.44 173.934 112.78 177.029 111.498C180.124 110.216 182.937 108.337 185.306 105.968C187.674 103.599 189.554 100.787 190.836 97.6919C192.118 94.5967 192.778 91.2793 192.778 87.9292V65.6814C192.778 61.3505 191.057 57.1969 187.995 54.1345C184.932 51.072 180.779 49.3516 176.448 49.3516H176.445Z" fill="white" stroke="black" stroke-width="1.5" stroke-linecap="round" stroke-linejoin="round"/>
<path d="M135.818 100.022C135.81 94.4688 136.33 88.9276 137.372 83.4731C137.372 83.3685 137.372 83.2575 137.372 83.156C137.376 82.1984 137.758 81.2812 138.435 80.6041C139.112 79.927 140.03 79.5447 140.987 79.5405V83.156L140.892 86.7715C140.159 86.7491 139.449 86.5035 138.859 86.0674C137.689 93.3617 135.371 115.112 145.129 133.601C146.921 136.991 148.602 140.125 150.226 143.154C159.423 160.318 165.512 171.656 165.369 181.782C165.369 182.034 165.269 182.276 165.091 182.455C164.912 182.633 164.67 182.733 164.418 182.733C164.166 182.733 163.924 182.633 163.745 182.455C163.567 182.276 163.466 182.034 163.466 181.782C163.603 172.15 157.612 160.984 148.561 144.08C146.934 141.051 145.253 137.914 143.461 134.518C137.055 122.387 135.77 109.067 135.818 100.022Z" fill="#C6CDDD"/>
<path d="M195.256 87.1519C194.81 87.4031 194.316 87.5556 193.806 87.5991V80.4062C194.613 80.4798 195.371 80.822 195.96 81.3781C196.549 81.9342 196.934 82.672 197.054 83.4731C197.159 83.6297 197.215 83.814 197.216 84.0027C197.216 85.4489 197.216 119.618 187.067 135.035C176.69 150.828 173.48 159.823 172.767 175.138C172.755 175.382 172.65 175.613 172.473 175.782C172.296 175.951 172.06 176.045 171.815 176.045H171.771C171.519 176.033 171.282 175.922 171.112 175.736C170.942 175.55 170.853 175.304 170.864 175.052C171.597 159.334 174.873 150.124 185.472 133.994C193.556 121.708 194.999 96.0764 195.256 87.1519Z" fill="#C6CDDD"/>
<path d="M175.069 72.627L174.733 93.1939C174.733 93.1939 173.217 95.3822 170.778 90.9231" stroke="black" stroke-width="1.5" stroke-linecap="round" stroke-linejoin="round"/>
<path d="M175.069 97.5671C173.217 99.7332 168.866 99.378 164.553 96.5586C164.553 96.5586 162.872 102.067 171.241 102.902" stroke="black" stroke-width="1.5" stroke-linecap="round" stroke-linejoin="round"/>
<path d="M166.972 66.0016C166.718 65.9381 164.007 62.0277 159.843 65.3673" stroke="black" stroke-width="1.5" stroke-linecap="round" stroke-linejoin="round"/>
<path d="M159.844 81.1233C158.973 81.1233 158.267 80.0314 158.267 78.6845C158.267 77.3375 158.973 76.2456 159.844 76.2456C160.714 76.2456 161.42 77.3375 161.42 78.6845C161.42 80.0314 160.714 81.1233 159.844 81.1233Z" fill="black"/>
<path d="M182.899 81.7507C182.029 81.7507 181.323 80.6588 181.323 79.3119C181.323 77.965 182.029 76.873 182.899 76.873C183.77 76.873 184.476 77.965 184.476 79.3119C184.476 80.6588 183.77 81.7507 182.899 81.7507Z" fill="black"/>
<path d="M187.938 65.8209C187.684 65.7669 184.249 61.0637 180.789 65.5037" stroke="black" stroke-width="1.5" stroke-linecap="round" stroke-linejoin="round"/>
<path d="M160.912 43.8078C167.086 43.8871 171.774 44.1979 174.584 44.7117C197.282 49.8748 193.613 66.6962 193.613 66.6962C193.613 66.6962 182.512 68.8116 173.477 55.4344C173.477 55.4344 161.067 65.5609 142.714 69.6394C142.419 69.5696 142.08 69.4776 141.762 69.3761V70.3054C140.25 69.9036 138.685 69.7399 137.123 69.8201C137.325 63.1886 138.512 54.8318 143.976 49.4372C147.842 45.6061 153.551 43.7095 160.912 43.8078Z" fill="black"/>
<path d="M136.163 68.2023C136.886 59.836 138.884 43.0432 159.844 42.8307C164.55 42.7832 169.254 43.0439 173.925 43.6109" stroke="white" stroke-width="1.5" stroke-linecap="round" stroke-linejoin="round"/>
<path d="M101.327 29.9992C109.151 7.61185 131.37 -4.98201 150.945 1.86517C167.033 7.49133 176.316 24.503 174.781 42.8119C171.835 42.2917 167.189 41.9841 160.938 41.9048C153.05 41.8033 146.895 43.8806 142.635 48.0828C136.61 54.042 135.385 63.0997 135.208 70.1339C132.293 70.9236 129.61 73.3054 129.385 79.3121C129.363 79.9211 129.896 84.5768 129.766 84.5609C129.786 86.3987 129.287 88.2049 128.326 89.7716C126.144 93.2919 121.694 95.4802 115.094 96.2477H114.983C114.731 96.2625 114.483 96.1763 114.294 96.0083C114.106 95.8403 113.991 95.6041 113.976 95.3518C113.962 95.0995 114.048 94.8516 114.216 94.6628C114.384 94.4739 114.62 94.3596 114.872 94.3449C120.851 93.6408 124.828 91.7696 126.692 88.7789C127.352 87.7104 127.742 86.4983 127.831 85.2459C126.201 87.1488 123.391 89.2008 118.913 89.2008C117.732 89.1943 116.556 89.0657 115.402 88.817C115.276 88.7958 115.155 88.7494 115.047 88.6805C114.939 88.6115 114.846 88.5215 114.774 88.4158C114.702 88.3101 114.651 88.1909 114.626 88.0653C114.601 87.9398 114.602 87.8104 114.628 87.685C114.654 87.5596 114.705 87.4408 114.778 87.3356C114.851 87.2305 114.945 87.1412 115.053 87.073C115.161 87.0049 115.283 86.9593 115.409 86.9391C115.535 86.9189 115.665 86.9244 115.789 86.9554C121.558 88.1542 124.78 85.9564 126.439 83.9964C125.139 83.7115 123.857 83.3482 122.601 82.9086C103.027 76.0773 93.5031 52.3833 101.327 29.9992Z" fill="black"/>
<path d="M158.45 90.9197C152.039 90.9197 146.843 85.7228 146.843 79.3121C146.843 72.9015 152.039 67.7046 158.45 67.7046C164.861 67.7046 170.058 72.9015 170.058 79.3121C170.058 85.7228 164.861 90.9197 158.45 90.9197Z" stroke="black" stroke-width="1.5" stroke-linecap="round" stroke-linejoin="round"/>
<path d="M177.884 78.998H170.311" stroke="black" stroke-width="1.5" stroke-linecap="round" stroke-linejoin="round"/>
<path d="M148.301 73.6767L141.752 69.9756" stroke="black" stroke-width="1.5" stroke-linecap="round" stroke-linejoin="round"/>
<path d="M189.87 90.9197C183.46 90.9197 178.263 85.7228 178.263 79.3121C178.263 72.9015 183.46 67.7046 189.87 67.7046C196.281 67.7046 201.478 72.9015 201.478 79.3121C201.478 85.7228 196.281 90.9197 189.87 90.9197Z" stroke="black" stroke-width="1.5" stroke-linecap="round" stroke-linejoin="round"/>
<path d="M110.048 211.815H116.642L119.883 163.841C120.015 162.195 120.755 160.658 121.96 159.53C123.164 158.401 124.747 157.763 126.397 157.739H218.303C219.089 157.728 219.868 157.881 220.591 158.189C221.314 158.498 221.964 158.954 222.5 159.529C223.036 160.103 223.446 160.784 223.703 161.527C223.96 162.269 224.058 163.058 223.992 163.841L220.405 216.953C220.274 218.599 219.534 220.136 218.329 221.265C217.124 222.393 215.542 223.032 213.891 223.055L110.048 222.922C109.597 222.922 109.15 222.833 108.733 222.66C108.315 222.487 107.936 222.234 107.617 221.915C107.298 221.596 107.045 221.217 106.872 220.8C106.699 220.382 106.61 219.935 106.61 219.484V215.253C106.61 214.802 106.699 214.355 106.872 213.938C107.045 213.521 107.298 213.142 107.617 212.822C107.936 212.503 108.315 212.25 108.733 212.077C109.15 211.904 109.597 211.815 110.048 211.815Z" fill="#C6CDDD"/>
<path d="M165.85 189.463C167.168 188.097 168.876 187.172 170.74 186.815C170.438 186.381 170.254 185.876 170.207 185.35C170.134 184.525 170.375 183.702 170.881 183.046C171.387 182.391 172.121 181.949 172.938 181.811C172.973 181.811 173.011 181.811 173.046 181.811C173.401 180.501 174.07 178.357 174.838 177.44C174.978 177.269 175.173 177.151 175.389 177.104C175.605 177.057 175.831 177.083 176.03 177.18C176.117 177.229 176.191 177.298 176.246 177.38C176.302 177.463 176.337 177.558 176.349 177.656C176.361 177.755 176.35 177.855 176.316 177.949C176.282 178.043 176.226 178.127 176.154 178.195C175.65 178.798 175.034 180.675 174.651 182.106C175.091 182.339 175.464 182.681 175.736 183.099C176.008 183.517 176.169 183.997 176.205 184.494C176.242 184.959 176.181 185.427 176.026 185.867C175.87 186.308 175.625 186.71 175.304 187.05C175.867 187.229 176.407 187.475 176.912 187.782C180.217 189.834 180.622 193.919 177.819 196.904C175.015 199.888 170.062 200.646 166.757 198.594C163.452 196.542 163.043 192.448 165.85 189.463Z" fill="white"/>
<path d="M167.243 177.285C167.243 177.285 172 176.333 172.634 180.294C172.622 180.301 168.882 181.642 167.243 177.285Z" fill="white"/>
<path d="M321 223.905L1 223.905" stroke="black" stroke-width="1.5" stroke-linecap="round" stroke-linejoin="round"/>
</svg>
