<svg width="302" height="221" viewBox="0 0 302 221" fill="none" xmlns="http://www.w3.org/2000/svg">
<path d="M274.731 190.822L281.094 140.072C283.601 120.092 269.358 103.893 249.261 103.893H215.656" stroke="black" stroke-width="1.5" stroke-linecap="round" stroke-linejoin="round"/>
<path d="M194.592 103.003L190.419 97.1269L191.517 89.2376C191.811 88.6795 192.114 88.0979 192.424 87.498C215.211 90.8885 217.983 100.437 212.866 110.663C250.664 118.043 267.121 176.062 257.289 203.59C254.488 211.414 252.24 219.238 243.917 219.326" stroke="black" stroke-width="1.5" stroke-linecap="round" stroke-linejoin="round"/>
<path d="M182.708 124.093C182.708 124.044 182.708 123.994 182.708 123.945C181.471 124.065 180.272 124.073 179.114 123.071C176.245 120.586 175.228 119.84 175.228 119.84C175.228 119.84 174.967 120.153 174.505 120.682C173.939 119.639 173.35 118.557 172.748 117.461C185.133 107.869 194.592 103.002 194.592 103.002L195.291 102.501L199.84 108.049C199.84 108.049 192.438 113.15 182.708 124.093Z" fill="#00C471"/>
<path d="M122.838 214.14C122.838 214.14 142.66 160.834 140.138 144.315C138.763 135.304 140.92 125.086 143.898 117.191L149.576 117.559L156.373 133.63C155.929 133.739 155.486 133.831 155.042 133.891C155.042 133.891 155.303 135.578 155.945 139.456C156.375 142.041 155.637 142.325 155.053 144.119C154.299 145.327 153.72 146.683 154.357 148.78C154.565 149.466 155.061 155.926 156.182 164.689C154.096 169.123 152.103 173.801 150.236 178.772C138.218 210.83 139.467 214.328 139.467 214.328L122.838 214.14Z" fill="#00C471"/>
<path d="M55.7144 218.906C57.141 209.517 67.3149 159.122 125.521 114.918C126.825 107.021 130.124 94.5915 147.079 88.7808" stroke="black" stroke-width="1.5" stroke-linecap="round" stroke-linejoin="round"/>
<path d="M135.418 141.511C135.418 141.511 136.044 158.536 132.317 170.776" stroke="black" stroke-width="1.5" stroke-linecap="round" stroke-linejoin="round"/>
<path d="M126.291 114.723C126.106 115.834 125.962 116.856 125.824 117.753C124.223 128.138 127.65 135.034 129.916 139.815C123.831 135.511 119.729 127.327 117.658 121.086C120.159 119.083 123.573 116.746 126.291 114.723Z" fill="black"/>
<path d="M212.266 110.2C216.522 111.069 223.517 113.189 228.558 116.676C225.037 118.595 207.6 129.038 193.35 135.303C193.237 135.237 192.455 133.933 192.064 133.425C199.951 127.171 208.247 118.256 212.266 110.2Z" fill="black"/>
<path d="M200.79 68.6621C200.79 68.6621 210.468 71.2858 206.551 79.5507C203.828 85.2883 198.659 83.2489 195.576 81.5093" stroke="black" stroke-width="1.5" stroke-linecap="round" stroke-linejoin="round"/>
<path d="M168.366 31.7904C162.84 32.0917 156.778 34.367 153.836 41.8281C150.049 51.4416 147.904 62.1727 146.856 70.5578C146.827 70.7862 146.901 71.0155 147.056 71.1849C147.212 71.3542 147.435 71.4462 147.665 71.4365L148.169 71.4658L148.521 69.8712C149.597 61.7053 151.699 51.5224 155.292 42.4021C157.937 35.6937 163.311 33.6332 168.452 33.3529C173.629 33.0706 178.46 34.6151 179.694 35.032C186.306 37.2817 190.686 40.5884 193.561 44.2502C196.438 47.9163 197.84 51.9808 198.424 55.7901C199.01 59.6029 198.775 63.1459 198.391 65.7412C198.199 67.037 197.97 68.0917 197.791 68.8194C197.753 68.972 197.718 69.1101 197.685 69.233L197.956 70.9741C198.34 71.1032 198.76 70.9166 198.922 70.5444L198.948 70.4844C198.958 70.4614 198.967 70.4379 198.975 70.414L198.231 70.1723C198.975 70.414 198.975 70.4135 198.975 70.413L198.976 70.4113L198.977 70.4062L198.983 70.3886C198.987 70.3737 198.994 70.3524 199.003 70.3249C199.019 70.2699 199.043 70.19 199.073 70.0866C199.133 69.8797 199.215 69.5786 199.31 69.1941C199.5 68.4254 199.738 67.3218 199.939 65.9704C200.338 63.271 200.587 59.5636 199.971 55.5526C199.355 51.5381 197.87 47.2055 194.791 43.284C191.71 39.3583 187.065 35.8868 180.198 33.5503L180.196 33.5497C178.92 33.1186 173.854 31.4912 168.366 31.7904Z" fill="black"/>
<path d="M146.737 70.8965C146.691 71.1504 146.627 71.5205 146.554 71.9898C146.409 72.9283 146.225 74.2648 146.074 75.8637C145.773 79.0559 145.598 83.3189 146.118 87.5556C146.171 87.9845 146.561 88.2895 146.99 88.2368C147.419 88.1841 147.724 87.7937 147.671 87.3648C147.17 83.2819 147.336 79.1418 147.632 76.0108C147.78 74.4481 147.959 73.143 148.101 72.2303C148.15 71.9128 148.195 71.643 148.232 71.4264L146.737 70.8965Z" fill="black"/>
<path d="M199.592 71.5231C199.344 72.025 198.991 72.742 198.559 73.6149C197.684 75.381 196.489 77.7849 195.206 80.3362C192.633 85.4529 189.726 91.121 188.33 93.4564C186.922 95.8117 185.852 97.3987 184.202 98.791C182.543 100.19 180.249 101.432 176.336 102.978C174.017 103.895 171.032 104.423 167.866 104.423C167.434 104.423 167.084 104.773 167.084 105.205C167.084 105.637 167.434 105.988 167.866 105.988C171.189 105.988 174.375 105.436 176.911 104.433C180.875 102.868 183.356 101.551 185.211 99.9871C187.073 98.416 188.254 96.6347 189.673 94.2591C191.105 91.8635 194.041 86.1357 196.604 81.0393C197.889 78.4842 199.086 76.0772 199.961 74.3091C200.399 73.425 200.756 72.7006 201.004 72.1971L199.592 71.5231Z" fill="black"/>
<path d="M200.009 73.4272C200.009 73.4272 204.995 67.6452 208.597 60.7365C211.987 54.2425 210.582 46.1967 204.961 41.5022C200.256 37.5615 195.778 38.6047 195.778 38.6047C195.778 38.6047 203.879 30.3529 197.492 19.6782C196.374 17.8104 194.886 16.1906 193.12 14.9179C191.354 13.6452 189.347 12.7464 187.221 12.2766C176.737 9.97891 171.312 17.9751 171.312 17.9751C171.312 17.9751 165.288 -5.28593 139.413 1.11419C136.805 1.76098 133.355 4.52029 131.537 6.50239C120.526 18.5228 141.27 41.2128 153.891 45.756C167.747 50.7425 176.659 50.4687 182.104 48.1371C178.19 49.329 178.046 71.4112 200.009 73.4272Z" fill="black"/>
<path d="M160.022 66.2378L155.135 79.2415L160.158 79.2154" stroke="black" stroke-width="1.5" stroke-linecap="round" stroke-linejoin="round"/>
<path d="M162.706 90.5085C161.342 90.5085 160.236 89.4027 160.236 88.0387C160.236 86.6746 161.342 85.5688 162.706 85.5688C164.07 85.5688 165.176 86.6746 165.176 88.0387C165.176 89.4027 164.07 90.5085 162.706 90.5085Z" fill="black"/>
<path d="M154.236 67.3121C153.479 67.1227 153.103 66.0188 153.396 64.8464C153.689 63.674 154.541 62.8771 155.298 63.0665C156.055 63.2559 156.432 64.3598 156.139 65.5322C155.845 66.7046 154.994 67.5014 154.236 67.3121Z" fill="black"/>
<path d="M167.501 70.3829C166.744 70.1935 166.368 69.0896 166.661 67.9172C166.954 66.7448 167.806 65.9479 168.563 66.1373C169.321 66.3267 169.697 67.4306 169.404 68.603C169.11 69.7754 168.259 70.5722 167.501 70.3829Z" fill="black"/>
<path d="M176.688 59.9757C176.219 58.9153 175.473 58.0003 174.529 57.3264C173.584 56.6526 172.477 56.2444 171.321 56.1445" stroke="black" stroke-width="1.5" stroke-linecap="round" stroke-linejoin="round"/>
<path d="M158.78 52.7712C158.78 52.7712 155.222 50.8334 153.493 53.7049" stroke="black" stroke-width="1.5" stroke-linecap="round" stroke-linejoin="round"/>
<path d="M4.46603 146.813H105.866C106.512 146.813 107.139 147.031 107.646 147.432C108.152 147.833 108.509 148.393 108.657 149.022L122.756 208.699H159.511C159.511 208.699 161.548 219.22 149.671 219.22H20.2108C19.5648 219.219 18.9379 219.001 18.4315 218.6C17.925 218.199 17.5687 217.639 17.4202 217.011L1.67023 150.342C1.5706 149.92 1.56772 149.481 1.66182 149.058C1.75592 148.636 1.94453 148.24 2.21355 147.9C2.48256 147.561 2.82495 147.286 3.21506 147.098C3.60516 146.91 4.03287 146.812 4.46603 146.813Z" fill="black"/>
<path d="M293.646 204.999C294.536 205.065 295.431 204.954 296.279 204.674C297.126 204.394 297.911 203.95 298.587 203.366C299.263 202.783 299.817 202.072 300.219 201.275C300.62 200.477 300.86 199.608 300.926 198.718C300.992 197.827 300.881 196.933 300.601 196.085C300.321 195.237 299.876 194.453 299.293 193.777C298.71 193.101 297.999 192.546 297.201 192.145C296.404 191.743 295.535 191.503 294.645 191.437C294.234 191.406 293.821 191.413 293.411 191.458" stroke="black" stroke-width="1.5" stroke-linecap="round" stroke-linejoin="round"/>
<path d="M294.53 189.014V211.393C294.53 213.468 293.705 215.458 292.238 216.926C290.771 218.393 288.781 219.217 286.706 219.217H273.506C271.431 219.217 269.441 218.393 267.974 216.926C266.507 215.458 265.682 213.468 265.682 211.393V189.014H294.53ZM282.859 205.4C282.778 205.446 282.712 205.513 282.666 205.594C282.62 205.675 282.597 205.766 282.598 205.859C282.598 205.997 282.653 206.13 282.751 206.228C282.849 206.326 282.981 206.381 283.12 206.381C283.211 206.382 283.301 206.36 283.38 206.315L288.597 203.186C288.686 203.144 288.762 203.077 288.815 202.993C288.868 202.91 288.896 202.813 288.896 202.714C288.896 202.615 288.868 202.518 288.815 202.434C288.762 202.351 288.686 202.284 288.597 202.242L283.38 199.112C283.301 199.068 283.211 199.045 283.12 199.047C282.981 199.047 282.849 199.102 282.751 199.2C282.653 199.297 282.598 199.43 282.598 199.568C282.597 199.661 282.62 199.753 282.666 199.833C282.712 199.914 282.778 199.981 282.859 200.027L287.347 202.719L282.859 205.4ZM271.858 203.183L277.074 206.313C277.154 206.357 277.244 206.379 277.335 206.378C277.404 206.379 277.473 206.366 277.536 206.34C277.6 206.313 277.658 206.274 277.705 206.224C277.755 206.176 277.794 206.119 277.821 206.055C277.847 205.991 277.86 205.923 277.859 205.854C277.861 205.761 277.837 205.67 277.791 205.589C277.745 205.508 277.679 205.441 277.598 205.395L273.11 202.706L277.598 200.014C277.679 199.968 277.745 199.901 277.791 199.82C277.837 199.74 277.861 199.648 277.859 199.555C277.859 199.417 277.804 199.284 277.706 199.187C277.609 199.089 277.476 199.034 277.338 199.034C277.246 199.032 277.157 199.055 277.077 199.099L271.861 202.229C271.771 202.271 271.695 202.337 271.642 202.421C271.589 202.505 271.561 202.602 271.561 202.701C271.561 202.8 271.589 202.897 271.642 202.98C271.695 203.064 271.771 203.131 271.861 203.173L271.858 203.183Z" fill="black"/>
<path d="M167.675 107.767C167.568 104.395 167.621 99.0877 168.818 96.7692C170.719 93.0893 168.945 89.1616 165.057 93.1805C162.84 95.4704 161.753 98.5088 161.226 100.697" stroke="black" stroke-width="1.5" stroke-linecap="round" stroke-linejoin="round"/>
<path d="M134.841 102.356C131.085 102.356 128.041 99.312 128.041 95.557C128.041 91.8019 131.085 88.7578 134.841 88.7578C138.596 88.7578 141.64 91.8019 141.64 95.557C141.64 99.312 138.596 102.356 134.841 102.356Z" stroke="black" stroke-width="1.5" stroke-linecap="round" stroke-linejoin="round"/>
<path d="M178.878 219.999C159.004 218.515 155.051 151.087 154.362 148.784C152.982 144.235 157.314 143.169 156.746 139.567C156.177 135.965 156.618 134.351 156.618 134.351C165.947 132.833 175.007 121.102 175.007 121.102C175.007 121.102 175.946 121.788 178.619 124.073C181.293 126.357 184.276 122.847 187.328 126.347C189.341 128.681 211.28 165.512 211.28 165.512" stroke="black" stroke-width="1.5" stroke-linecap="round" stroke-linejoin="round"/>
<path d="M155.94 139.46C155.293 135.581 155.037 133.894 155.037 133.894C164.971 132.366 175.216 119.839 175.216 119.839C175.216 119.839 176.227 120.585 179.102 123.071C180.259 124.072 181.449 124.064 182.695 123.944C183.574 134.823 164.061 144.506 154.818 144.963C155.408 142.349 156.427 142.404 155.94 139.46Z" fill="black"/>
<path d="M224.196 159.335C224.196 159.335 212.434 149.185 205.606 155.58" stroke="black" stroke-width="1.5" stroke-linecap="round" stroke-linejoin="round"/>
<path d="M179.088 129.292L159.382 140.749L149.518 117.428C140.002 117.444 140.043 112.275 142.036 112.097C144.029 111.92 153.597 113.263 153.597 113.263C153.597 113.263 153.287 112.567 145.513 111.09C137.738 109.614 139.198 105.282 140.87 105.165C142.542 105.048 154.896 108.143 154.896 108.143L144.282 104.354C140.502 103.154 140.369 99.4925 142.344 98.9761C143.648 98.6345 150.601 100.737 156.104 102.661C156.104 102.661 149.49 99.2708 146.352 97.2209C143.215 95.171 145.408 92.4978 147.242 92.6647C149.075 92.8316 161.813 101.349 164.238 103.459C166.664 105.569 179.088 129.292 179.088 129.292Z" stroke="black" stroke-width="1.5" stroke-linecap="round" stroke-linejoin="round"/>
<path d="M301 219.864L1.59742 219.864" stroke="black" stroke-width="1.5" stroke-linecap="round" stroke-linejoin="round"/>
<path d="M134.937 108.761L136.382 86.4282L165.167 88.293L164.189 103.404C161.63 101.216 149.062 92.8231 147.25 92.6588C145.437 92.4945 143.223 95.1678 146.36 97.2151C149.498 99.2624 156.112 102.655 156.112 102.655C150.609 100.731 143.648 98.6286 142.352 98.9703C140.375 99.4919 140.511 103.143 144.29 104.348L154.904 108.138C154.904 108.138 142.55 105.042 140.878 105.159C139.207 105.277 137.749 109.608 145.521 111.085C153.293 112.561 153.606 113.257 153.606 113.257C153.606 113.257 144.034 111.911 142.044 112.091C140.054 112.271 140.01 117.438 149.527 117.422L149.581 117.55L142.248 117.075C141.221 117.01 140.218 116.743 139.295 116.29C138.372 115.836 137.548 115.205 136.869 114.433C136.19 113.661 135.67 112.763 135.339 111.789C135.007 110.816 134.871 109.787 134.937 108.761Z" fill="black"/>
<ellipse cx="61.3286" cy="183.07" rx="14.1428" ry="15.7142" transform="rotate(12.9905 61.3286 183.07)" fill="white"/>
<ellipse cx="61.3286" cy="183.07" rx="14.1428" ry="15.7142" transform="rotate(12.9905 61.3286 183.07)" fill="url(#paint0_linear)"/>
<path d="M62.2255 179.152L64.0365 179.57C65.0485 179.804 65.6498 179.629 65.7866 179.036C65.8414 178.799 65.7762 178.596 65.5904 178.428C65.4045 178.26 65.1655 178.08 64.7929 177.994C64.2602 177.871 63.7399 177.939 63.1785 178.184C62.6836 178.383 62.3355 178.677 62.2259 179.153L62.2255 179.152ZM62.6123 181.367L63.0856 182.476L63.3885 183.108C63.888 184.349 64.0677 185.516 63.7939 186.702C63.5337 187.83 62.9279 188.753 62.0438 189.424C60.8647 190.402 59.5026 190.713 57.9583 190.357C56.7858 190.086 55.9232 189.45 55.3556 188.506C54.788 187.563 54.6478 186.468 54.9353 185.221C55.2776 183.738 56.165 182.568 57.5691 181.828C58.3317 181.442 58.9328 181.268 59.4652 181.391C59.7315 181.452 59.9312 181.561 60.0497 181.776C60.1684 181.991 60.2203 182.253 60.1655 182.49C60.0833 182.846 59.8017 183.093 59.3603 183.304L58.679 183.585C58.2512 183.736 57.9027 184.031 57.594 184.397C57.285 184.763 57.0293 185.142 56.9866 185.569C56.836 186.223 56.926 186.806 57.1894 187.367C57.5193 187.88 57.9438 188.228 58.5832 188.376C59.2756 188.535 59.9303 188.374 60.5858 187.963C61.2418 187.552 61.619 186.888 61.7832 186.176C61.8951 185.699 61.8936 185.203 61.7787 184.737C61.6616 184.273 61.3725 183.581 60.8717 182.59C60.529 181.886 60.3191 181.338 60.2158 180.814L58.1915 180.347C57.499 180.187 57.1812 179.864 57.3044 179.329C57.3865 178.974 57.5612 178.701 57.8824 178.525C58.1367 178.397 58.5371 178.364 58.9632 178.462L60.2415 178.757C60.5941 177.713 61.2393 176.862 62.2562 176.346C63.2188 175.818 64.2597 175.684 65.4314 175.954C66.2836 176.151 66.9213 176.548 67.3309 177.204C67.74 177.861 67.8557 178.576 67.6641 179.407C67.4176 180.475 66.7998 181.208 65.8107 181.604C65.2629 181.791 64.4764 181.797 63.4113 181.551L62.6123 181.367Z" fill="#00C471"/>
<defs>
<linearGradient id="paint0_linear" x1="61.3286" y1="167.356" x2="61.3286" y2="198.784" gradientUnits="userSpaceOnUse">
<stop stop-color="white"/>
<stop offset="1" stop-color="white" stop-opacity="0"/>
</linearGradient>
</defs>
</svg>
