<svg width="398" height="241" viewBox="0 0 398 241" fill="none" xmlns="http://www.w3.org/2000/svg">
<path d="M18.9204 240.001V136.69C18.9273 125.966 23.1922 115.683 30.7776 108.103C38.363 100.522 48.648 96.2642 59.3719 96.2643H91.0519" stroke="black" stroke-width="1.5" stroke-linecap="round" stroke-linejoin="round"/>
<path d="M136.682 149.892C136.682 149.892 140.134 160.231 140.64 165.237" stroke="black" stroke-width="1.5" stroke-linecap="round" stroke-linejoin="round"/>
<path d="M179.184 146.15C178.874 152.658 178.982 159.179 179.507 165.674" stroke="black" stroke-width="1.5" stroke-linecap="round" stroke-linejoin="round"/>
<path d="M211.678 113.314C212.882 114.556 213.347 131.744 224.224 131.54" stroke="black" stroke-width="1.5" stroke-linecap="round" stroke-linejoin="round"/>
<path d="M94.1218 118.605C89.358 120.708 82.4886 124.794 76.9629 133.257C84.7513 130.058 111.551 154.022 130.548 148.587C121.716 147.65 102.789 133.781 94.1218 118.605Z" fill="black"/>
<path d="M109.604 80.3704C86.5533 91.3433 86.2363 106.766 94.0712 120.176C89.9589 120.825 80.0067 126.429 58.9448 156.169C28.623 198.982 30.0771 238.93 89.0573 239.948" stroke="black" stroke-width="1.5" stroke-linecap="round" stroke-linejoin="round"/>
<path d="M201.756 175.616V175.447C271.244 182.052 269.228 151.783 261.958 121.353L243.705 61.0003C241.015 55.1313 238.61 57.6441 237.598 55.809C235.257 51.5221 234.326 49.6405 234.326 49.6405C225.787 56.8734 208.733 53.7121 208.733 53.7121C208.733 53.7121 208.588 55.2738 208.468 60.0492C208.349 64.8247 203.03 64.1209 203.655 70.4668L211.653 113.312L189.431 108.574C188.009 100.794 184.385 88.9897 175.672 81.527" stroke="black" stroke-width="1.5" stroke-linecap="round" stroke-linejoin="round"/>
<path d="M205.005 239.793L204.644 214.915" stroke="black" stroke-width="1.5" stroke-linecap="round" stroke-linejoin="round"/>
<path d="M199.817 110.787C196.31 109.333 191.63 108.789 188.568 108.298C189.145 111.214 189.399 114.185 189.324 117.156C188.664 132.477 182.67 138.457 181.242 144.099C199.666 137.308 201.102 119.341 199.817 110.787Z" fill="black"/>
<path d="M172.201 200.342C171.815 203.582 171.07 204.943 163.491 208.84C161.557 209.834 157.483 211.992 152.024 214.729C153.155 228.715 153.769 239.002 153.769 239.002L176.485 239.319C176.485 239.319 175.857 215.939 175.366 192.187C174.106 194.735 172.434 198.37 172.201 200.342Z" fill="#00C471"/>
<path d="M174.86 146.286C175.151 133.754 170.352 121.461 165.714 113.236C164.963 124.677 162.514 137.939 159.926 142.264C147.711 133.792 138.55 128.935 131.227 125.067C126.6 117.607 122.694 110.956 121.007 106.131C121.031 105.401 121.054 104.659 121.077 103.915L120.28 103.993C122.316 110.703 126.708 120.242 135.799 133.056C137.656 135.223 139.358 137.518 140.891 139.925C143.061 143.325 145.05 152.943 146.781 164.937C156.893 163.532 164.728 163.256 166.15 165.411L174.936 167.092C174.61 150.34 174.706 153.126 174.86 146.286Z" fill="#00C471"/>
<path d="M186.558 188.687L173.043 191.452" stroke="black" stroke-width="1.5" stroke-linecap="round" stroke-linejoin="round"/>
<path d="M202.589 208.093C203.724 212.455 206.231 220.848 208.115 220.732C210.791 220.566 209.36 203.812 208.988 198.67C208.804 196.032 206.952 187.546 205.439 183.256C203.465 177.643 194.464 160.551 176.159 166.786L162.935 170.023" stroke="black" stroke-width="1.5" stroke-linecap="round" stroke-linejoin="round"/>
<path d="M187.29 185.277C187 188.252 185.255 194.508 187.532 198.617" stroke="black" stroke-width="1.5" stroke-linecap="round" stroke-linejoin="round"/>
<path d="M205.009 198.344C205.009 198.344 203.581 210.495 199.521 211.431C195.461 212.368 195.202 208.942 195.202 208.942" stroke="black" stroke-width="1.5" stroke-linecap="round" stroke-linejoin="round"/>
<path d="M200.132 197.929C200.132 197.929 197.939 208.64 193.818 209.271C189.697 209.902 189.697 206.488 189.697 206.488" stroke="black" stroke-width="1.5" stroke-linecap="round" stroke-linejoin="round"/>
<path d="M194.125 197.269C194.125 197.269 191.278 210.109 186.706 205.241C182.134 200.372 182.617 197.891 182.617 197.891C182.617 197.891 184.816 194.364 188.34 199.997" stroke="black" stroke-width="1.5" stroke-linecap="round" stroke-linejoin="round"/>
<path d="M172.388 198.297C162.107 189.956 158.62 168.95 162.965 164.352C163.14 162.897 166.479 165.355 168.491 165.579C173.348 166.12 175.442 166.268 175.442 166.268C173.473 172.323 175.666 179.646 177.92 184.855C178.887 187.157 180.006 189.391 181.27 191.544C180.883 191.739 179.322 192.51 175.608 194.138C173.467 195.089 173.014 196.695 172.388 198.297Z" fill="black"/>
<path d="M91.0549 166.755C95.5948 165.252 107.818 163.169 111.547 171.778" stroke="black" stroke-width="1.5" stroke-linecap="round" stroke-linejoin="round"/>
<path d="M91.0513 176.602C91.0513 176.602 161.592 158.484 166.152 165.399L176.863 189.349C176.863 189.349 172.588 197.1 172.21 200.343C171.832 203.585 171.079 204.943 163.5 208.841C155.921 212.738 116.324 235.483 87.9424 239.948" stroke="black" stroke-width="1.5" stroke-linecap="round" stroke-linejoin="round"/>
<path d="M121.537 89.9226C121.383 94.4595 121.179 100.602 121.008 106.125C122.694 110.95 126.6 117.601 131.227 125.061C138.55 128.929 147.703 133.785 159.926 142.257C162.544 137.933 164.964 124.671 165.714 113.23" stroke="black" stroke-width="1.5" stroke-linecap="round" stroke-linejoin="round"/>
<path d="M117.813 68.6341C115.623 68.8289 107.428 70.1377 109.164 78.8131C110.542 85.7145 116.851 85.1008 120.628 84.048" stroke="black" stroke-width="1.5" stroke-linecap="round" stroke-linejoin="round"/>
<path d="M175.53 52.3839C177.083 64.2294 176.365 76.9444 175.149 86.4109" stroke="black" stroke-width="1.5" stroke-linecap="round" stroke-linejoin="round"/>
<path d="M175.149 86.3982C174.64 90.3826 174.041 93.7882 173.486 96.3038" stroke="black" stroke-width="1.5" stroke-linecap="round" stroke-linejoin="round"/>
<path d="M124.261 70.7074L117.804 71.2193C117.804 71.2193 122.481 93.1536 124.252 99.0371C126.023 104.921 127.28 107.544 134.937 113.043C142.595 118.543 158.902 121.102 166.614 111.956C174.327 102.809 175.147 85.1471 175.147 85.1471" stroke="black" stroke-width="1.5" stroke-linecap="round" stroke-linejoin="round"/>
<path d="M157.042 99.0723C157.042 99.0723 161.797 98.1271 163.731 100.017L157.042 99.0723Z" fill="white"/>
<path d="M157.042 99.0723C157.042 99.0723 161.797 98.1271 163.731 100.017L157.042 99.0723Z" fill="url(#paint0_linear)"/>
<path d="M157.042 99.0723C157.042 99.0723 161.797 98.1271 163.731 100.017" stroke="black" stroke-width="1.5" stroke-linecap="round" stroke-linejoin="round"/>
<path d="M163.1 77.0011L164.869 92.3888L159.442 91.0016" stroke="black" stroke-width="1.5" stroke-linecap="round" stroke-linejoin="round"/>
<path d="M168.777 81.163C169.648 81.163 170.354 80.0706 170.354 78.723C170.354 77.3754 169.648 76.2829 168.777 76.2829C167.907 76.2829 167.201 77.3754 167.201 78.723C167.201 80.0706 167.907 81.163 168.777 81.163Z" fill="black"/>
<path d="M153.596 80.8953C154.467 80.8953 155.173 79.8029 155.173 78.4553C155.173 77.1076 154.467 76.0152 153.596 76.0152C152.726 76.0152 152.02 77.1076 152.02 78.4553C152.02 79.8029 152.726 80.8953 153.596 80.8953Z" fill="black"/>
<path d="M146.766 65.7272C147.562 64.7078 148.616 63.9204 149.82 63.4472C151.024 62.9741 152.332 62.8324 153.609 63.0371" stroke="black" stroke-width="1.5" stroke-linecap="round" stroke-linejoin="round"/>
<path d="M168.095 62.768C168.095 62.768 172.457 61.6338 173.559 65.2081" stroke="black" stroke-width="1.5" stroke-linecap="round" stroke-linejoin="round"/>
<path d="M185.537 49.8879C185.153 48.7653 185.59 47.3984 186.392 46.0228L186.183 45.7872L185.197 48.5501C185.197 48.5501 182.111 49.8792 181.093 45.9326C180.779 44.7257 181.492 43.2541 182.626 41.7971L182.594 41.7592C178.304 42.7539 169.923 44.3767 169.167 42.6899C168.099 40.3022 183.222 33.965 187.829 31.9292C190.191 30.8968 198.363 28.6545 202.766 28.0147C205.687 27.6432 208.641 27.611 211.569 27.9187C211.91 25.2125 211.382 22.4681 210.063 20.0808C208.635 17.4459 205.651 13.5284 203.002 12.1237C176.743 -1.80407 163.932 21.7211 163.932 21.7211C163.932 21.7211 160.235 11.6322 148.27 11.2716C145.843 11.2063 143.429 11.6368 141.174 12.5369C138.919 13.4371 136.872 14.7878 135.157 16.5065C125.359 26.3278 131.891 37.4462 131.891 37.4462C131.891 37.4462 127.328 35.1196 121.174 38.089C113.822 41.6458 110.122 49.9723 112.033 57.9148C114.069 66.3489 117.809 74.3786 117.809 74.3786C141.704 78.078 147.811 54.6168 144.292 51.5893C149.591 55.5096 159.124 58.1358 175.271 56.513C178.967 56.1291 183.501 54.675 188.117 52.4705C187.224 52.3483 186.186 51.7667 185.537 49.8879Z" fill="black"/>
<path d="M207.958 47.6373L211.759 62.9379L233.353 56.5512" stroke="black" stroke-width="1.5" stroke-linecap="round" stroke-linejoin="round"/>
<path d="M182.61 41.7705C178.32 42.7651 169.939 44.3879 169.182 42.7011C168.115 40.3134 183.238 33.9762 187.845 31.9404C190.206 30.908 198.379 28.6657 202.782 28.0259C208.526 27.197 229.407 26.6677 232.301 45.3069L235.393 56.8325L214.854 62.9225" stroke="black" stroke-width="1.5" stroke-linecap="round" stroke-linejoin="round"/>
<path d="M213.767 44.6927C211.333 46.298 202.198 50.6198 197.612 50.5092" stroke="black" stroke-width="1.5" stroke-linecap="round" stroke-linejoin="round"/>
<path d="M189.943 35.2771C189.943 35.2771 180.09 42.0098 181.111 45.9505C182.132 49.8912 185.214 48.568 185.214 48.568" stroke="black" stroke-width="1.5" stroke-linecap="round" stroke-linejoin="round"/>
<path d="M192.504 39.2981C192.504 39.2981 184.242 46.0395 185.553 49.8872C186.865 53.7349 189.84 52.1818 189.84 52.1818" stroke="black" stroke-width="1.5" stroke-linecap="round" stroke-linejoin="round"/>
<path d="M195.796 44.2053C195.796 44.2053 185.989 52.4735 192.262 54.2214C198.535 55.9693 200.464 54.4337 200.464 54.4337C200.464 54.4337 202.517 50.9438 196.055 50.4377" stroke="black" stroke-width="1.5" stroke-linecap="round" stroke-linejoin="round"/>
<path d="M205.874 64.6124C210 70.0829 237.961 65.9618 242.562 58.8947C240.357 55.87 238.601 57.5946 237.618 55.809C235.276 51.5221 234.346 49.6405 234.346 49.6405C229.489 53.7557 221.872 54.506 216.207 54.3897C213.708 54.3676 211.215 54.1801 208.741 53.8284C208.706 54.2617 208.587 55.998 208.485 60.0522C208.436 62.3992 207.121 63.4258 205.874 64.6124Z" fill="black"/>
<path d="M358.461 158.769H245.384C244.663 158.769 243.963 159.012 243.398 159.459C242.833 159.906 242.435 160.531 242.269 161.232L226.55 227.78H185.56C185.56 227.78 183.289 239.512 196.536 239.512H340.898C341.619 239.512 342.318 239.269 342.884 238.822C343.449 238.375 343.847 237.75 344.013 237.049L361.573 162.704C361.684 162.234 361.687 161.746 361.583 161.275C361.478 160.804 361.268 160.362 360.969 159.984C360.67 159.605 360.289 159.299 359.854 159.089C359.42 158.879 358.944 158.769 358.461 158.769Z" fill="black"/>
<path d="M352.921 187.033C351.233 187.034 349.562 186.683 348.016 186.005C346.469 185.327 345.08 184.336 343.936 183.094C342.792 181.852 341.918 180.386 341.369 178.789C340.82 177.192 340.608 175.498 340.747 173.815C341.183 168.545 341.242 165.3 341.785 162.854C342.53 159.492 349.056 154.865 356.618 149.269C360.594 146.349 363.36 143.63 364.915 141.112C366.47 138.593 367.246 135.469 367.242 131.741C367.242 127.14 365.781 123.519 362.859 120.879C359.937 118.238 356.399 116.916 352.244 116.912C343.99 116.912 338.448 121.283 335.617 130.025C334.685 132.839 332.792 135.234 330.27 136.79C327.748 138.346 324.758 138.964 321.826 138.535C319.947 138.264 318.155 137.572 316.583 136.508C315.011 135.445 313.7 134.039 312.75 132.397C311.8 130.754 311.235 128.917 311.097 127.024C310.959 125.131 311.253 123.232 311.955 121.469C314.656 114.636 318.528 109.046 323.571 104.697C331.929 97.4881 342.139 93.8828 354.201 93.8809C366.509 93.8809 376.827 97.4241 385.157 104.511C393.486 111.597 397.655 120.58 397.662 131.459C397.662 144.948 390.732 156.23 376.871 165.306C370.839 169.284 367.187 172.392 365.916 174.63C365.424 175.545 365.062 176.523 364.839 177.538C364.211 180.227 362.694 182.626 360.533 184.347C358.373 186.067 355.695 187.009 352.933 187.019L352.921 187.033ZM354.573 223.492H353.456C349.722 223.492 346.141 222.009 343.5 219.368C340.859 216.728 339.375 213.147 339.374 209.413C339.374 207.564 339.739 205.732 340.446 204.024C341.154 202.315 342.191 200.763 343.499 199.455C344.807 198.148 346.359 197.11 348.067 196.403C349.776 195.695 351.607 195.331 353.456 195.331H354.573C356.422 195.331 358.253 195.695 359.962 196.403C361.67 197.111 363.222 198.148 364.53 199.456C365.837 200.763 366.874 202.316 367.581 204.024C368.289 205.733 368.653 207.564 368.652 209.413C368.652 213.147 367.169 216.728 364.529 219.368C361.888 222.008 358.307 223.492 354.573 223.492Z" fill="#00C471"/>
<path d="M61.9094 67.9492C61.5341 68.1115 61.1292 68.1943 60.7203 68.1924C60.3114 68.1905 59.9073 68.1038 59.5335 67.938C59.1597 67.7721 58.8243 67.5306 58.5485 67.2287C58.2727 66.9268 58.0624 66.5711 57.9309 66.1839C57.6138 65.354 57.3391 64.5085 57.1078 63.6508C56.9508 62.8335 57.9512 61.1787 59.0971 59.2069C59.6077 58.4068 59.9665 57.5195 60.1557 56.5894C60.2447 55.7999 60.1118 55.0012 59.7718 54.2831C59.5997 53.8246 59.3297 53.4091 58.9806 53.0656C58.6315 52.722 58.2118 52.4587 57.7506 52.2939C56.853 51.9876 55.8719 52.0386 55.011 52.4364C53.1768 53.2313 52.3664 54.7359 52.5796 56.9501C52.6429 57.6641 52.4529 58.3777 52.0429 58.9658C51.633 59.5538 51.0292 59.9789 50.3373 60.1666C49.894 60.2873 49.429 60.3059 48.9774 60.221C48.5258 60.136 48.0994 59.9498 47.7302 59.6763C47.3609 59.4028 47.0585 59.0492 46.8457 58.6419C46.6328 58.2347 46.5151 57.7845 46.5013 57.3252C46.4218 55.6564 46.7534 53.9936 47.4669 52.4829C48.6302 50.0787 50.5506 48.2959 53.2282 47.1346C55.962 45.948 58.595 45.7415 61.1271 46.5151C62.3258 46.8524 63.4319 47.4582 64.3616 48.2867C65.2913 49.1151 66.0202 50.1443 66.4929 51.2963C67.7939 54.2919 67.3412 57.4648 65.1347 60.8152C64.1769 62.279 63.6641 63.3202 63.5962 63.9387C63.5766 64.1906 63.5913 64.444 63.6399 64.6919C63.7595 65.3496 63.6537 66.0283 63.3397 66.6184C63.0257 67.2084 62.5217 67.6753 61.9094 67.9434V67.9492ZM65.7833 75.8859L65.5361 75.9935C65.1255 76.1718 64.6839 76.2673 64.2364 76.2748C63.7889 76.2822 63.3444 76.2014 62.9281 76.0369C62.5119 75.8724 62.1322 75.6275 61.8107 75.3161C61.4892 75.0048 61.2322 74.6331 61.0544 74.2224C60.6939 73.3944 60.6771 72.4571 61.0076 71.6166C61.3381 70.7762 61.9889 70.1014 62.8168 69.7407L63.064 69.6331C63.4746 69.4549 63.9162 69.3593 64.3637 69.3519C64.8112 69.3444 65.2557 69.4253 65.672 69.5898C66.0882 69.7543 66.4679 69.9992 66.7894 70.3105C67.1109 70.6219 67.3679 70.9935 67.5457 71.4043C67.9062 72.2323 67.9231 73.1696 67.5925 74.0101C67.262 74.8505 66.6112 75.5253 65.7833 75.8859Z" fill="#00C471"/>
<path d="M77.3882 30.7105C76.8307 30.6808 76.2855 30.5356 75.787 30.2843C75.2885 30.0329 74.8476 29.6808 74.4922 29.2503C74.1368 28.8197 73.8747 28.3201 73.7224 27.783C73.5701 27.2459 73.5309 26.683 73.6074 26.13C73.8488 24.3995 73.9273 23.3322 74.1513 22.5353C74.4421 21.4418 76.6873 20.0342 79.2902 18.3299C80.6474 17.44 81.6091 16.5937 82.1752 15.791C82.7657 14.8832 83.091 13.8287 83.1146 12.746C83.198 11.2279 82.7821 10.0074 81.8669 9.08448C80.9579 8.16249 79.7293 7.62521 78.4352 7.58381C75.7208 7.43257 73.8149 8.77233 72.7175 11.6031C72.3585 12.5133 71.6904 13.2681 70.8305 13.7351C69.9706 14.202 68.9737 14.3512 68.0148 14.1565C67.3991 14.0336 66.8194 13.7723 66.3195 13.3924C65.8196 13.0125 65.4127 12.5239 65.1295 11.9636C64.8462 11.4033 64.6941 10.7859 64.6846 10.1581C64.675 9.53035 64.8084 8.90862 65.0745 8.33996C66.0017 6.25883 67.4258 4.43725 69.2217 3.03524C72.1067 0.817179 75.5366 -0.185212 79.5112 0.0280625C83.5673 0.25297 86.9041 1.61017 89.5216 4.09967C92.139 6.58917 93.3479 9.6264 93.1482 13.2114C92.902 17.6572 90.4105 21.2479 85.6739 23.9837C83.6148 25.1877 82.3546 26.1455 81.8931 26.8571C81.7153 27.1523 81.5784 27.4702 81.486 27.8023C81.2295 28.6772 80.6855 29.4401 79.942 29.9678C79.1985 30.4955 78.2987 30.7572 77.3882 30.7105ZM77.2689 42.7509H76.8996C75.669 42.6818 74.5161 42.1273 73.6938 41.2091C72.8716 40.2909 72.4472 39.084 72.5139 37.8533C72.5451 37.242 72.6967 36.6428 72.9599 36.0901C73.2231 35.5374 73.5928 35.0421 74.0478 34.6325C74.5027 34.223 75.034 33.9072 75.6112 33.7033C76.1884 33.4994 76.8002 33.4114 77.4114 33.4443L77.7808 33.4647C78.3925 33.4988 78.9914 33.6534 79.5432 33.9196C80.095 34.1857 80.5888 34.5582 80.9962 35.0157C81.4037 35.4732 81.7169 36.0066 81.9177 36.5854C82.1185 37.1642 82.2031 37.7769 82.1665 38.3884C82.0915 39.6149 81.5345 40.7619 80.617 41.5792C79.6994 42.3965 78.4959 42.8177 77.2689 42.7509Z" fill="#00C471"/>
<path d="M0.999512 239.885L394.224 239.885" stroke="black" stroke-width="1.5" stroke-linecap="round" stroke-linejoin="round"/>
<defs>
<linearGradient id="paint0_linear" x1="160.386" y1="98.836" x2="160.386" y2="100.017" gradientUnits="userSpaceOnUse">
<stop stop-color="white"/>
<stop offset="1" stop-color="white" stop-opacity="0"/>
</linearGradient>
</defs>
</svg>
