<svg width="238" height="220" viewBox="0 0 238 220" fill="none" xmlns="http://www.w3.org/2000/svg">
<path d="M113.224 101.179C91.3929 96.1262 76.0349 88.4385 81.4646 64.932C86.8943 41.4254 78.9421 13.9109 111.688 3.31097C144.491 -7.28745 157.048 7.208 179.487 51.8604C189.086 70.9724 221.119 73.1142 228.854 80.8034C236.534 88.4925 252.88 132.482 199.837 136.822C146.795 141.161 113.224 101.179 113.224 101.179Z" fill="black"/>
<path d="M129.795 40.874C130.572 39.7086 137.558 37.2757 138.667 43.4406C139.424 54.8066 128.02 50.9807 126.912 50.5367" fill="white"/>
<path d="M129.795 40.874C130.572 39.7086 137.558 37.2757 138.667 43.4406C139.424 54.8066 128.02 50.9807 126.912 50.5367" fill="url(#paint0_linear)"/>
<path d="M129.795 40.874C130.572 39.7086 137.558 37.2757 138.667 43.4406C139.424 54.8066 128.02 50.9807 126.912 50.5367" stroke="black" stroke-width="1.5" stroke-linecap="round" stroke-linejoin="round"/>
<path d="M173.767 186.178C173.525 183.098 172.215 183.754 172.215 183.754" stroke="black" stroke-width="1.5" stroke-linecap="round" stroke-linejoin="round"/>
<path d="M44.6821 163.659C44.6821 151.585 62.3019 123.596 82.1247 102.192C101.947 80.7888 127.276 70.3611 154.807 90.6667C182.337 110.972 201.61 136.219 201.06 162.561C200.51 188.903 191.699 201.527 150.402 202.624C128.928 202.624 127.001 199.826 127.001 199.826L56.2458 182.318L44.6821 163.659Z" fill="#00C471"/>
<path d="M91.8481 128.152C91.2902 130.365 85.7048 150.841 77.8848 161.354" stroke="white" stroke-width="1.5" stroke-linecap="round" stroke-linejoin="round"/>
<path d="M91.8481 128.152C91.2902 130.365 85.7048 150.841 77.8848 161.354" stroke="url(#paint1_linear)" stroke-width="1.5" stroke-linecap="round" stroke-linejoin="round"/>
<path d="M67.3345 155.768C71.8105 157.591 75.6849 160.582 78.5316 164.414C81.3782 168.247 83.087 172.771 83.4699 177.489" stroke="white" stroke-width="1.5" stroke-linecap="round" stroke-linejoin="round"/>
<path d="M67.3345 155.768C71.8105 157.591 75.6849 160.582 78.5316 164.414C81.3782 168.247 83.087 172.771 83.4699 177.489" stroke="url(#paint2_linear)" stroke-width="1.5" stroke-linecap="round" stroke-linejoin="round"/>
<path d="M125.041 62.6794C124.877 63.0126 127.672 78.3873 128.604 83.0501C128.807 83.9655 128.828 84.9123 128.669 85.8363C128.509 86.7602 128.17 87.6431 127.672 88.4341C127.131 89.4533 126.276 90.2653 125.237 90.7464C124.199 91.2276 123.033 91.3513 121.918 91.0988C120.859 90.7504 119.922 90.0982 119.222 89.2213C118.521 88.3444 118.087 87.2805 117.972 86.1587L115.121 67.1195" fill="white"/>
<path d="M125.041 62.6794C124.877 63.0126 127.672 78.3873 128.604 83.0501C128.807 83.9655 128.828 84.9123 128.669 85.8363C128.509 86.7602 128.17 87.6431 127.672 88.4341C127.131 89.4533 126.276 90.2653 125.237 90.7464C124.199 91.2276 123.033 91.3513 121.918 91.0988C120.859 90.7504 119.922 90.0982 119.222 89.2213C118.521 88.3444 118.087 87.2805 117.972 86.1587L115.121 67.1195" fill="url(#paint3_linear)"/>
<path d="M125.041 62.6794C124.877 63.0126 127.672 78.3873 128.604 83.0501C128.807 83.9655 128.828 84.9123 128.669 85.8363C128.509 86.7602 128.17 87.6431 127.672 88.4341C127.131 89.4533 126.276 90.2653 125.237 90.7464C124.199 91.2276 123.033 91.3513 121.918 91.0988C120.859 90.7504 119.922 90.0982 119.222 89.2213C118.521 88.3444 118.087 87.2805 117.972 86.1587L115.121 67.1195" stroke="black" stroke-width="1.5" stroke-linecap="round" stroke-linejoin="round"/>
<path d="M89.9854 32.9928C89.9854 32.9928 92.1963 80.2342 119.108 71.943C137.508 65.637 131.652 30.6211 125.906 18.6175" fill="white"/>
<path d="M89.9854 32.9928C89.9854 32.9928 92.1963 80.2342 119.108 71.943C137.508 65.637 131.652 30.6211 125.906 18.6175" fill="url(#paint4_linear)"/>
<path d="M89.9854 32.9928C89.9854 32.9928 92.1963 80.2342 119.108 71.943C137.508 65.637 131.652 30.6211 125.906 18.6175" stroke="black" stroke-width="1.5" stroke-miterlimit="10"/>
<path d="M118.328 46.9165C119.357 46.5501 119.82 45.2099 119.362 43.9232C118.904 42.6364 117.699 41.8903 116.669 42.2567C115.64 42.6232 115.177 43.9633 115.635 45.2501C116.093 46.5368 117.299 47.2829 118.328 46.9165Z" fill="black"/>
<path d="M108.176 52.4405C108.304 53.9731 108.245 55.5143 108.001 57.0347C107.709 58.7107 111.086 56.7647 111.086 56.7647" stroke="black" stroke-width="1.5" stroke-linecap="round" stroke-linejoin="round"/>
<path d="M119.155 34.3687C118.514 33.9523 117.808 33.7693 117.103 33.8366C116.397 33.9039 115.715 34.2195 115.121 34.7539" stroke="black" stroke-width="1.5" stroke-linecap="round" stroke-linejoin="round"/>
<path d="M101.157 39.7183C99.8339 40.2345 98.6594 41.0886 97.7441 42.2006" stroke="black" stroke-width="1.5" stroke-linecap="round" stroke-linejoin="round"/>
<path d="M118.845 59.8875C118.668 60.6645 118.203 61.3643 117.527 61.8718C116.85 62.3793 116.002 62.6644 115.121 62.6801" stroke="black" stroke-width="1.5" stroke-linecap="round" stroke-linejoin="round"/>
<path d="M103.051 50.4328C104.081 50.0664 104.544 48.7262 104.085 47.4395C103.627 46.1527 102.422 45.4066 101.392 45.7731C100.363 46.1395 99.9002 47.4796 100.358 48.7664C100.816 50.0531 102.022 50.7992 103.051 50.4328Z" fill="black"/>
<path d="M113.148 18.1706H112.27C106.782 18.1706 110.074 18.7238 100.744 13.1961C91.4137 7.66839 85.3758 10.9877 78.7912 14.3011C72.2066 17.6144 72.7533 30.8722 83.1815 35.8421C93.6096 40.8121 104.586 36.3954 108.976 30.8676C113.092 25.6746 116.716 23.9079 119.843 24.1837C119.843 24.1837 123.246 24.7867 124.337 26.4449C125.427 28.103 124.337 29.7612 124.337 31.4194C124.337 42.9632 132.019 38.5992 132.019 38.5992L133.117 14.8498L113.148 18.1706Z" fill="black"/>
<path d="M87.6808 219.923L20.4339 205.712C19.8998 205.594 19.4138 205.318 19.0397 204.919C18.6656 204.521 18.4209 204.018 18.3377 203.478C18.2545 202.939 18.3367 202.386 18.5735 201.894C18.8104 201.401 19.1907 200.992 19.6647 200.719L60.3205 177.837C60.8828 177.503 61.5542 177.405 62.1888 177.563L129.437 191.774C129.971 191.893 130.457 192.169 130.831 192.568C131.205 192.966 131.45 193.469 131.533 194.009C131.616 194.549 131.534 195.101 131.297 195.594C131.06 196.086 130.68 196.496 130.206 196.769L89.5491 219.649C89.2714 219.816 88.9633 219.927 88.6425 219.974C88.3218 220.021 87.9948 220.004 87.6808 219.923Z" fill="#C6CDDD"/>
<path d="M67.5205 169.112C58.7751 170.037 55.2221 176.675 56.8629 180.811C58.447 185.001 66.6449 185.437 68.4498 186.416C70.198 187.396 72.6577 193.436 73.587 192.619C74.5699 191.749 73.4781 186.252 72.6577 184.402C76.5926 187.341 78.123 193.327 79.5982 191.585C81.0734 189.843 78.6152 183.804 76.9759 180.539C79.5982 182.498 79.9264 184.784 81.676 187.178C83.3705 189.518 83.8076 190.497 84.7905 189.136C85.775 187.831 83.4242 180.431 81.2927 177.601C84.8457 179.179 86.7043 187.449 88.1795 186.144C89.6547 184.839 87.9617 179.723 86.3209 176.459C84.6802 173.194 80.4186 170.527 73.587 169.22L67.5205 169.112Z" fill="white"/>
<path d="M67.5205 169.112C58.7751 170.037 55.2221 176.675 56.8629 180.811C58.447 185.001 66.6449 185.437 68.4498 186.416C70.198 187.396 72.6577 193.436 73.587 192.619C74.5699 191.749 73.4781 186.252 72.6577 184.402C76.5926 187.341 78.123 193.327 79.5982 191.585C81.0734 189.843 78.6152 183.804 76.9759 180.539C79.5982 182.498 79.9264 184.784 81.676 187.178C83.3705 189.518 83.8076 190.497 84.7905 189.136C85.775 187.831 83.4242 180.431 81.2927 177.601C84.8457 179.179 86.7043 187.449 88.1795 186.144C89.6547 184.839 87.9617 179.723 86.3209 176.459C84.6802 173.194 80.4186 170.527 73.587 169.22L67.5205 169.112Z" fill="url(#paint5_linear)"/>
<path d="M67.5205 169.112C58.7751 170.037 55.2221 176.675 56.8629 180.811C58.447 185.001 66.6449 185.437 68.4498 186.416C70.198 187.396 72.6577 193.436 73.587 192.619C74.5699 191.749 73.4781 186.252 72.6577 184.402C76.5926 187.341 78.123 193.327 79.5982 191.585C81.0734 189.843 78.6152 183.804 76.9759 180.539C79.5982 182.498 79.9264 184.784 81.676 187.178C83.3705 189.518 83.8076 190.497 84.7905 189.136C85.775 187.831 83.4242 180.431 81.2927 177.601C84.8457 179.179 86.7043 187.449 88.1795 186.144C89.6547 184.839 87.9617 179.723 86.3209 176.459C84.6802 173.194 80.4186 170.527 73.587 169.22L67.5205 169.112Z" stroke="black" stroke-width="1.5" stroke-linecap="round" stroke-linejoin="round"/>
<path d="M87.0382 219.941L17.8345 205.258C17.3699 205.152 16.9397 204.929 16.584 204.61C16.2283 204.291 15.9587 203.887 15.8003 203.436L0.134231 155.278C-0.0138073 154.826 -0.0399327 154.341 0.0585203 153.875C0.156973 153.409 0.376496 152.977 0.694786 152.624C1.01307 152.27 1.4188 152.008 1.87075 151.863C2.32271 151.718 2.80479 151.695 3.26805 151.798L72.4717 166.489C72.9364 166.595 73.3668 166.818 73.7225 167.137C74.0783 167.456 74.3478 167.86 74.5059 168.311L90.1705 216.469C90.3128 216.921 90.3347 217.402 90.234 217.866C90.1334 218.329 89.9137 218.757 89.5968 219.109C89.2799 219.46 88.8769 219.722 88.428 219.868C87.9791 220.014 87.4999 220.039 87.0382 219.941Z" fill="white"/>
<path d="M87.0382 219.941L17.8345 205.258C17.3699 205.152 16.9397 204.929 16.584 204.61C16.2283 204.291 15.9587 203.887 15.8003 203.436L0.134231 155.278C-0.0138073 154.826 -0.0399327 154.341 0.0585203 153.875C0.156973 153.409 0.376496 152.977 0.694786 152.624C1.01307 152.27 1.4188 152.008 1.87075 151.863C2.32271 151.718 2.80479 151.695 3.26805 151.798L72.4717 166.489C72.9364 166.595 73.3668 166.818 73.7225 167.137C74.0783 167.456 74.3478 167.86 74.5059 168.311L90.1705 216.469C90.3128 216.921 90.3347 217.402 90.234 217.866C90.1334 218.329 89.9137 218.757 89.5968 219.109C89.2799 219.46 88.8769 219.722 88.428 219.868C87.9791 220.014 87.4999 220.039 87.0382 219.941Z" fill="url(#paint6_linear)"/>
<path d="M150.061 128.152C150.061 128.152 164.869 156.773 161.03 165.029C157.19 173.285 128.123 169.986 123.188 174.386" stroke="white" stroke-width="1.5" stroke-linecap="round" stroke-linejoin="round"/>
<path d="M150.061 128.152C150.061 128.152 164.869 156.773 161.03 165.029C157.19 173.285 128.123 169.986 123.188 174.386" stroke="url(#paint7_linear)" stroke-width="1.5" stroke-linecap="round" stroke-linejoin="round"/>
<path d="M119.445 173.703C118.568 173.538 113.032 168.67 112.101 167.74C111.169 166.81 110.292 169.545 114.403 174.577C109.36 173.21 102.072 176.875 100.208 180.047C98.3994 183.22 96.5357 188.258 97.9058 189.619C99.2759 190.981 101.578 182.782 105.25 181.409C102.948 184.144 100.208 191.474 101.14 192.841C102.072 194.208 102.51 193.278 104.318 191.036C106.128 188.739 106.62 186.496 109.36 184.636C107.552 187.809 104.812 193.771 106.182 195.576C107.552 197.381 109.36 191.474 113.526 188.739C112.594 190.543 111.224 196.068 112.156 196.949C113.088 197.83 115.828 191.917 117.636 190.987C119.445 190.057 127.721 190.057 129.529 185.954C131.338 181.907 128.105 175.07 119.445 173.703Z" fill="white"/>
<path d="M119.445 173.703C118.568 173.538 113.032 168.67 112.101 167.74C111.169 166.81 110.292 169.545 114.403 174.577C109.36 173.21 102.072 176.875 100.208 180.047C98.3994 183.22 96.5357 188.258 97.9058 189.619C99.2759 190.981 101.578 182.782 105.25 181.409C102.948 184.144 100.208 191.474 101.14 192.841C102.072 194.208 102.51 193.278 104.318 191.036C106.128 188.739 106.62 186.496 109.36 184.636C107.552 187.809 104.812 193.771 106.182 195.576C107.552 197.381 109.36 191.474 113.526 188.739C112.594 190.543 111.224 196.068 112.156 196.949C113.088 197.83 115.828 191.917 117.636 190.987C119.445 190.057 127.721 190.057 129.529 185.954C131.338 181.907 128.105 175.07 119.445 173.703Z" fill="url(#paint8_linear)"/>
<path d="M119.445 173.703C118.568 173.538 113.032 168.67 112.101 167.74C111.169 166.81 110.292 169.545 114.403 174.577C109.36 173.21 102.072 176.875 100.208 180.047C98.3994 183.22 96.5357 188.258 97.9058 189.619C99.2759 190.981 101.578 182.782 105.25 181.409C102.948 184.144 100.208 191.474 101.14 192.841C102.072 194.208 102.51 193.278 104.318 191.036C106.128 188.739 106.62 186.496 109.36 184.636C107.552 187.809 104.812 193.771 106.182 195.576C107.552 197.381 109.36 191.474 113.526 188.739C112.594 190.543 111.224 196.068 112.156 196.949C113.088 197.83 115.828 191.917 117.636 190.987C119.445 190.057 127.721 190.057 129.529 185.954C131.338 181.907 128.105 175.07 119.445 173.703Z" stroke="black" stroke-width="1.5" stroke-linecap="round" stroke-linejoin="round"/>
<defs>
<linearGradient id="paint0_linear" x1="132.808" y1="39.4082" x2="132.808" y2="51.5098" gradientUnits="userSpaceOnUse">
<stop stop-color="white"/>
<stop offset="1" stop-color="white" stop-opacity="0"/>
</linearGradient>
<linearGradient id="paint1_linear" x1="84.8664" y1="128.152" x2="84.8664" y2="161.354" gradientUnits="userSpaceOnUse">
<stop stop-color="white"/>
<stop offset="1" stop-color="white" stop-opacity="0"/>
</linearGradient>
<linearGradient id="paint2_linear" x1="75.4022" y1="155.768" x2="75.4022" y2="177.489" gradientUnits="userSpaceOnUse">
<stop stop-color="white"/>
<stop offset="1" stop-color="white" stop-opacity="0"/>
</linearGradient>
<linearGradient id="paint3_linear" x1="121.948" y1="62.6794" x2="121.948" y2="91.2266" gradientUnits="userSpaceOnUse">
<stop stop-color="white"/>
<stop offset="1" stop-color="white" stop-opacity="0"/>
</linearGradient>
<linearGradient id="paint4_linear" x1="110.775" y1="18.6175" x2="110.775" y2="72.9193" gradientUnits="userSpaceOnUse">
<stop stop-color="white"/>
<stop offset="1" stop-color="white" stop-opacity="0"/>
</linearGradient>
<linearGradient id="paint5_linear" x1="72.6095" y1="169.112" x2="72.6095" y2="192.695" gradientUnits="userSpaceOnUse">
<stop stop-color="white"/>
<stop offset="1" stop-color="white" stop-opacity="0"/>
</linearGradient>
<linearGradient id="paint6_linear" x1="45.1481" y1="151.735" x2="45.1481" y2="220" gradientUnits="userSpaceOnUse">
<stop stop-color="white"/>
<stop offset="1" stop-color="white" stop-opacity="0"/>
</linearGradient>
<linearGradient id="paint7_linear" x1="142.427" y1="128.152" x2="142.427" y2="174.386" gradientUnits="userSpaceOnUse">
<stop stop-color="white"/>
<stop offset="1" stop-color="white" stop-opacity="0"/>
</linearGradient>
<linearGradient id="paint8_linear" x1="113.723" y1="167.56" x2="113.723" y2="197.038" gradientUnits="userSpaceOnUse">
<stop stop-color="white"/>
<stop offset="1" stop-color="white" stop-opacity="0"/>
</linearGradient>
</defs>
</svg>
