<svg width="384" height="282" viewBox="0 0 384 282" fill="none" xmlns="http://www.w3.org/2000/svg">
<path d="M34.4332 242.866L26.334 178.275C23.1441 152.846 41.271 132.229 66.8498 132.229H109.619" stroke="black" stroke-width="2" stroke-linecap="round" stroke-linejoin="round"/>
<path d="M136.43 131.095L141.741 123.616L140.344 113.575C139.968 112.865 139.583 112.125 139.188 111.361C110.187 115.677 106.659 127.829 113.172 140.844C65.0644 150.237 44.1195 224.079 56.6333 259.115C60.1983 269.073 63.0596 279.031 73.6515 279.144" stroke="black" stroke-width="2" stroke-linecap="round" stroke-linejoin="round"/>
<path d="M151.556 157.938C151.556 157.875 151.556 157.812 151.556 157.749C153.129 157.901 154.656 157.911 156.13 156.637C159.781 153.473 161.076 152.524 161.076 152.524C161.076 152.524 161.408 152.922 161.995 153.596C162.716 152.268 163.466 150.891 164.232 149.497C148.469 137.288 136.43 131.094 136.43 131.094L135.54 130.457L129.751 137.517C129.751 137.517 139.171 144.01 151.556 157.938Z" fill="#00C471"/>
<path d="M227.754 272.544C227.754 272.544 202.527 204.7 205.737 183.675C207.486 172.207 204.741 159.202 200.95 149.154L193.724 149.622L185.074 170.076C185.638 170.215 186.202 170.332 186.767 170.408C186.767 170.408 186.435 172.555 185.618 177.491C185.07 180.781 186.01 181.143 186.753 183.426C187.713 184.963 188.45 186.689 187.64 189.358C187.374 190.231 186.743 198.453 185.316 209.606C187.972 215.249 190.507 221.204 192.884 227.53C208.18 268.331 206.59 272.783 206.59 272.783L227.754 272.544Z" fill="#00C471"/>
<path d="M313.184 278.608C311.369 266.659 298.42 202.519 224.339 146.26C222.68 136.209 218.481 120.389 196.902 112.994" stroke="black" stroke-width="2" stroke-linecap="round" stroke-linejoin="round"/>
<path d="M211.743 180.105C211.743 180.105 210.947 201.773 215.69 217.351" stroke="black" stroke-width="2" stroke-linecap="round" stroke-linejoin="round"/>
<path d="M223.36 146.012C223.595 147.426 223.778 148.728 223.954 149.869C225.992 163.087 221.63 171.863 218.746 177.948C226.49 172.471 231.711 162.055 234.347 154.112C231.163 151.562 226.818 148.588 223.36 146.012Z" fill="black"/>
<path d="M113.937 140.257C108.52 141.362 99.6172 144.061 93.2009 148.499C97.682 150.942 119.875 164.232 138.012 172.205C138.155 172.122 139.15 170.463 139.648 169.815C129.611 161.855 119.052 150.51 113.937 140.257Z" fill="black"/>
<path d="M128.542 87.389C128.542 87.389 116.224 90.7283 121.21 101.247C124.675 108.55 131.254 105.954 135.178 103.74" stroke="black" stroke-width="2" stroke-linecap="round" stroke-linejoin="round"/>
<path d="M169.808 40.46C176.841 40.8435 184.557 43.7394 188.301 53.2353C193.121 65.4707 195.851 79.1285 197.185 89.8005C197.222 90.0912 197.128 90.3831 196.93 90.5986C196.731 90.8141 196.448 90.9313 196.155 90.919L195.513 90.9562L195.065 88.9267C193.696 78.5337 191.021 65.5736 186.448 53.9658C183.082 45.4279 176.242 42.8054 169.7 42.4486C163.11 42.0893 156.961 44.0551 155.39 44.5857C146.975 47.449 141.401 51.6575 137.743 56.318C134.08 60.984 132.297 66.1569 131.552 71.0052C130.807 75.8579 131.106 80.3672 131.595 83.6702C131.839 85.3195 132.13 86.6618 132.358 87.5881C132.406 87.7822 132.451 87.958 132.493 88.1145L132.149 90.3304C131.659 90.4946 131.125 90.2572 130.919 89.7835L130.886 89.7072C130.873 89.6779 130.862 89.6479 130.852 89.6175L131.799 89.31C130.852 89.6175 130.852 89.617 130.851 89.6162L130.851 89.6141L130.849 89.6076L130.842 89.5852C130.836 89.5663 130.827 89.5392 130.816 89.5042C130.795 89.4341 130.764 89.3324 130.726 89.2008C130.651 88.9375 130.545 88.5543 130.425 88.065C130.183 87.0866 129.88 85.682 129.625 83.962C129.116 80.5264 128.8 75.8078 129.584 70.7029C130.368 65.5936 132.258 60.0793 136.176 55.0883C140.098 50.0919 146.01 45.6736 154.75 42.6999L154.752 42.6992C156.376 42.1505 162.823 40.0792 169.808 40.46Z" fill="black"/>
<path d="M197.337 90.2332C197.395 90.5563 197.476 91.0273 197.569 91.6247C197.754 92.8191 197.988 94.5201 198.18 96.5551C198.564 100.618 198.786 106.044 198.124 111.436C198.057 111.982 197.56 112.37 197.014 112.303C196.468 112.236 196.08 111.739 196.147 111.193C196.786 105.996 196.574 100.727 196.197 96.7423C196.009 94.7534 195.781 93.0924 195.601 91.9307C195.538 91.5267 195.481 91.1832 195.433 90.9076L197.337 90.2332Z" fill="black"/>
<path d="M130.067 91.0307C130.381 91.6695 130.831 92.582 131.381 93.693C132.494 95.9408 134.015 99.0002 135.648 102.247C138.923 108.76 142.623 115.974 144.4 118.946C146.191 121.944 147.553 123.963 149.654 125.735C151.765 127.516 154.684 129.097 159.664 131.064C162.617 132.231 166.416 132.903 170.445 132.903C170.995 132.903 171.44 133.349 171.44 133.899C171.44 134.449 170.995 134.895 170.445 134.895C166.215 134.895 162.16 134.193 158.932 132.917C153.888 130.924 150.73 129.248 148.37 127.258C145.999 125.258 144.497 122.991 142.69 119.967C140.868 116.919 137.131 109.629 133.869 103.142C132.233 99.8902 130.71 96.8268 129.596 94.5765C129.039 93.4513 128.585 92.5293 128.269 91.8885L130.067 91.0307Z" fill="black"/>
<path d="M129.535 93.4532C129.535 93.4532 123.189 86.0942 118.605 77.3013C114.289 69.0362 116.079 58.7961 123.232 52.8213C129.22 47.8057 134.919 49.1335 134.919 49.1335C134.919 49.1335 124.609 38.6311 132.738 25.0451C134.161 22.6679 136.055 20.6063 138.302 18.9865C140.55 17.3666 143.105 16.2227 145.81 15.6248C159.154 12.7005 166.058 22.8776 166.058 22.8776C166.058 22.8776 173.725 -6.72758 206.656 1.41807C209.976 2.24126 214.367 5.75312 216.681 8.27581C230.695 23.5746 204.293 52.4528 188.231 58.2351C170.595 64.5816 159.253 64.2331 152.322 61.2656C157.305 62.7826 157.487 90.8874 129.535 93.4532Z" fill="black"/>
<path d="M180.428 84.3021L186.649 100.852L180.256 100.819" stroke="black" stroke-width="2" stroke-linecap="round" stroke-linejoin="round"/>
<path d="M177.013 115.194C178.749 115.194 180.156 113.787 180.156 112.051C180.156 110.314 178.749 108.907 177.013 108.907C175.277 108.907 173.869 110.314 173.869 112.051C173.869 113.787 175.277 115.194 177.013 115.194Z" fill="black"/>
<path d="M187.791 85.67C188.755 85.4289 189.234 84.0239 188.861 82.5318C188.488 81.0397 187.404 80.0255 186.44 80.2665C185.476 80.5076 184.997 81.9126 185.37 83.4047C185.744 84.8969 186.827 85.911 187.791 85.67Z" fill="black"/>
<path d="M170.909 89.5792C171.873 89.3381 172.352 87.9331 171.979 86.441C171.606 84.9489 170.522 83.9347 169.558 84.1757C168.594 84.4168 168.115 85.8218 168.488 87.3139C168.861 88.806 169.945 89.8202 170.909 89.5792Z" fill="black"/>
<path d="M159.216 76.3325C159.814 74.9828 160.764 73.8184 161.965 72.9607C163.167 72.103 164.576 71.5835 166.047 71.4564" stroke="black" stroke-width="2" stroke-linecap="round" stroke-linejoin="round"/>
<path d="M182.01 67.1631C182.01 67.1631 186.538 64.6968 188.738 68.3514" stroke="black" stroke-width="2" stroke-linecap="round" stroke-linejoin="round"/>
<path d="M378.408 186.853H249.353C248.531 186.853 247.733 187.131 247.088 187.641C246.444 188.151 245.99 188.864 245.801 189.664L227.857 265.617H181.077C181.077 265.617 178.485 279.007 193.601 279.007H358.369C359.192 279.007 359.989 278.729 360.634 278.219C361.279 277.709 361.732 276.996 361.921 276.196L381.967 191.344C382.093 190.807 382.097 190.249 381.977 189.711C381.858 189.173 381.617 188.669 381.275 188.237C380.933 187.804 380.497 187.455 380 187.216C379.504 186.976 378.96 186.852 378.408 186.853Z" fill="black"/>
<path d="M10.3591 260.907C9.22577 260.99 8.08709 260.85 7.00807 260.493C5.92906 260.136 4.93084 259.571 4.07042 258.828C3.21 258.086 2.50422 257.182 1.99339 256.166C1.48256 255.151 1.17668 254.045 1.0932 252.912C1.00973 251.779 1.1503 250.64 1.50689 249.561C1.86348 248.482 2.4291 247.484 3.17147 246.623C3.91384 245.763 4.81841 245.057 5.83354 244.546C6.84867 244.036 7.95447 243.73 9.08781 243.646C9.61086 243.607 10.1364 243.616 10.6579 243.673" stroke="black" stroke-width="2" stroke-linecap="round" stroke-linejoin="round"/>
<path d="M9.23364 240.562V269.045C9.23364 271.686 10.2828 274.219 12.1503 276.086C14.0178 277.954 16.5506 279.003 19.1916 279.003H35.9908C38.6318 279.003 41.1647 277.954 43.0322 276.086C44.8996 274.219 45.9488 271.686 45.9488 269.045V240.562H9.23364ZM24.0877 261.417C24.19 261.476 24.2746 261.561 24.333 261.664C24.3913 261.767 24.4212 261.883 24.4196 262.001C24.4196 262.177 24.3496 262.346 24.2251 262.471C24.1006 262.595 23.9318 262.665 23.7557 262.665C23.6397 262.667 23.5253 262.638 23.4238 262.582L16.7851 258.599C16.6711 258.545 16.5746 258.46 16.5071 258.354C16.4395 258.248 16.4037 258.124 16.4037 257.998C16.4037 257.872 16.4395 257.749 16.5071 257.642C16.5746 257.536 16.6711 257.451 16.7851 257.397L23.4238 253.414C23.5253 253.358 23.6397 253.329 23.7557 253.331C23.9318 253.331 24.1006 253.401 24.2251 253.526C24.3496 253.65 24.4196 253.819 24.4196 253.995C24.4212 254.113 24.3913 254.229 24.333 254.332C24.2746 254.435 24.19 254.52 24.0877 254.579L18.3751 258.005L24.0877 261.417ZM38.0886 258.596L31.4499 262.579C31.3484 262.635 31.234 262.664 31.118 262.662C31.0302 262.664 30.9429 262.647 30.8618 262.613C30.7806 262.58 30.7074 262.529 30.6467 262.466C30.5835 262.405 30.5335 262.332 30.4998 262.251C30.4661 262.169 30.4494 262.082 30.4508 261.995C30.4492 261.876 30.4791 261.76 30.5374 261.657C30.5958 261.555 30.6805 261.469 30.7828 261.41L36.4953 257.988L30.7828 254.563C30.6805 254.504 30.5958 254.418 30.5374 254.316C30.4791 254.213 30.4492 254.096 30.4508 253.978C30.4508 253.802 30.5208 253.633 30.6453 253.509C30.7698 253.384 30.9386 253.315 31.1147 253.315C31.2307 253.313 31.3451 253.341 31.4466 253.398L38.0853 257.381C38.1993 257.434 38.2958 257.519 38.3633 257.626C38.4309 257.732 38.4667 257.855 38.4667 257.981C38.4667 258.108 38.4309 258.231 38.3633 258.337C38.2958 258.444 38.1993 258.529 38.0853 258.582L38.0886 258.596Z" fill="black"/>
<path d="M170.686 137.16C170.822 132.868 170.756 126.113 169.232 123.162C166.813 118.479 169.07 113.48 174.019 118.595C176.84 121.509 178.224 125.376 178.895 128.161" stroke="black" stroke-width="2" stroke-linecap="round" stroke-linejoin="round"/>
<path d="M212.476 130.272C217.255 130.272 221.13 126.398 221.13 121.619C221.13 116.84 217.255 112.965 212.476 112.965C207.697 112.965 203.823 116.84 203.823 121.619C203.823 126.398 207.697 130.272 212.476 130.272Z" stroke="black" stroke-width="2" stroke-linecap="round" stroke-linejoin="round"/>
<path d="M156.429 280.001C181.723 278.112 186.755 192.294 187.631 189.363C189.387 183.575 183.874 182.217 184.597 177.633C185.321 173.049 184.76 170.994 184.76 170.994C172.887 169.062 161.355 154.132 161.355 154.132C161.355 154.132 160.16 155.005 156.758 157.913C153.356 160.821 149.558 156.353 145.675 160.807C143.112 163.778 115.19 210.654 115.19 210.654" stroke="black" stroke-width="2" stroke-linecap="round" stroke-linejoin="round"/>
<path d="M185.623 177.496C186.446 172.56 186.771 170.413 186.771 170.413C174.128 168.468 161.089 152.525 161.089 152.525C161.089 152.525 159.801 153.474 156.144 156.637C154.67 157.912 153.156 157.902 151.57 157.749C150.451 171.594 175.286 183.919 187.05 184.5C186.3 181.174 185.002 181.244 185.623 177.496Z" fill="black"/>
<path d="M98.7505 202.791C98.7505 202.791 113.721 189.872 122.411 198.011" stroke="black" stroke-width="2" stroke-linecap="round" stroke-linejoin="round"/>
<path d="M156.162 164.555L181.243 179.137L193.796 149.456C205.908 149.475 205.855 142.897 203.319 142.671C200.783 142.445 188.605 144.155 188.605 144.155C188.605 144.155 189 143.268 198.895 141.39C208.79 139.511 206.931 133.997 204.803 133.848C202.675 133.699 186.952 137.639 186.952 137.639L200.461 132.816C205.271 131.289 205.44 126.628 202.928 125.971C201.268 125.536 192.419 128.212 185.415 130.661C185.415 130.661 193.833 126.346 197.826 123.737C201.819 121.128 199.027 117.726 196.694 117.938C194.361 118.151 178.149 128.992 175.062 131.677C171.975 134.362 156.162 164.555 156.162 164.555Z" stroke="black" stroke-width="2" stroke-linecap="round" stroke-linejoin="round"/>
<path d="M1 279.827L382.059 279.827" stroke="black" stroke-width="2" stroke-linecap="round" stroke-linejoin="round"/>
<path d="M212.353 138.424L210.514 110L173.878 112.374L175.123 131.606C178.379 128.821 194.375 118.139 196.682 117.93C198.989 117.721 201.807 121.124 197.814 123.729C193.821 126.335 185.403 130.653 185.403 130.653C192.407 128.204 201.266 125.528 202.916 125.963C205.432 126.627 205.259 131.274 200.45 132.808L186.94 137.631C186.94 137.631 202.664 133.691 204.791 133.84C206.919 133.989 208.775 139.503 198.883 141.381C188.991 143.26 188.593 144.146 188.593 144.146C188.593 144.146 200.775 142.434 203.308 142.663C205.84 142.892 205.897 149.467 193.784 149.447L193.715 149.61L203.049 149.006C204.355 148.923 205.632 148.583 206.806 148.006C207.981 147.429 209.03 146.626 209.894 145.643C210.758 144.661 211.42 143.517 211.842 142.278C212.264 141.04 212.437 139.73 212.353 138.424Z" fill="black"/>
<ellipse cx="306.036" cy="232.999" rx="18" ry="20" transform="rotate(12.9905 306.036 232.999)" fill="white"/>
<ellipse cx="306.036" cy="232.999" rx="18" ry="20" transform="rotate(12.9905 306.036 232.999)" fill="url(#paint0_linear)"/>
<path d="M307.178 228.012L309.483 228.544C310.771 228.841 311.536 228.619 311.71 227.864C311.78 227.562 311.697 227.304 311.461 227.09C311.224 226.877 310.92 226.647 310.446 226.538C309.768 226.382 309.106 226.467 308.391 226.78C307.761 227.033 307.318 227.407 307.179 228.012L307.178 228.012ZM307.67 230.83L308.273 232.242L308.658 233.047C309.294 234.626 309.523 236.111 309.174 237.621C308.843 239.057 308.072 240.231 306.947 241.085C305.446 242.33 303.713 242.726 301.747 242.272C300.255 241.928 299.157 241.118 298.435 239.917C297.712 238.716 297.534 237.323 297.9 235.736C298.335 233.848 299.465 232.359 301.252 231.418C302.222 230.926 302.987 230.705 303.665 230.861C304.004 230.939 304.258 231.077 304.409 231.351C304.56 231.624 304.626 231.958 304.556 232.26C304.452 232.713 304.093 233.028 303.531 233.296L302.664 233.653C302.12 233.846 301.676 234.221 301.283 234.687C300.89 235.153 300.565 235.635 300.51 236.179C300.319 237.011 300.433 237.753 300.769 238.467C301.188 239.12 301.729 239.563 302.542 239.751C303.424 239.954 304.257 239.749 305.091 239.226C305.926 238.702 306.406 237.858 306.615 236.952C306.758 236.344 306.756 235.713 306.609 235.12C306.46 234.529 306.092 233.649 305.455 232.388C305.019 231.492 304.752 230.793 304.62 230.126L302.044 229.532C301.163 229.329 300.758 228.917 300.915 228.237C301.019 227.784 301.242 227.438 301.65 227.214C301.974 227.05 302.484 227.008 303.026 227.133L304.653 227.509C305.102 226.181 305.923 225.097 307.217 224.441C308.442 223.769 309.767 223.597 311.258 223.941C312.343 224.192 313.155 224.697 313.676 225.533C314.197 226.369 314.344 227.278 314.1 228.336C313.786 229.695 313 230.628 311.741 231.133C311.044 231.37 310.043 231.377 308.687 231.065L307.67 230.83Z" fill="#00C471"/>
<defs>
<linearGradient id="paint0_linear" x1="306.036" y1="212.999" x2="306.036" y2="252.999" gradientUnits="userSpaceOnUse">
<stop stop-color="white"/>
<stop offset="1" stop-color="white" stop-opacity="0"/>
</linearGradient>
</defs>
</svg>
