<svg>
  <symbol viewBox="0 0 20 21" id="google">
    <g fill="none">
      <path d="M10.225 0c-3.113 0-5.89 1.47-7.77 3.8A11.173 11.173 0 0 0 1 6.157L4.459 9a6.525 6.525 0 0 1 2.187-3.228 5.77 5.77 0 0 1 3.579-1.25c1.448 0 2.757.552 3.785 1.456L17 2.763C15.178 1.055 12.842 0 10.225 0z" fill="#FF7976"></path>
      <path d="M1 6.156L4.459 9a6.525 6.525 0 0 1 2.187-3.228 5.77 5.77 0 0 1 3.579-1.251c1.448 0 2.757.553 3.785 1.457L17 2.763C15.178 1.055 12.842 0 10.225 0" fill="#E3443A"></path>
      <path d="M4.659 10.502c0-.094.007-.186.012-.279.03-.56.141-1.099.329-1.608L1.168 6A9.285 9.285 0 0 0 .01 10.223c-.003.093-.009.185-.009.279 0 .093.006.186.009.279A9.293 9.293 0 0 0 1.166 15l3.83-2.62a5.469 5.469 0 0 1-.325-1.6c-.005-.092-.012-.184-.012-.278z"
        fill="#F4D72C"></path>
      <path d="M2 15l2.997-2.62a6.813 6.813 0 0 1-.254-1.6c-.004-.093-.01-.185-.01-.279 0-.093.006-.186.01-.278.023-.56.11-1.099.257-1.608L2.001 6" fill="#F7B92B"></path>
      <path d="M13.7 15.512c-.93.629-2.103.967-3.43.967a5.745 5.745 0 0 1-2.198-.44 6.003 6.003 0 0 1-1.399-.817A6.506 6.506 0 0 1 4.476 12L1 14.844a11.1 11.1 0 0 0 1.46 2.351C4.35 19.53 7.14 21 10.27 21c.947 0 1.877-.135 2.765-.4A9.406 9.406 0 0 0 17 18.247l-3.3-2.734z"
        fill="#59C96E"></path>
      <path d="M1 16a8.96 8.96 0 0 0 1.46 1.91C4.35 19.805 7.14 21 10.27 21c.947 0 1.877-.11 2.765-.324 1.477-.357 2.838-1.002 3.965-1.913l-3.3-2.22c-.93.51-2.104.785-3.43.785a6.912 6.912 0 0 1-2.198-.357 6.445 6.445 0 0 1-1.4-.664" fill="#40A557"></path>
      <path d="M19.76 8H10v4.082h5.576c-.284 1.36-1.056 2.597-2.161 3.296L16.795 18a9.734 9.734 0 0 0 2.25-3.2c.608-1.373.955-3.017.955-4.824 0-.626-.096-1.296-.24-1.976z" fill="#0FAEF4"></path>
      <path d="M16.778 17.979a9.77 9.77 0 0 0 2.248-3.201c.605-1.368.947-3 .947-4.801 0-.624-.099-1.285-.243-1.963h-.604m-9.114 1.694v2.373h5.4" fill="#4087ED"></path>
    </g>
  </symbol>
  <symbol xmlns="http://www.w3.org/2000/svg" viewBox="0 0 25 20" id="mail">
    <path fill="#FFF" d="M22.803 0H2.197C.987 0 0 1.036 0 2.308v15.384C0 18.96.983 20 2.197 20h20.606C24.01 20 25 18.968 25 17.692V2.308C25 1.04 24.017 0 22.803 0zm-.304 1.538l-9.952 10.453L2.507 1.538H22.5zM1.465 17.374V2.619l7.054 7.346-7.054 7.409zM2.5 18.462l7.059-7.414 2.473 2.575a.709.709 0 0 0 1.034-.002l2.412-2.533 7.02 7.374H2.501zm21.034-1.088L16.515 10l7.02-7.374v14.748z"></path>
  </symbol>
  <symbol xmlns="http://www.w3.org/2000/svg" viewBox="0 0 34 20" id="mastercard">
    <g fill="none" fill-rule="evenodd">
      <path fill="#F7A826" fill-rule="nonzero" d="M23.188 19.659l.509-.014.502-.036.492-.063.489-.086.475-.109.469-.133.459-.156.449-.175.438-.199.426-.216.412-.238.403-.256.385-.275.372-.291.359-.309.343-.328.329-.341.309-.358.293-.371.276-.385.256-.401.239-.411.216-.424.2-.438.176-.447.156-.457.133-.468.11-.474.086-.487.063-.49.037-.501.013-.507-.013-.504-.037-.497-.063-.49-.086-.481-.11-.474-.133-.464-.156-.457-.176-.444-.2-.434-.216-.425-.239-.407-.256-.401-.276-.385-.293-.368-.309-.358-.329-.341-.343-.325-.359-.308-.372-.292-.385-.275-.403-.255-.412-.235-.426-.216-.438-.199-.449-.175-.459-.156-.469-.133-.475-.109-.489-.086-.492-.063-.502-.037-.509-.013-.505.013-.502.037-.492.063-.485.086-.475.109-.469.133-.456.156-.448.175-.436.199-.422.216-.412.235-.399.255-.386.275-.372.292-.356.308-.342.325-.326.341-.309.358-.293.368-.273.385-.256.401-.236.407-.219.425-.196.434-.176.444-.153.457-.133.464-.11.474-.086.481-.064.49-.036.497-.013.504.013.507.036.501.064.49.086.487.11.474.133.468.153.457.176.447.196.438.219.424.236.411.256.401.273.385.293.371.309.358.326.341.342.328.356.309.372.291.386.275.399.256.412.238.422.216.436.199.448.175.456.156.469.133.475.109.485.086.492.063.502.036z"></path>
      <path fill="#ED1C2E" fill-rule="nonzero" d="M10.004 19.659l.505-.014.502-.036.492-.063.485-.086.476-.109.468-.133.456-.156.449-.175.435-.199.422-.216.413-.238.399-.256.385-.275.373-.291.355-.309.343-.328.326-.341.309-.358.292-.371.273-.385.256-.401.236-.411.219-.424.197-.438.176-.447.153-.457.133-.468.109-.474.087-.487.063-.49.037-.501.013-.507-.013-.504-.037-.497-.063-.49-.087-.481-.109-.474-.133-.464-.153-.457-.176-.444-.197-.434-.219-.425-.236-.407-.256-.401-.273-.385-.292-.368-.309-.358-.326-.341-.343-.325-.355-.308-.373-.292-.385-.275-.399-.255-.413-.235-.422-.216-.435-.199-.449-.175-.456-.156-.468-.133-.476-.109-.485-.086-.492-.063-.502-.037-.505-.013-.509.013-.502.037-.492.063-.489.086-.475.109-.469.133-.459.156-.448.175-.439.199-.426.216-.412.235-.402.255-.386.275-.372.292-.359.308-.343.325-.329.341-.309.358-.292.368-.276.385-.256.401-.24.407-.216.425-.199.434-.176.444-.157.457-.133.464-.109.474-.087.481-.063.49-.037.497-.013.504.013.507.037.501.063.49.087.487.109.474.133.468.157.457.176.447.199.438.216.424.24.411.256.401.276.385.292.371.309.358.329.341.343.328.359.309.372.291.386.275.402.256.412.238.426.216.439.199.448.175.459.156.469.133.475.109.489.086.492.063.502.036z"></path>
      <path fill="#F7A826" fill-rule="nonzero" d="M15.443 3.776h5.236v-.533h-4.784zm-.785 1.187h6.021v-.534h-5.705zm-.585 1.183h6.606v-.533h-6.373zm-.402 1.187h7.008v-.534h-6.842zm.232 5.734h6.792v-.534h-6.958zm.502 1.186h6.29v-.533h-6.539zm.705 1.183h5.585v-.533h-5.921zm.971 1.187h4.614v-.537h-5.083zm-2.646-8.107h7.244v-.534h-7.141zm4.415 3.367h2.762v-.533h-2.663zm.219-1.183h2.543v-.537h-2.443zm-4.817-.537h.718v.537h-.685z"></path>
      <path fill="#FFF" fill-rule="nonzero" d="M11.912 9.517l-.047-.003-.046-.007-.043-.007-.044-.006-.039-.007-.044-.007-.043-.006-.046-.007-.047-.006-.053-.004-.06-.003-.063-.003h-.07l-.076.003-.087.007-.096.006-.067.01-.063.01-.056.02-.05.02-.047.023-.043.027-.033.033-.03.03-.02.036-.017.036-.006.04v.04l.01.043.013.043.027.043.033.043.066.063.08.05.093.043.1.037.106.033.11.036.109.04.107.043.1.056.093.07.083.083.07.103.053.125.033.15.013.179-.013.208-.023.156-.04.136-.053.126-.067.109-.076.097-.087.082-.093.073-.103.063-.106.05-.11.043-.113.033-.116.027-.113.02-.11.01-.11.006-.103.004h-.143l-.133-.004h-.116l-.11-.003-.099-.003-.09-.007-.08-.007-.077-.01-.069-.006-.064-.013-.063-.01-.056-.017-.057-.013-.053-.02-.053-.02-.057-.02.15-.732.03.006.037.01.046.014.057.013.059.013.067.013.073.017.08.013.083.013.086.013.09.011.093.009.097.004.096.003h.096l.097-.003.096-.02.077-.027.06-.036.046-.047.033-.046.027-.053.017-.053.013-.05.006-.096-.029-.083-.057-.066-.083-.056-.1-.05-.116-.05-.13-.046-.13-.053-.132-.06-.127-.069-.116-.087-.106-.102-.084-.126-.059-.149-.03-.179.003-.213.017-.129.023-.122.033-.113.04-.106.053-.1.06-.086.07-.083.083-.072.097-.063.106-.053.119-.05.133-.037.15-.03.163-.023.179-.013.197-.003h.123l.113.003.103.003.093.004.083.006.076.007.067.007.06.006.056.007.047.01.043.006.04.007.033.007.03.003.03.007.027.003z"></path>
      <path stroke="#FFF" stroke-width=".216" d="M11.912 9.517l-.047-.003-.046-.007-.043-.007-.044-.006-.039-.007-.044-.007-.043-.006-.046-.007-.047-.006-.053-.004-.06-.003-.063-.003h-.07l-.076.003-.087.007-.096.006-.067.01-.063.01-.056.02-.05.02-.047.023-.043.027-.033.033-.03.03-.02.036-.017.036-.006.04v.04l.01.043.013.043.027.043.033.043.066.063.08.05.093.043.1.037.106.033.11.036.109.04.107.043.1.056.093.07.083.083.07.103.053.125.033.15.013.179-.013.208-.023.156-.04.136-.053.126-.067.109-.076.097-.087.082-.093.073-.103.063-.106.05-.11.043-.113.033-.116.027-.113.02-.11.01-.11.006-.103.004h-.143l-.133-.004h-.116l-.11-.003-.099-.003-.09-.007-.08-.007-.077-.01-.069-.006-.064-.013-.063-.01-.056-.017-.057-.013-.053-.02-.053-.02-.057-.02.15-.732.03.006.037.01.046.014.057.013.059.013.067.013.073.017.08.013.083.013.086.013.09.011.093.009.097.004.096.003h.096l.097-.003.096-.02.077-.027.06-.036.046-.047.033-.046.027-.053.017-.053.013-.05.006-.096-.029-.083-.057-.066-.083-.056-.1-.05-.116-.05-.13-.046-.13-.053-.132-.06-.127-.069-.116-.087-.106-.102-.084-.126-.059-.149-.03-.179.003-.213.017-.129.023-.122.033-.113.04-.106.053-.1.06-.086.07-.083.083-.072.097-.063.106-.053.119-.05.133-.037.15-.03.163-.023.179-.013.197-.003h.123l.113.003.103.003.093.004.083.006.076.007.067.007.06.006.056.007.047.01.043.006.04.007.033.007.03.003.03.007.027.003-.17.749"></path>
      <path fill="#FFF" fill-rule="nonzero" d="M12.7 7.949h.921l-.137.802h.556l-.12.749-.585-.016-.319 1.849-.004.066.017.057.033.043.043.036.06.023.067.02.073.014.08.006.073-.003.066-.007.06-.01.053-.013.044-.013.03-.01.019-.007.007-.003-.116.617-.023.016-.024.013-.023.014-.023.013-.024.01-.026.01-.03.01-.03.01-.033.01-.033.006-.04.007-.04.006-.043.007-.05.007-.054.006-.056.007h-.253l-.133-.01-.116-.013-.107-.02-.089-.023-.077-.03-.063-.033-.056-.04-.044-.043-.033-.047-.023-.056-.017-.056-.01-.063-.003-.07v-.073l.01-.076.01-.083z"></path>
      <path stroke="#FFF" stroke-width=".216" d="M12.7 7.949h.921l-.137.802h.556l-.12.749-.585-.016-.319 1.849-.004.066.017.057.033.043.043.036.06.023.067.02.073.014.08.006.073-.003.066-.007.06-.01.053-.013.044-.013.03-.01.019-.007.007-.003-.116.617-.023.016-.024.013-.023.014-.023.013-.024.01-.026.01-.03.01-.03.01-.033.01-.033.006-.04.007-.04.006-.043.007-.05.007-.054.006-.056.007h-.253l-.133-.01-.116-.013-.107-.02-.089-.023-.077-.03-.063-.033-.056-.04-.044-.043-.033-.047-.023-.056-.017-.056-.01-.063-.003-.07v-.073l.01-.076.01-.083.635-3.616"></path>
      <path fill="#FFF" fill-rule="nonzero" d="M14.774 10.75l-.01.056-.003.06.007.063.013.063.023.063.027.059.036.063.04.057.047.056.05.05.053.05.06.039.06.037.066.03.067.023.066.013.087.013.083.01.086.01.086.007.087.003h.09l.086-.003.09-.007.09-.013.09-.017.093-.02.089-.029.093-.037.097-.04.093-.053.096-.056-.133.815-.053.027-.053.026-.053.02-.05.02-.05.017-.053.016-.053.014-.057.01-.06.009-.066.007-.07.007-.077.006-.086.004h-.09l-.103.003h-.109l-.163-.003-.167-.017-.166-.023-.166-.04-.163-.05-.156-.063-.15-.082-.139-.097-.13-.112-.113-.136-.096-.153-.08-.175-.057-.196-.036-.222-.01-.245.016-.272.014-.106.02-.123.026-.129.037-.139.05-.143.059-.142.077-.146.093-.139.106-.133.13-.126.146-.112.167-.1.192-.083.216-.059.24-.04.269-.013.13.003.136.013.136.023.137.034.133.049.129.06.12.079.11.093.099.113.083.133.067.152.046.176.027.199.003.225-.023.252-.05.278-.016.202h-2.424l.153-.653h1.456l.007-.082-.004-.08-.006-.073-.013-.066-.024-.063-.023-.056-.033-.05-.034-.047-.039-.039-.044-.034-.049-.029-.05-.027-.053-.02-.054-.013-.056-.01-.06-.007-.063.004-.06.01-.057.013-.056.02-.057.026-.05.03-.049.037-.044.039-.043.047-.04.05-.036.052-.03.057-.03.06-.023.066-.02.066-.014.07z"></path>
      <path stroke="#FFF" stroke-width=".216" d="M14.774 10.75l-.01.056-.003.06.007.063.013.063.023.063.027.059.036.063.04.057.047.056.05.05.053.05.06.039.06.037.066.03.067.023.066.013.087.013.083.01.086.01.086.007.087.003h.09l.086-.003.09-.007.09-.013.09-.017.093-.02.089-.029.093-.037.097-.04.093-.053.096-.056-.133.815-.053.027-.053.026-.053.02-.05.02-.05.017-.053.016-.053.014-.057.01-.06.009-.066.007-.07.007-.077.006-.086.004h-.09l-.103.003h-.109l-.163-.003-.167-.017-.166-.023-.166-.04-.163-.05-.156-.063-.15-.082-.139-.097-.13-.112-.113-.136-.096-.153-.08-.175-.057-.196-.036-.222-.01-.245.016-.272.014-.106.02-.123.026-.129.037-.139.05-.143.059-.142.077-.146.093-.139.106-.133.13-.126.146-.112.167-.1.192-.083.216-.059.24-.04.269-.013.13.003.136.013.136.023.137.034.133.049.129.06.12.079.11.093.099.113.083.133.067.152.046.176.027.199.003.225-.023.252-.05.278-.016.202h-2.424l.153-.653h1.456l.007-.082-.004-.08-.006-.073-.013-.066-.024-.063-.023-.056-.033-.05-.034-.047-.039-.039-.044-.034-.049-.029-.05-.027-.053-.02-.054-.013-.056-.01-.06-.007-.063.004-.06.01-.057.013-.056.02-.057.026-.05.03-.049.037-.044.039-.043.047-.04.05-.036.052-.03.057-.03.06-.023.066-.02.066-.014.07-.133.686"></path>
      <path fill="#FFF" fill-rule="nonzero" d="M22.703 8.95l-.043-.023-.043-.02-.047-.023-.05-.023-.049-.02-.057-.02-.057-.02-.059-.02-.064-.016-.063-.014-.069-.013-.07-.01-.077-.007-.076-.006h-.246l-.087.006-.09.01-.092.017-.094.026-.093.037-.093.046-.093.06-.09.073-.086.086-.083.106-.08.123-.073.146-.07.165-.063.186-.053.212-.02.119-.014.116-.006.116.003.113.01.113.023.106.03.099.037.1.05.089.06.086.069.077.08.069.09.06.103.05.113.043.126.029.044.01.049.01.06.007.067.007.073.006h.16l.083-.006.086-.01.086-.017.083-.023.084-.027.083-.036.076-.043.07-.053.066-.06-.149.885-.02.017-.02.019-.026.024-.03.02-.037.026-.047.023-.053.023-.06.02-.076.024-.087.016-.099.013-.117.014-.129.006-.15.004-.17-.004-.186-.01-.152-.016-.153-.033-.153-.05-.153-.066-.147-.08-.139-.099-.133-.116-.123-.133-.11-.149-.093-.166-.08-.185-.059-.203-.04-.222-.014-.235.007-.258.037-.275.026-.136.03-.133.033-.129.033-.123.037-.116.043-.116.044-.109.046-.103.05-.103.05-.096.056-.093.06-.086.06-.083.067-.079.066-.073.07-.07.076-.066.077-.063.079-.056.084-.053.089-.05.09-.043.093-.04.097-.036.103-.034.103-.026.106-.023.113-.02.113-.017.12-.013.12-.007.126-.003.106.003.103.007.1.01.1.013.093.013.09.02.086.017.08.02.076.02.067.02.063.019.053.02.047.017.04.013.03.013.019.007z"></path>
      <path stroke="#FFF" stroke-width=".216" d="M22.703 8.95l-.043-.023-.043-.02-.047-.023-.05-.023-.049-.02-.057-.02-.057-.02-.059-.02-.064-.016-.063-.014-.069-.013-.07-.01-.077-.007-.076-.006h-.246l-.087.006-.09.01-.092.017-.094.026-.093.037-.093.046-.093.06-.09.073-.086.086-.083.106-.08.123-.073.146-.07.165-.063.186-.053.212-.02.119-.014.116-.006.116.003.113.01.113.023.106.03.099.037.1.05.089.06.086.069.077.08.069.09.06.103.05.113.043.126.029.044.01.049.01.06.007.067.007.073.006h.16l.083-.006.086-.01.086-.017.083-.023.084-.027.083-.036.076-.043.07-.053.066-.06-.149.885-.02.017-.02.019-.026.024-.03.02-.037.026-.047.023-.053.023-.06.02-.076.024-.087.016-.099.013-.117.014-.129.006-.15.004-.17-.004-.186-.01-.152-.016-.153-.033-.153-.05-.153-.066-.147-.08-.139-.099-.133-.116-.123-.133-.11-.149-.093-.166-.08-.185-.059-.203-.04-.222-.014-.235.007-.258.037-.275.026-.136.03-.133.033-.129.033-.123.037-.116.043-.116.044-.109.046-.103.05-.103.05-.096.056-.093.06-.086.06-.083.067-.079.066-.073.07-.07.076-.066.077-.063.079-.056.084-.053.089-.05.09-.043.093-.04.097-.036.103-.034.103-.026.106-.023.113-.02.113-.017.12-.013.12-.007.126-.003.106.003.103.007.1.01.1.013.093.013.09.02.086.017.08.02.076.02.067.02.063.019.053.02.047.017.04.013.03.013.019.007-.166.918"></path>
      <path fill="#FFF" fill-rule="nonzero" d="M30.888 12.301h-.921l.067-.368V11.9l-.054.066-.056.06-.057.053-.059.046-.06.043-.06.037-.06.03-.063.03-.063.023-.063.016-.064.017-.066.01-.067.01-.063.006-.066.004h-.067l-.173-.014-.159-.036-.147-.056-.132-.077-.12-.096-.107-.112-.093-.123-.079-.139-.067-.15-.053-.155-.037-.163-.026-.169-.01-.169.003-.172.017-.169.03-.169.05-.196.06-.185.069-.169.083-.159.087-.15.099-.132.104-.119.109-.11.117-.096.123-.083.126-.073.126-.056.133-.046.133-.03.133-.02.137-.007.096.004.093.01.086.016.08.023.077.027.066.03.067.036.06.037.053.039.05.043.043.043.04.044.033.043.03.043.026.04.02.039.233-1.302h.904z"></path>
      <path stroke="#FFF" stroke-width=".216" d="M30.888 12.301h-.921l.067-.368V11.9l-.054.066-.056.06-.057.053-.059.046-.06.043-.06.037-.06.03-.063.03-.063.023-.063.016-.064.017-.066.01-.067.01-.063.006-.066.004h-.067l-.173-.014-.159-.036-.147-.056-.132-.077-.12-.096-.107-.112-.093-.123-.079-.139-.067-.15-.053-.155-.037-.163-.026-.169-.01-.169.003-.172.017-.169.03-.169.05-.196.06-.185.069-.169.083-.159.087-.15.099-.132.104-.119.109-.11.117-.096.123-.083.126-.073.126-.056.133-.046.133-.03.133-.02.137-.007.096.004.093.01.086.016.08.023.077.027.066.03.067.036.06.037.053.039.05.043.043.043.04.044.033.043.03.043.026.04.02.039.233-1.302h.904l-.751 4.335"></path>
      <path fill="#FCB331" fill-rule="nonzero" d="M29.382 11.499l.093-.007.087-.02.079-.023.077-.036.07-.04.066-.05.063-.056.057-.06.05-.066.046-.073.043-.076.037-.08.033-.083.027-.086.023-.089.017-.09.016-.093.01-.096v-.089l-.003-.093-.01-.086-.013-.083-.024-.08-.026-.076-.033-.066-.04-.063-.044-.053-.049-.046-.057-.04-.06-.027-.063-.016-.07-.007-.089.007-.083.013-.077.026-.077.034-.066.043-.066.053-.057.056-.057.063-.049.073-.047.076-.043.08-.037.086-.033.089-.027.09-.026.096-.02.096-.017.146.007.159.023.162.043.156.067.136.086.109.11.073z"></path>
      <path fill="#FFF" fill-rule="nonzero" d="M8.966 11.565l-.132.736h-.838l.023-.136.017-.123.013-.092.013-.05-.046.053-.053.053-.064.05-.069.046-.08.047-.083.039-.087.04-.09.033-.096.03-.096.023-.097.02-.099.013-.097.007-.096.003-.093-.01-.09-.013-.117-.03-.106-.033-.093-.043-.083-.05-.073-.053-.067-.059-.053-.063-.047-.067-.039-.069-.033-.073-.027-.073-.02-.073-.013-.076-.01-.076-.007-.073v-.073l.01-.129.02-.123.033-.116.043-.113.053-.106.06-.096.07-.093.08-.083.083-.076.093-.07.097-.062.099-.054.107-.046.109-.036.113-.03.117-.02h.006l.017-.003.023-.004.037-.003.04-.007.046-.003.05-.007.057-.006.056-.007.057-.006.06-.004.053-.006.053-.004.05-.003.046-.003h.113l.08.003.073.003h.073l.06.004.047.003.033.003h.01l.007-.023.02-.06.016-.069.007-.063-.013-.073-.03-.066-.04-.06-.053-.05-.064-.043-.069-.03-.08-.02-.087-.006-.092-.004-.1-.003h-.103l-.107.003-.11.007-.106.01-.106.01-.103.013-.1.014-.096.016-.087.017-.08.016-.073.02-.06.02-.046.023-.037.02.236-.799.073-.029.074-.027.079-.023.08-.017.08-.016.086-.014.087-.013.089-.007.094-.006.096-.003.1-.004h.319l.116.004.117.003.093.006.099.017.103.023.107.03.103.04.1.046.099.057.093.063.083.072.074.08.066.089.05.1.033.106.02.113v.126l-.02.132z"></path>
      <path stroke="#FFF" stroke-width=".216" d="M8.966 11.565l-.132.736h-.838l.023-.136.017-.123.013-.092.013-.05-.046.053-.053.053-.064.05-.069.046-.08.047-.083.039-.087.04-.09.033-.096.03-.096.023-.097.02-.099.013-.097.007-.096.003-.093-.01-.09-.013-.117-.03-.106-.033-.093-.043-.083-.05-.073-.053-.067-.059-.053-.063-.047-.067-.039-.069-.033-.073-.027-.073-.02-.073-.013-.076-.01-.076-.007-.073v-.073l.01-.129.02-.123.033-.116.043-.113.053-.106.06-.096.07-.093.08-.083.083-.076.093-.07.097-.062.099-.054.107-.046.109-.036.113-.03.117-.02h.006l.017-.003.023-.004.037-.003.04-.007.046-.003.05-.007.057-.006.056-.007.057-.006.06-.004.053-.006.053-.004.05-.003.046-.003h.113l.08.003.073.003h.073l.06.004.047.003.033.003h.01l.007-.023.02-.06.016-.069.007-.063-.013-.073-.03-.066-.04-.06-.053-.05-.064-.043-.069-.03-.08-.02-.087-.006-.092-.004-.1-.003h-.103l-.107.003-.11.007-.106.01-.106.01-.103.013-.1.014-.096.016-.087.017-.08.016-.073.02-.06.02-.046.023-.037.02.236-.799.073-.029.074-.027.079-.023.08-.017.08-.016.086-.014.087-.013.089-.007.094-.006.096-.003.1-.004h.319l.116.004.117.003.093.006.099.017.103.023.107.03.103.04.1.046.099.057.093.063.083.072.074.08.066.089.05.1.033.106.02.113v.126l-.02.132-.336 1.75"></path>
      <path fill="#ED1C2E" fill-rule="nonzero" d="M8.165 10.7l-.003-.016-.013-.017-.02-.01-.033-.007-.037-.006-.043-.004h-.1l-.053.004-.057.006-.053.007-.053.007-.05.006-.046.01-.04.01-.037.01-.023.007-.027.01-.036.013-.037.016-.043.02-.043.024-.047.023-.043.026-.047.033-.043.034-.04.039-.036.04-.034.043-.023.047-.02.053-.01.053-.003.112.017.09.033.066.043.05.05.033.056.02.054.01.053.003.099-.003.09-.01.087-.013.076-.02.067-.023.063-.03.056-.03.05-.037.043-.033.04-.039.033-.037.027-.04.023-.039.02-.04.017-.037.01-.036.027-.096.023-.11.02-.106z"></path>
      <path fill="#FFF" fill-rule="nonzero" d="M1.972 12.301h-.904l.754-4.352h1.573l.149 2.582 1.087-2.582h1.643l-.772 4.352h-.904L5.17 9.05h-.037L3.78 12.301H2.76l-.007-.136-.023-.361-.03-.514-.033-.59-.033-.593-.03-.52-.024-.378-.006-.159h-.05z"></path>
      <path stroke="#FFF" stroke-width=".216" d="M1.972 12.301h-.904l.754-4.352h1.573l.149 2.582 1.087-2.582h1.643l-.772 4.352h-.904L5.17 9.05h-.037L3.78 12.301H2.76l-.007-.136-.023-.361-.03-.514-.033-.59-.033-.593-.03-.52-.024-.378-.006-.159h-.05l-.552 3.251"></path>
      <path fill="#FFF" fill-rule="nonzero" d="M25.466 11.565l-.136.736h-.835l.007-.136.003-.119v-.09l.007-.04-.044.05-.049.05-.06.046-.067.047-.069.043-.08.04-.083.039-.083.034-.09.026-.093.027-.094.016-.093.013-.096.007-.093.003-.09-.01-.09-.013-.119-.03-.107-.033-.093-.043-.086-.05-.073-.053-.063-.059-.054-.063-.046-.067-.04-.069-.03-.073-.027-.073-.016-.073-.013-.076-.01-.076-.007-.073v-.073l.007-.129.02-.123.029-.116.044-.113.049-.106.064-.096.069-.093.077-.083.086-.076.09-.07.096-.062.103-.054.104-.046.109-.036.11-.03.113-.02h.007l.016-.003.024-.004.033-.003.043-.007.047-.003.05-.007.053-.006.056-.007.06-.006.057-.004.056-.006.053-.004.047-.003.046-.003h.117l.079.003.077.003h.073l.063.004.053.003.03.003h.014l.006-.023.01-.06.01-.069.007-.063-.013-.073-.027-.066-.043-.06-.05-.05-.06-.043-.07-.03-.073-.02-.08-.006-.093-.004-.099-.003h-.104l-.106.003-.11.007-.106.01-.106.01-.103.013-.1.014-.097.016-.086.017-.08.016-.073.02-.06.02-.046.023-.037.02.233-.799.073-.029.076-.027.077-.023.08-.017.083-.016.083-.014.086-.013.09-.007.093-.006.097-.003.096-.004h.312l.113.004.114.003.093.006.099.017.103.023.107.03.103.04.103.046.1.057.093.063.083.072.076.08.067.089.05.1.036.106.023.113v.126l-.016.132z"></path>
      <path fill="#FFF" fill-rule="nonzero" d="M25.33 12.324l.02-.02.136-.735-.04-.007-.136.736.02-.02v.046l.016-.003.004-.017z"></path>
      <path fill="#FFF" fill-rule="nonzero" d="M24.475 12.317l.02.039h.835v-.078h-.835l.02.039h-.04l-.003.039h.023z"></path>
      <path fill="#FFF" fill-rule="nonzero" d="M24.565 11.93l-.051-.027-.022.053-.006.09v.119l-.011.136h.067l.012-.136.011-.119-.006-.09v-.026l-.05-.027z"></path>
      <path fill="#FFF" fill-rule="nonzero" d="M23.235 12.354l.093.013.09.01.093-.003.096-.007.097-.013.093-.017.093-.026.093-.027.083-.033.087-.04.079-.039.07-.047.07-.046.06-.047.053-.053.043-.049-.033-.027-.043.05-.047.046-.059.047-.064.046-.069.04-.08.04-.08.039-.083.034-.087.026-.093.027-.093.016-.09.013-.096.007-.093.003-.09-.01-.086-.013z"></path>
      <path fill="#FFF" fill-rule="nonzero" d="M22.431 11.35l.003.073.007.073.009.079.014.076.017.073.026.076.03.077.043.069.047.07.053.063.066.063.077.053.086.053.097.043.11.033.119.03.007-.04-.12-.03-.103-.033-.09-.043-.086-.046-.07-.053-.06-.057-.053-.063-.047-.063-.036-.069-.03-.07-.027-.069-.016-.073-.014-.076-.009-.073-.007-.073.003-.073zm1.193-1.273l-.116.02-.113.03-.11.036-.106.047-.104.053-.099.066-.09.07-.086.079-.08.083-.07.093-.067.099-.049.109-.044.113-.029.12-.02.126-.01.129h.046l.004-.129.019-.12.03-.113.043-.112.05-.103.06-.093.07-.093.073-.082.087-.073.089-.07.093-.06.104-.053.099-.046.11-.036.106-.03.11-.02zm.685-.069h-.037l-.046.01-.047.005-.053.006-.056.01-.057.006-.06.01-.056.011-.053.011-.05.01-.047.006-.043.01-.033.006-.027.005-.013.005h-.007v.064h.007l.02-.005.02-.006.033-.005.043-.011.047-.005.05-.011.053-.01.056-.011.06-.01.057-.006.056-.01.053-.006.047-.005h.083zm.449.06l.02-.027h-.014l-.03-.006-.053-.005-.063-.012h-.15l-.079-.01h-.08v.077h.159l.077.011h.136l.053.006.03.006h.014l.02-.028-.02.028.016.005.004-.033z"></path>
      <path fill="#FFF" fill-rule="nonzero" d="M24.814 9.832h-.006l-.005.063-.017.066-.017.06-.011.023.067.007.011-.024.017-.059.017-.073.017-.063h-.005zm-.419-.328v.003l.077.003.07.02.066.03.057.04.046.046.04.056.027.06.013.07h.04l-.014-.076-.026-.073-.047-.063-.053-.053-.063-.047-.073-.03-.077-.02-.083-.009v.003zm-1.426.159l.033.02.034-.017.043-.023.056-.02.074-.02.079-.016.087-.017.096-.017.097-.013.103-.013.106-.01.106-.01.11-.007h.309l.093.004v-.04l-.093-.003-.099-.007h-.104l-.106.007-.11.006-.106.01-.106.01-.103.013-.104.014-.096.016-.086.017-.08.016-.073.02-.063.02-.05.023-.04.023.033.02z"></path>
      <path fill="#FFF" fill-rule="nonzero" d="M23.215 8.847l-.013.017-.233.799.04.006.233-.798-.014.016-.013-.04-.01.004-.003.013z"></path>
      <path fill="#FFF" fill-rule="nonzero" d="M24.695 8.695l-.114-.007-.113-.003h-.312l-.096.007-.097.003-.093.007-.09.006-.09.013-.083.014-.083.016-.079.017-.08.023-.077.027-.073.029.013.04.074-.03.076-.026.073-.023.08-.017.083-.017.083-.013.083-.013.09-.007.093-.006.097-.004h.408l.113.004h.114zm1.14 1.123l.016-.135v-.126l-.023-.116-.036-.11-.053-.102-.067-.093-.08-.083-.083-.073-.096-.063-.1-.06-.107-.046-.103-.04-.109-.03-.103-.023-.103-.016-.093-.007v.04l.093.006.096.017.103.023.103.03.103.04.1.046.1.053.089.063.084.073.073.076.066.086.047.097.036.102.024.11v.126l-.017.129zm-.349 1.751l.349-1.751-.04-.006-.349 1.75z"></path>
      <path fill="#FCB331" fill-rule="nonzero" d="M24.661 10.7l-.006-.02-.014-.016-.023-.01-.033-.01-.037-.004-.043-.003h-.05l-.05.003-.053.007-.053.007-.053.006-.05.007-.05.01-.043.007-.043.01-.034.006-.023.004-.026.009-.034.01-.036.014-.044.019-.039.02-.047.024-.043.029-.044.03-.043.037-.036.036-.037.043-.03.047-.023.049-.02.053-.01.057-.003.112.016.09.027.066.04.05.05.033.056.02.057.01.056.003.1-.003.093-.01.087-.017.076-.023.073-.026.063-.03.06-.033.053-.04.047-.037.04-.043.036-.039.03-.043.024-.04.016-.04.013-.04.01-.036.014-.093.016-.096.014-.093z"></path>
      <path fill="#FFF" fill-rule="nonzero" d="M25.715 12.301h.938l.336-1.886.013-.073.02-.073.02-.073.026-.072.034-.073.039-.07.044-.066.053-.063.06-.057.066-.053.076-.049.087-.04.096-.033.107-.027.116-.02.13-.006h.083l.149-.852-.093.006-.089.01-.083.017-.08.023-.073.027-.07.033-.067.036-.063.04-.06.047-.056.046-.053.053-.054.053-.049.056-.05.063-.05.06-.047.066.1-.6h-.934l-.622 3.55z"></path>
      <path stroke="#FFF" stroke-width=".216" d="M25.715 12.301h.938l.336-1.886.013-.073.02-.073.02-.073.026-.072.034-.073.039-.07.044-.066.053-.063.06-.057.066-.053.076-.049.087-.04.096-.033.107-.027.116-.02.13-.006h.083l.149-.852-.093.006-.089.01-.083.017-.08.023-.073.027-.07.033-.067.036-.063.04-.06.047-.056.046-.053.053-.054.053-.049.056-.05.063-.05.06-.047.066.1-.6h-.934l-.622 3.55"></path>
      <path fill="#FFF" fill-rule="nonzero" d="M16.912 12.301h.954l.319-1.886.013-.073.017-.069.017-.07.023-.066.027-.067.033-.062.04-.06.046-.057.054-.049.059-.05.073-.04.08-.036.093-.03.103-.027.114-.016.129-.01h.01l.014.003.016.004h.017l.016.003.014.003.01.003h.003l.003-.013.01-.04.013-.059.017-.073.023-.086.024-.093.03-.093.03-.093.026-.063.033-.063.034-.063.033-.056.03-.05.023-.039.017-.024.006-.01h-.003l-.013-.003-.017-.003-.023-.004h-.024l-.026-.003-.023-.003h-.024l-.103.006-.093.01-.086.017-.08.02-.077.026-.069.034-.064.033-.059.039-.057.043-.053.05-.05.05-.05.056-.05.057-.046.063-.05.066-.05.066.12-.6h-.954l-.622 3.55z"></path>
      <path stroke="#FFF" stroke-width=".216" d="M16.912 12.301h.954l.319-1.886.013-.073.017-.069.017-.07.023-.066.027-.067.033-.062.04-.06.046-.057.054-.049.059-.05.073-.04.08-.036.093-.03.103-.027.114-.016.129-.01h.01l.014.003.016.004h.017l.016.003.014.003.01.003h.003l.003-.013.01-.04.013-.059.017-.073.023-.086.024-.093.03-.093.03-.093.026-.063.033-.063.034-.063.033-.056.03-.05.023-.039.017-.024.006-.01h-.003l-.013-.003-.017-.003-.023-.004h-.024l-.026-.003-.023-.003h-.024l-.103.006-.093.01-.086.017-.08.02-.077.026-.069.034-.064.033-.059.039-.057.043-.053.05-.05.05-.05.056-.05.057-.046.063-.05.066-.05.066.12-.6h-.954l-.622 3.55"></path>
    </g>
  </symbol>
  <symbol xmlns="http://www.w3.org/2000/svg" width="12" height="8" viewBox="0 0 12 8" id="arrow-accordion">
    <path d="M6.48.23l5.329 6.04c.123.14.191.326.191.525 0 .198-.068.385-.191.525l-.393.444c-.255.29-.67.29-.926 0L6.015 2.692 1.535 7.77c-.124.14-.288.217-.464.217-.175 0-.34-.077-.463-.217l-.392-.445C.092 7.185.024 7 .024 6.8s.068-.385.192-.525L5.55.23c.123-.14.289-.217.464-.217.177 0 .342.077.465.217z"/>
  </symbol>
  <symbol xmlns="http://www.w3.org/2000/svg" viewBox="0 0 30 30" id="unlock">
    <path fill-rule="evenodd" d="M22.09 0C26.452 0 30 3.548 30 7.91v6.152h-5.273V7.91c0-1.454-1.183-2.637-2.637-2.637s-2.637 1.183-2.637 2.637v4.512h3.399V30H0V12.422h14.18V7.91c0-4.362 3.548-7.91 7.91-7.91zm-.996 14.18H1.758v14.062h19.336V14.18zM12 18v7h-2v-7h2zM22.09 1.758a6.159 6.159 0 00-6.152 6.152v4.512h1.757V7.91a4.4 4.4 0 014.395-4.394 4.399 4.399 0 014.394 4.394v4.395h1.758V7.91a6.16 6.16 0 00-6.152-6.152z" fill="#FFF"/>
  </symbol>
  <symbol xmlns="http://www.w3.org/2000/svg" viewBox="0 0 14 13" id="star">
    <path fill="#00C471" fill-rule="evenodd" d="M7.331.214l1.78 4.104 4.56.382c.316.026.445.41.205.613L10.418 8.23l1.036 4.34c.072.301-.264.539-.536.378L7 10.648l-3.918 2.3c-.272.16-.607-.077-.535-.378l1.036-4.34L.125 5.312a.348.348 0 0 1 .204-.613l4.56-.381L6.668.214a.363.363 0 0 1 .662 0z"></path>
  </symbol>
  <symbol xmlns="http://www.w3.org/2000/svg" width="24" height="23" viewBox="0 0 24 23" id="star-empty">
    <path fill="none" stroke="#00C471" stroke-width="2" d="M12.11 1.746L9.273 8.582l-7.43.65 5.637 4.972L5.8 21.568l6.356-3.903 6.357 3.903-1.681-7.364 5.635-4.97-7.42-.65-2.936-6.838z"/>
  </symbol>
  <symbol xmlns="http://www.w3.org/2000/svg" width="24" height="23" viewBox="0 0 24 23" id="star-full">
    <path fill="#00C471" fill-rule="evenodd" d="M12.582.379l3.014 7.26 7.714.676c.535.047.753.726.347 1.084l-5.852 5.162 1.754 7.678c.121.534-.446.953-.906.67l-6.63-4.071-6.63 4.07c-.461.283-1.028-.137-.906-.67l1.753-7.677L.388 9.398C-.02 9.04.198 8.36.734 8.313L8.45 7.64l3.013-7.26c.21-.505.911-.505 1.12 0z"/>
  </symbol>
  <symbol xmlns="http://www.w3.org/2000/svg" xmlns:xlink="http://www.w3.org/1999/xlink" viewBox="0 0 51 16" id="paypal">
    <defs>
      <path id="a" d="M.266.24h19.751v9.836H.266z"></path>
      <path id="c" d="M.179.243h15.929v8.228H.179z"></path>
      <path id="e" d="M-25.237.341h8.984v11.141h-8.984z"></path>
    </defs>
    <g fill="none" fill-rule="evenodd">
      <g transform="translate(14.081 3.543)">
        <mask id="b" fill="#fff">
          <use xlink:href="#a"></use>
        </mask>
        <path fill="#253B80" d="M19.787 2.896h-1.326a.377.377 0 0 0-.317.175l-1.83 2.807-.775-2.698a.386.386 0 0 0-.368-.284h-1.303a.234.234 0 0 0-.23.238c0 .027.004.053.012.078l1.46 4.466-1.373 2.02a.246.246 0 0 0 .055.334.228.228 0 0 0 .133.044h1.325a.377.377 0 0 0 .314-.172l4.412-6.633a.245.245 0 0 0-.058-.333.22.22 0 0 0-.13-.042m-8.87 2.676c-.128.785-.726 1.312-1.49 1.312-.383 0-.69-.128-.886-.37-.195-.241-.269-.584-.207-.967.119-.778.728-1.323 1.48-1.323.374 0 .679.13.88.375.2.247.28.592.223.973m1.84-2.676h-1.32a.232.232 0 0 0-.227.202l-.059.384-.092-.14c-.286-.431-.923-.576-1.559-.576-1.459 0-2.704 1.151-2.947 2.765-.126.806.053 1.576.492 2.112.402.494.978.7 1.662.7 1.176 0 1.827-.787 1.827-.787l-.059.382a.24.24 0 0 0 .191.274l.036.003h1.189c.188 0 .35-.143.379-.337l.713-4.706a.237.237 0 0 0-.19-.273c-.012-.003-.024-.003-.036-.003m-7.922.033c-.15 1.03-.906 1.03-1.637 1.03h-.416l.292-1.924a.233.233 0 0 1 .227-.202h.19c.498 0 .968 0 1.21.296.145.176.19.438.134.8M4.518.239H1.762a.388.388 0 0 0-.378.338L.269 7.939c-.02.13.066.253.191.273l.036.003h1.316c.189 0 .35-.143.378-.337l.301-1.986a.389.389 0 0 1 .378-.337h.873c1.815 0 2.863-.915 3.137-2.729.123-.793.005-1.417-.352-1.853C6.136.493 5.441.24 4.518.24"
          mask="url(#b)"></path>
      </g>
      <g transform="translate(33.458 3.543)">
        <mask id="d" fill="#fff">
          <use xlink:href="#c"></use>
        </mask>
        <path fill="#179BD7" d="M14.362.448L13.22 8.061a.243.243 0 0 0 .192.278l.036.003h1.149c.19 0 .353-.145.382-.343L16.105.524a.241.241 0 0 0-.192-.278.23.23 0 0 0-.037-.003h-1.285a.237.237 0 0 0-.23.205m-3.428 5.21c-.127.797-.733 1.332-1.503 1.332-.386 0-.696-.13-.895-.376-.197-.245-.271-.593-.21-.981.122-.79.735-1.344 1.494-1.344.379 0 .686.132.89.38.203.252.283.602.224.988m1.858-2.717h-1.332a.236.236 0 0 0-.229.205l-.059.39-.093-.14c-.289-.44-.932-.586-1.574-.586-1.472 0-2.73 1.168-2.975 2.807-.127.818.054 1.6.496 2.145.407.501.987.71 1.679.71 1.186 0 1.844-.8 1.844-.8l-.059.389a.242.242 0 0 0 .192.278l.037.003h1.2c.19 0 .352-.145.382-.342l.72-4.778a.242.242 0 0 0-.193-.278l-.036-.003m-7.997.034C4.642 4.02 3.879 4.02 3.14 4.02h-.42l.295-1.954a.236.236 0 0 1 .23-.205h.192c.502 0 .976 0 1.221.3.146.18.19.445.135.813m-.32-2.73H1.689a.391.391 0 0 0-.381.341L.182 8.061a.242.242 0 0 0 .193.278l.036.003h1.428a.275.275 0 0 0 .267-.24l.32-2.119a.391.391 0 0 1 .381-.342h.881c1.833 0 2.89-.93 3.168-2.771.124-.806.004-1.44-.356-1.882C6.105.5 5.404.243 4.473.243"
          mask="url(#d)"></path>
      </g>
      <path fill="#253B80" d="M3.362 12.844l.207-1.373-.461-.011H.905l1.53-10.131a.127.127 0 0 1 .125-.11h3.714c1.233 0 2.084.267 2.528.795.209.248.341.508.405.793.068.299.069.657.003 1.093l-.005.031v.28l.209.123c.159.084.301.197.421.336.179.212.294.481.342.8.05.33.034.72-.048 1.163a4.219 4.219 0 0 1-.456 1.315 2.66 2.66 0 0 1-.723.826c-.276.205-.603.36-.973.46a4.689 4.689 0 0 1-1.217.146h-.289a.858.858 0 0 0-.565.217.923.923 0 0 0-.294.549l-.022.123-.366 2.42-.017.089c-.004.028-.011.042-.022.052a.062.062 0 0 1-.038.014H3.362z"></path>
      <path fill="#179BD7" d="M9.195 4.318c-.011.074-.024.15-.038.228-.495 2.624-2.187 3.53-4.347 3.53h-1.1a.542.542 0 0 0-.529.468l-.563 3.692-.16 1.047a.29.29 0 0 0 .279.336h1.95a.475.475 0 0 0 .465-.409l.019-.102.367-2.41.024-.132a.473.473 0 0 1 .463-.41h.292c1.89 0 3.37-.793 3.803-3.09.18-.958.087-1.759-.39-2.322a1.881 1.881 0 0 0-.535-.426"></path>
      <path fill="#222D65" d="M8.897 3.728a4.166 4.166 0 0 0-.495-.111 6.325 6.325 0 0 0-1-.074h-3.03a.486.486 0 0 0-.479.413L3.25 8.073l-.019.12a.552.552 0 0 1 .545-.47H4.91c2.228 0 3.972-.913 4.482-3.553.016-.078.028-.154.04-.229a2.876 2.876 0 0 0-.42-.178l-.114-.036"></path>
      <g transform="translate(25.367 .443)">
        <mask id="f" fill="#fff">
          <use xlink:href="#e"></use>
        </mask>
        <path fill="#253B80" d="M-21.512 3.538a.463.463 0 0 1 .45-.411h2.849c.337 0 .652.023.94.073.194.033.387.082.574.147.141.05.273.11.394.178.142-.975-.001-1.638-.493-2.239-.542-.661-1.52-.945-2.773-.945h-3.635c-.256 0-.474.2-.513.47l-1.515 10.284c-.026.182.09.354.26.382a.263.263 0 0 0 .049.005h2.244l.563-3.83.606-4.114z"
          mask="url(#f)"></path>
      </g>
    </g>
  </symbol>
  <symbol xmlns="http://www.w3.org/2000/svg" viewBox="0 0 157 122" id="quote">
    <path fill="#FFF" d="M72 90.306C72 107.238 58.473 122 37.964 122 14.836 122 0 103.331 0 80.32 0 22.142 40.145 2.605 67.636 0v26.484C51.055 29.089 32.727 42.548 31.855 62.52c2.181-1.303 5.236-2.171 9.163-2.171C60.655 60.349 72 72.07 72 90.306zm85 0C157 107.238 143.473 122 122.964 122 99.836 122 85 103.331 85 80.32 85 22.142 125.145 2.605 152.636 0v26.484c-16.581 2.605-34.909 16.064-35.781 36.036 2.181-1.303 5.236-2.171 9.163-2.171C145.655 60.349 157 72.07 157 90.306z"
      opacity=".15"></path>
  </symbol>
  <symbol xmlns="http://www.w3.org/2000/svg" viewBox="0 0 44 20" id="right">
    <path fill-rule="evenodd" d="M1.413 8.112l-.039.008h35.682l-5.29-5.076a1.294 1.294 0 0 1 0-1.871l.824-.788c.258-.248.603-.385.971-.385s.713.136.972.384l9.066 8.682c.26.249.402.58.401.933.001.354-.141.686-.4.934l-9.067 8.683c-.259.248-.604.384-.972.384s-.713-.136-.971-.384l-.823-.788a1.274 1.274 0 0 1-.401-.93c0-.353.142-.666.4-.914l5.35-5.104H1.394C.637 11.88 0 11.254 0 10.529V9.414c0-.726.656-1.302 1.413-1.302z"></path>
  </symbol>
  <symbol xmlns="http://www.w3.org/2000/svg" viewBox="0 0 23 24" id="search">
    <path fill="#FFF" fill-rule="evenodd" d="M22.445 20.816l-4.731-4.938c1.14-1.717 1.71-3.632 1.71-5.743 0-1.373-.255-2.685-.766-3.938-.51-1.252-1.2-2.332-2.069-3.239S14.686 1.332 13.485.8c-1.2-.534-2.458-.8-3.773-.8S7.14.266 5.94.799a9.686 9.686 0 0 0-3.104 2.16c-.87.906-1.559 1.986-2.07 3.238A10.346 10.346 0 0 0 0 10.135c0 1.372.255 2.684.766 3.936.51 1.253 1.2 2.332 2.069 3.24a9.725 9.725 0 0 0 3.104 2.159c1.2.532 2.458.799 3.773.799 2.024 0 3.858-.596 5.505-1.786l4.732 4.924c.33.364.744.547 1.241.547.478 0 .892-.183 1.242-.547.349-.365.524-.797.524-1.296 0-.508-.17-.94-.51-1.295zm-8.367-6.126c-1.209 1.262-2.664 1.893-4.366 1.893-1.701 0-3.157-.63-4.366-1.893-1.21-1.262-1.814-2.78-1.814-4.556 0-1.775.605-3.294 1.814-4.556 1.21-1.262 2.665-1.893 4.366-1.893 1.702 0 3.157.631 4.366 1.893 1.21 1.262 1.815 2.78 1.815 4.556 0 1.776-.605 3.294-1.815 4.556z"></path>
  </symbol>
  <symbol xmlns="http://www.w3.org/2000/svg" viewBox="0 0 23 24" id="search-black">
    <path fill-rule="evenodd" d="M22.445 20.816l-4.731-4.938c1.14-1.717 1.71-3.632 1.71-5.743 0-1.373-.255-2.685-.766-3.938-.51-1.252-1.2-2.332-2.069-3.239S14.686 1.332 13.485.8c-1.2-.534-2.458-.8-3.773-.8S7.14.266 5.94.799a9.686 9.686 0 0 0-3.104 2.16c-.87.906-1.559 1.986-2.07 3.238A10.346 10.346 0 0 0 0 10.135c0 1.372.255 2.684.766 3.936.51 1.253 1.2 2.332 2.069 3.24a9.725 9.725 0 0 0 3.104 2.159c1.2.532 2.458.799 3.773.799 2.024 0 3.858-.596 5.505-1.786l4.732 4.924c.33.364.744.547 1.241.547.478 0 .892-.183 1.242-.547.349-.365.524-.797.524-1.296 0-.508-.17-.94-.51-1.295zm-8.367-6.126c-1.209 1.262-2.664 1.893-4.366 1.893-1.701 0-3.157-.63-4.366-1.893-1.21-1.262-1.814-2.78-1.814-4.556 0-1.775.605-3.294 1.814-4.556 1.21-1.262 2.665-1.893 4.366-1.893 1.702 0 3.157.631 4.366 1.893 1.21 1.262 1.815 2.78 1.815 4.556 0 1.776-.605 3.294-1.815 4.556z"></path>
  </symbol>
  <symbol xmlns="http://www.w3.org/2000/svg" viewBox="0 0 152 45" id="studybay">
    <path fill="#FFF" d="M16 9h4.884C23.625 9 25 8.285 25 6.844c0-.547-.281-.995-.837-1.344-.568-.33-1.316-.5-2.268-.5a6.946 6.946 0 0 0-3.976 1.219C16.72 7.03 16.08 7.958 16 9zm2.533 5.661l2.01 2.456 1.153 1.336c2.224 2.662 3.338 5.483 3.35 8.45-.012 2.902-.995 5.435-2.978 7.62C19.394 37.504 15.872 39 11.537 39c-3.388 0-6.15-1.008-8.3-3.033C1.078 33.963 0 31.384 0 28.239c0-3.846 1.677-7.054 5.024-9.606 1.788-1.379 3.429-2.06 4.95-2.058.764-.002 1.4.216 1.898.65.486.436.732.998.744 1.697-.012.915-.576 1.715-1.712 2.384l-1.712 1.047c-1.014.593-1.845 1.436-2.493 2.528-.683 1.07-1.015 2.137-1.005 3.177-.01 1.683.572 3.063 1.749 4.153 1.151 1.086 2.63 1.63 4.429 1.625 1.976.005 3.696-.715 5.172-2.167 1.446-1.426 2.177-3.121 2.159-5.055a6.57 6.57 0 0 0-.856-3.395c-.61-1.003-1.889-2.568-3.87-4.694-1.36-1.468-2.343-2.76-2.94-3.864H5.694c-2.006-.005-3.004-.67-3.015-2.022.01-.952.361-1.7 1.08-2.239.684-.513 1.671-.776 2.94-.758h3.721c.282-2.798 1.59-5.097 3.908-6.898C16.668.91 19.459 0 22.7 0c2.456 0 4.449.653 5.992 1.95C30.23 3.264 31 4.956 31 7.042c0 2.757-1.222 4.877-3.684 6.355-1.37.838-3.576 1.26-6.587 1.264h-2.196zm18.069-.933h.664c1.822-.005 2.734.627 2.734 1.897 0 .858-.323 1.531-.96 2.007-.655.489-1.546.73-2.697.73h-1.551l-2.882 7.005h2.401c1.826-.005 2.738.626 2.734 1.897.004.857-.316 1.53-.96 2.006-.634.489-1.527.73-2.66.73h-3.879c-1.083 0-1.949-.248-2.586-.73-.64-.511-.96-1.185-.96-2.043 0-.517.13-1.1.406-1.751l.407-.912 2.512-6.202h-.296c-1.622 0-2.426-.617-2.438-1.861.012-.87.332-1.554.96-2.043.65-.49 1.543-.735 2.697-.73h.997l1.146-2.81.221-.547C33.287 8.787 34.35 8 35.79 8c.6 0 1.106.195 1.514.584.439.391.65.863.665 1.423-.014.532-.201 1.213-.59 2.043l-.776 1.678zm17.262 11.516h2.46c.967-.001 1.656.148 2.061.45.411.294.615.785.615 1.46 0 .896-.313 1.591-.94 2.097-.625.498-1.5.749-2.64.749h-3.762c-1.181 0-1.97-.473-2.35-1.423-.787.95-1.757 1.423-2.93 1.423h-3.074c-1.238 0-2.265-.4-3.074-1.198C39.407 28 39 26.988 39 25.769c0-.701.182-1.516.542-2.434l2.858-7.302C43.219 14.011 44.316 13 45.69 13c.623 0 1.137.2 1.556.6.424.4.636.891.65 1.46-.014.45-.127.951-.36 1.535l-.218.561-2.206 5.617-.253.674a5.36 5.36 0 0 0-.217.824c-.017.666.392.993 1.23 1.01 1.75-.017 2.91-.744 3.472-2.208l2.64-6.703c.8-2.046 1.91-3.065 3.363-3.07.573.005 1.08.21 1.52.599.403.425.614.912.614 1.497 0 .434-.183 1.132-.542 2.06l-3.075 7.788zM66.67 26h.75c.918 0 1.52-.403 1.807-1.208l1.5-4.075c.18-.49.273-.871.273-1.132 0-.442-.169-.816-.511-1.132-.333-.3-.753-.453-1.262-.453-1.028 0-1.992.637-2.897 1.925-.883 1.262-1.33 2.64-1.33 4.113 0 1.31.556 1.962 1.67 1.962zm6.2-.739h2.496c1.827-.003 2.746.642 2.758 1.94-.012.877-.338 1.567-1.006 2.053-.635.5-1.532.746-2.683.746h-2.907c-1.148 0-1.973-.464-2.497-1.38-.924.916-1.916 1.38-2.981 1.38h-2.758c-1.6 0-2.885-.551-3.839-1.642C58.482 27.245 58 25.78 58 23.955c0-2.802.952-5.318 2.87-7.537 1.89-2.248 4.029-3.365 6.41-3.358 1.746-.007 3.144.624 4.173 1.903L76.298 3.06C77.135 1.016 78.286 0 79.764 0c.621 0 1.15.2 1.602.597.417.4.634.89.634 1.455 0 .465-.108.972-.335 1.53l-.261.597-8.534 21.082zM84 35h-3.037C77.657 35 76 35.934 76 37.8c0 .663.227 1.195.667 1.6.468.398 1.077.6 1.852.6 1.041 0 1.974-.37 2.777-1.1.826-.748 1.723-2.046 2.704-3.9zm7.088-4.368h2.497c1.801.003 2.708.615 2.717 1.84-.009.84-.326 1.493-.955 1.947-.642.482-1.531.716-2.68.708h-3.452c-.425 1.19-1.175 2.76-2.277 4.706C85.07 43.28 82.33 45 78.748 45c-2.201 0-4.035-.66-5.508-1.982C71.743 41.698 71 40.06 71 38.1c0-1.354.404-2.624 1.212-3.786a7.29 7.29 0 0 1 3.195-2.654c1.497-.687 3.732-1.024 6.683-1.027h3.49l.623-1.486c-1.054.43-2.024.643-2.9.637-1.537.006-2.776-.368-3.71-1.132-.965-.737-1.44-1.71-1.432-2.902-.007-.734.3-1.828.918-3.291l2.314-5.556.257-.566C82.33 14.778 83.393 14 84.845 14c.618 0 1.143.193 1.579.566.407.397.617.886.624 1.487-.007.39-.192 1.036-.55 1.946l-2.094 4.919c-.347.796-.518 1.312-.514 1.557-.061.664.381 1 1.322.99.644.01 1.315-.175 1.983-.53.703-.388 1.138-.808 1.322-1.274l2.864-6.76.22-.565C92.275 14.778 93.339 14 94.798 14c.625 0 1.15.196 1.579.602.413.378.624.863.624 1.45 0 .39-.107.851-.33 1.38l-.258.567-5.324 12.633zM101 23.63c.639.909 1.386 1.37 2.23 1.37.626 0 1.144-.195 1.573-.593.58-.524 1.095-1.317 1.541-2.37.436-1.051.656-1.995.656-2.815 0-.665-.166-1.195-.492-1.592a1.59 1.59 0 0 0-1.311-.63c-1.213 0-2.184 1.016-2.918 3.037L101 23.63zm3.858-10.439c.616-.21 1.177-.312 1.659-.302 1.637-.01 2.957.624 3.968 1.885 1.01 1.274 1.515 2.918 1.515 4.937 0 3.915-1.446 6.963-4.329 9.158-1.018.75-2.071 1.131-3.174 1.131h-1.984c-1.397 0-2.584-.52-3.571-1.545C98.358 29.48 97.432 30 96.164 30c-.599 0-1.111-.205-1.515-.603A2.008 2.008 0 0 1 94 27.889c0-.439.112-.944.325-1.507l.252-.603L103.38 3.09l.252-.64c.65-1.63 1.667-2.45 3.03-2.45.644 0 1.174.202 1.587.603.443.405.657.899.65 1.47.007.469-.105.975-.325 1.545l-.252.603-3.463 8.97zM120.67 26h.478c1.094 0 1.819-.49 2.182-1.472l1.397-3.811c.18-.49.273-.907.273-1.245 0-.395-.176-.74-.511-1.02a1.953 1.953 0 0 0-1.296-.452c-.957 0-1.9.623-2.83 1.85-.904 1.264-1.363 2.553-1.363 3.886 0 1.51.551 2.264 1.67 2.264zm8.171-.756h2.43c1.814-.001 2.729.64 2.729 1.91 0 .896-.327 1.591-.972 2.097-.662.498-1.563.749-2.692.749h-2.803c-1.253 0-2.103-.487-2.542-1.46-1.1.973-2.153 1.46-3.178 1.46h-2.467c-1.606 0-2.895-.57-3.888-1.722-.968-1.133-1.458-2.628-1.458-4.494 0-2.775.962-5.274 2.879-7.489C118.81 14.102 120.986 13 123.42 13c1.85 0 3.208.647 4.074 1.947.717-1.096 1.668-1.642 2.841-1.647.642.005 1.177.21 1.608.599.426.425.64.927.635 1.535.005.396-.112.883-.336 1.46l-.262.562-3.14 7.788zM139 35h-3.037c-3.306 0-4.963.934-4.963 2.8 0 .663.227 1.195.667 1.6.468.398 1.077.6 1.852.6 1.041 0 1.975-.37 2.777-1.1.826-.748 1.724-2.046 2.704-3.9zm7.088-4.368h2.497c1.801.003 2.708.615 2.717 1.84-.009.84-.327 1.493-.955 1.947-.642.482-1.531.716-2.68.708h-3.452c-.425 1.19-1.174 2.76-2.277 4.706C140.07 43.28 137.33 45 133.748 45c-2.201 0-4.035-.66-5.508-1.982-1.497-1.32-2.24-2.958-2.24-4.919 0-1.354.404-2.624 1.212-3.786a7.29 7.29 0 0 1 3.195-2.654c1.497-.687 3.731-1.024 6.683-1.027h3.49l.623-1.486c-1.054.43-2.025.643-2.9.637-1.537.006-2.776-.368-3.71-1.132-.965-.737-1.44-1.71-1.432-2.902-.008-.734.3-1.828.918-3.291l2.314-5.556.257-.566c.68-1.558 1.743-2.336 3.195-2.336.618 0 1.143.193 1.579.566.407.397.617.886.624 1.487-.007.39-.192 1.036-.55 1.946l-2.13 4.919c-.311.796-.483 1.312-.478 1.557-.061.664.381 1 1.322.99.644.01 1.315-.175 1.983-.53.703-.388 1.138-.808 1.322-1.274l2.864-6.76.22-.565c.673-1.558 1.737-2.336 3.196-2.336.625 0 1.15.196 1.579.602.413.378.624.863.624 1.45 0 .39-.107.851-.33 1.38l-.258.567-5.324 12.633z"></path>
  </symbol>
  <symbol xmlns="http://www.w3.org/2000/svg" viewBox="0 0 23 19" id="twitter">
    <path fill="#FFF" d="M23 2.854a10.09 10.09 0 0 1-2.717.717 4.543 4.543 0 0 0 2.074-2.51 9.629 9.629 0 0 1-2.99 1.1A4.808 4.808 0 0 0 15.923.723c-2.61 0-4.712 2.041-4.712 4.543 0 .36.032.706.11 1.036-3.92-.184-7.39-1.994-9.72-4.75a4.45 4.45 0 0 0-.645 2.295c0 1.573.84 2.967 2.094 3.774a4.78 4.78 0 0 1-2.13-.559v.05c0 2.207 1.634 4.04 3.778 4.463-.384.1-.802.15-1.237.15-.301 0-.606-.018-.892-.078.61 1.798 2.344 3.12 4.406 3.163a9.698 9.698 0 0 1-5.847 1.937c-.386 0-.757-.016-1.128-.062 2.089 1.298 4.564 2.038 7.234 2.038 8.676 0 13.42-6.923 13.42-12.924 0-.2-.007-.394-.017-.587A9.213 9.213 0 0 0 23 2.854z"></path>
  </symbol>
  <symbol xmlns="http://www.w3.org/2000/svg" viewBox="0 0 43 15" id="visa">
    <g fill="none" fill-rule="evenodd">
      <path fill="#005BAC" d="M17.006.75l-2.084 12.875h3.333L20.339.75h-3.333zm-4.888 0L8.941 9.605l-.376-1.907v.001l-.083-.427a10.657 10.657 0 0 0-2.957-3.77A13.4 13.4 0 0 0 4.042 2.47L6.93 13.625h3.473L15.705.75h-3.587zm13.008 3.574c0-1.455 3.246-1.268 4.672-.478l.476-2.765S28.806.52 27.276.52c-1.654 0-5.582.727-5.582 4.262 0 3.326 4.61 3.368 4.61 5.114 0 1.747-4.135 1.435-5.5.333l-.495 2.89s1.488.728 3.763.728c2.274 0 5.705-1.185 5.705-4.408 0-3.348-4.651-3.66-4.651-5.115zM38.726.75h-2.68c-1.237 0-1.538.96-1.538.96l-4.97 11.915h3.474l.695-1.912h4.237l.39 1.912h3.061L38.727.75zm-4.059 8.32l1.751-4.818.986 4.819h-2.737z"></path>
      <path fill="#F6AC1D" d="M7.348 1.568S7.208.443 5.708.443H.257L.193.654s2.62.51 5.134 2.423c2.402 1.828 3.185 4.106 3.185 4.106L7.348 1.568z"></path>
    </g>
  </symbol>
  <symbol xmlns="http://www.w3.org/2000/svg" viewBox="0 0 10 7" id="arrow">
    <path fill="#FFF" d="M5.4 6.328l4.44-4.53a.56.56 0 0 0 .16-.394.56.56 0 0 0-.16-.394L9.515.677a.54.54 0 0 0-.773 0L5.012 4.48 1.28.673a.541.541 0 0 0-.773 0l-.327.333a.56.56 0 0 0-.16.394.56.56 0 0 0 .16.394l4.445 4.534a.54.54 0 0 0 .775 0z"></path>
  </symbol>
  <symbol viewBox="0 0 384 384" xmlns="http://www.w3.org/2000/svg" id="clock">
    <path d="M343.594 101.04c-7.953 3.847-11.281 13.417-7.434 21.366C346.672 144.121 352 167.527 352 192c0 88.223-71.777 160-160 160S32 280.223 32 192 103.777 32 192 32c36.559 0 70.902 11.938 99.328 34.52 6.895 5.503 16.977 4.351 22.48-2.567 5.504-6.914 4.352-16.984-2.57-22.48C277.586 14.727 235.238 0 192 0 86.137 0 0 86.137 0 192s86.137 192 192 192 192-86.137 192-192c0-29.336-6.406-57.45-19.04-83.527-3.839-7.97-13.44-11.29-21.366-7.434zm0 0"></path>
    <path fill="#00c471" d="M192 64c-8.832 0-16 7.168-16 16v112c0 8.832 7.168 16 16 16h80c8.832 0 16-7.168 16-16s-7.168-16-16-16h-64V80c0-8.832-7.168-16-16-16zm0 0"></path>
  </symbol>
  <symbol viewBox="0 0 10 21" id="facebook">
    <path d="M9.597 10.48H6.631V21H2.137V10.48H0V6.783h2.137V4.39c0-1.71.84-4.39 4.534-4.39L10 .013v3.59H7.585c-.396 0-.953.19-.953 1.007v2.176H9.99l-.393 3.694z" fill="#FFF"></path>
  </symbol>
  <symbol xmlns="http://www.w3.org/2000/svg" viewBox="0 0 19 19" id="facebook-social">
    <path fill="#FFF" d="M0 .723v18h10.119V11.77H7.645V8.932h2.474V6.548c0-1.734 1.483-3.139 3.313-3.139h2.586v2.552h-1.85c-.582 0-1.053.447-1.053.998v1.973h2.856l-.394 2.838h-2.462v6.953H19v-18H0z"></path>
  </symbol>
  <symbol xmlns="http://www.w3.org/2000/svg" width="12" height="21" viewBox="0 0 12 21" id="arrow-mobile">
    <path fill="#00C471" fill-rule="evenodd" d="M11.656 9.661L2.596.335C2.386.119 2.106 0 1.808 0c-.298 0-.578.119-.787.335l-.668.686c-.434.448-.434 1.175 0 1.622l7.608 7.831-7.616 7.84c-.21.217-.325.504-.325.811 0 .307.115.595.325.811l.667.687c.21.216.49.335.788.335.298 0 .578-.12.787-.335l9.069-9.335c.21-.217.325-.506.324-.813.001-.309-.114-.598-.324-.814z"/>
  </symbol>
  <symbol xmlns="http://www.w3.org/2000/svg" width="22" height="22" viewBox="0 0 22 22" id="icon-download">
    <path fill="#FFF" d="M2 13.063v6.95h18v-6.95h2V22H0v-8.938h2zM12.022 0v13.407l2.345-2.261 1.445 1.396L11 17.188l-4.813-4.646 1.446-1.396 2.345 2.261V0h2.044z"/>
  </symbol>
</svg>